<?xml version="1.0" encoding="utf-8" ?>
<svg baseProfile="full" height="200mm" version="1.1" viewBox="0,0,200,200" width="200mm" xmlns="http://www.w3.org/2000/svg" xmlns:ev="http://www.w3.org/2001/xml-events" xmlns:xlink="http://www.w3.org/1999/xlink"><defs /><rect fill="#1a1a1a" height="200" width="200" x="0" y="0" /><text alignment-baseline="middle" fill="#e1ed5e" style="dominant-baseline: central; font-size:9.0px; font-family:Arial;" text-anchor="middle" x="100.0" y="100.0">2014</text><line stroke="#e1ed5e" stroke-width="0.3" x1="100.0" x2="100.0" y1="15.0" y2="10.0" /><path d="M 100.0 14.0 a86.0,86.0 0 0,1 42.46469731375804,11.215312516191453" fill="none" id="id13" stroke="none" /><text fill="#e1ed5e" style="font-size:6.75px; font-family:Arial;" text-anchor="middle"><textPath startOffset="22.20632615414155" xlink:href="#id13">January</textPath></text><path d="M 100.0 79.0 l 0.0 -14.009915014164307 a35.00991501416431,35.00991501416431 0 0,0 0.6026381361243143,0.005187096697271656 l -0.24115765685178595 14.007839294075593" fill="#ff8a0c" stroke="none" /><path d="M 100.72285384407766 79.0124445844662 l 0.5938459342281064 -17.241901049588677 a38.25212464589235,38.25212464589235 0 0,0 0.6578621664976199,0.028328928739214634 l -0.8905489331150579 17.229124394325265" fill="#ffb711" stroke="none" /><path d="M 101.08401301168833 79.027996857942 l 0.8199191901438636 -15.862676597533952 a36.88385269121813,36.88385269121813 0 0,0 0.6337663731428913,0.038230518368871015 l -1.0928476121263668 15.846212809784777" fill="#ffa40f" stroke="none" /><path d="M 102.88285421437855 79.19881850522331 l 1.3148428569828563 -9.487224421130442 a30.577903682719548,30.577903682719548 0 0,0 0.5207431843050168,0.0767440088987591 l -1.477955021716529 9.463185928070713" fill="#ff4a06" stroke="none" /><path d="M 103.2404852339499 79.25152402106235 l 3.8968441411097294 -24.951070971838618 a46.25354107648725,46.25354107648725 0 0,0 0.7855851054589931,0.12962827355365955 l -4.325758452707598 24.880296435345333" fill="#deff1b" stroke="none" /><path d="M 103.95276090670814 79.375362276772 l 4.495285739371044 -23.455413070792883 a44.882294617563744,44.882294617563744 0 0,0 0.7575139444122587,0.1519501709279042 l -4.898366093250428 23.37455894378777" fill="#efff19" stroke="none" /><path d="M 104.66035177308747 79.52364482259891 l 1.0495693086698419 -4.611530415307043 a25.729461756373937,25.729461756373937 0 0,0 0.4310007234807608,0.10200394617301504 l -1.1287937191131263 4.5927805569931595" fill="#ff0000" stroke="none" /><path d="M 105.01212808612495 79.60689891045804 l 3.634857762175602 -14.78933110176414 a36.22946175637394,36.22946175637394 0 0,0 0.60432659147541,0.15405630405994186 l -3.8888932423360374 14.72457180153533" fill="#ff9b0e" stroke="none" /><path d="M 105.36241919743992 79.69619591428918 l 4.086376102298415 -15.472303963332047 a37.0028328611898,37.0028328611898 0 0,0 0.6144269487332914,0.16794609520126166 l -4.352100940255417 15.399671327304493" fill="#ffa60f" stroke="none" /><path d="M 106.40334571778207 80.00007090966166 l 6.539394139547977 -20.424856762229382 a42.446175637393765,42.446175637393765 0 0,0 0.6939286298301278,0.22877735903975907 l -6.890005591620523 20.309265678930387" fill="#ffef16" stroke="none" /><path d="M 107.08798089147638 80.2323363322302 l 6.505682178012314 -18.143691298462922 a40.274787535410766,40.274787535410766 0 0,0 0.6505676075126509,0.23960954021279937 l -6.817032111297542 18.0290184904438" fill="#ffd313" stroke="none" /><path d="M 108.09893153111575 80.62456947434976 l 5.999633414693395 -14.353187202429288 a36.55665722379604,36.55665722379604 0 0,0 0.5784938550647346,0.24768087837638822 l -6.245811027548445 14.247786796090109" fill="#ffa00e" stroke="none" /><path d="M 108.43124777332544 80.76684994638697 l 9.600396720929625 -21.900183184276933 a44.91203966005666,44.91203966005666 0 0,0 0.7053711321912303,0.3164794659392202 l -9.975949971587635 21.73168338782118" fill="#efff19" stroke="none" /><path d="M 109.08828744355905 81.06846463323043 l 10.348547132970431 -21.55674402456948 a44.91203966005666,44.91203966005666 0 0,0 0.6940593965169249,0.34057193160399035 l -10.718077796497788 21.375416932830657" fill="#efff19" stroke="none" /><path d="M 109.41281617654863 81.2277094730956 l 6.719630811587119 -13.40118190589209 a35.991501416430594,35.991501416430594 0 0,0 0.5514232436509997,0.28246040279302315 l -6.949314542826874 13.283528977786567" fill="#ff980e" stroke="none" /><path d="M 110.05341064243156 81.56283822128135 l 8.843014176982997 -16.21739017646499 a39.47167138810198,39.47167138810198 0 0,0 0.5937214359793312,0.3304053363139394 l -9.120859702034364 16.06276944259087" fill="#ffc812" stroke="none" /><line stroke="#e1ed5e" stroke-width="0.3" x1="143.23703022742887" x2="145.7803849466894" y1="26.81831364943548" y2="22.513508569990506" /><path d="M 143.74570117128098 25.957352633546492 a86.0,86.0 0 0,1 28.547481713284135,27.462654790039103" fill="none" id="id14" stroke="none" /><text fill="#e1ed5e" style="font-size:6.75px; font-family:Arial;" text-anchor="middle"><textPath startOffset="19.985693538727396" xlink:href="#id14">February</textPath></text><path d="M 112.48926042617603 83.11751280151076 l 12.789993325956473 -17.289006012050603 a42.505665722379604,42.505665722379604 0 0,0 0.5844606887808368,0.44020367364892937 l -13.085700168495693 17.066285748895826" fill="#fff016" stroke="none" /><path d="M 114.42810811169701 84.74124197986012 l 14.877709214327794 -15.734243397538005 a42.654390934844194,42.654390934844194 0 0,0 0.5291515986682562,0.5090434186726049 l -15.14634405660847 15.475816892103099" fill="#fff216" stroke="none" /><path d="M 114.68862486808459 84.99185889309783 l 17.996686276052646 -18.38816155449063 a46.72946175637394,46.72946175637394 0 0,0 0.5700197704492067,0.5675719244032061 l -18.31054184666917 18.075653779437307" fill="#d8ff1c" stroke="none" /><path d="M 115.19652480421416 85.50635884689758 l 14.744503528168128 -14.062527181126278 a41.375354107648725,41.375354107648725 0 0,0 0.4871114095454477,0.5196164888422461 l -14.984382259684038 13.806641275405978" fill="#ffe115" stroke="none" /><path d="M 115.4437574822437 85.77008943001954 l 14.721882132507092 -13.564773107077698 a41.01841359773371,41.01841359773371 0 0,0 0.4739704243491315,0.5233699806732179 l -14.95319619747226 13.309350339134932" fill="#ffdd14" stroke="none" /><path d="M 115.9244219780498 86.31012108654704 l 18.337896697102682 -15.764690590137759 a45.182719546742206,45.182719546742206 0 0,0 0.5019356630496726,0.5941335063928995 l -18.606542973639474 15.446698134115753" fill="#ebff1a" stroke="none" /><path d="M 116.15771136456269 86.58626213691792 l 23.916159172759233 -19.85461199280562 a52.083569405099155,52.083569405099155 0 0,0 0.5667225784337225,0.6947348711277839 l -24.254380243269363 19.439992952069733" fill="#97ff23" stroke="none" /><path d="M 116.38621287248628 86.86637796730983 l 15.364975809611783 -12.315096013655655 a40.69121813031161,40.69121813031161 0 0,0 0.43335356621452853,0.5503150213487867 l -15.574683456420276 12.048788598353829" fill="#ffd814" stroke="none" /><path d="M 116.82858285166822 87.43820079747576 l 12.037442408062955 -8.9854229423155 a36.021246458923514,36.021246458923514 0 0,0 0.36662319581586184,0.5000736270734011 l -12.190328216392443 8.776886871570605" fill="#ff980e" stroke="none" /><path d="M 117.04232023915458 87.72973835380427 l 17.356130668487456 -12.49620130823617 a42.38668555240793,42.38668555240793 0 0,0 0.42121744586326754,0.5957822054209557 l -17.56866073415461 12.195592602483421" fill="#ffef16" stroke="none" /><path d="M 117.45458315368197 88.32363383020206 l 15.427280294472448 -10.32018766282424 a39.56090651558074,39.56090651558074 0 0,0 0.3737627124277052,0.5692662534131638 l -15.602639642258078 10.053103345433403" fill="#ffc912" stroke="none" /><path d="M 117.65298651832404 88.62581576622439 l 15.227576189319178 -9.81144220732202 a39.11473087818697,39.11473087818697 0 0,0 0.35980412313961513,0.5691237156598 l -15.394207908704749 9.547870843948015" fill="#ffc312" stroke="none" /><line stroke="#e1ed5e" stroke-width="0.3" x1="172.23445277983987" x2="176.4835382374775" y1="55.19839476539836" y2="52.563006222186495" /><path d="M 173.08426987136738 54.67131705675599 a86.0,86.0 0 0,1 12.851231095245387,41.99856678651699" fill="none" id="id15" stroke="none" /><text fill="#e1ed5e" style="font-size:6.75px; font-family:Arial;" text-anchor="middle"><textPath startOffset="22.20632615414155" xlink:href="#id15">March</textPath></text><path d="M 118.03404312379186 89.2402003453031 l 14.100271677525644 -8.412761203105788 a37.41926345609065,37.41926345609065 0 0,0 0.32526307296930757,0.5559800272787531 l -14.242994424965277 8.16880176347314" fill="#ffac0f" stroke="none" /><path d="M 118.21658344932153 89.55222093294921 l 20.203377961499665 -11.587267718839621 a44.29036827195468,44.29036827195468 0 0,0 0.3736047763676541,0.6646012092168441 l -20.399840379159755 11.237782999687983" fill="#f7ff19" stroke="none" /><path d="M 118.3937258080291 89.86733742301442 l 17.742389908311356 -9.773857244939355 a41.256373937677054,41.256373937677054 0 0,0 0.33730406003397917,0.6249731956343906 l -17.9080020675638 9.467003065972508" fill="#ffe015" stroke="none" /><path d="M 119.7369772167798 92.82701384747503 l 19.848801450302634 -7.213626300697914 a42.11898016997167,42.11898016997167 0 0,0 0.241776823758229,0.6835356387817476 l -19.970031354870674 6.870893035489551" fill="#ffeb16" stroke="none" /><path d="M 119.97218684219823 93.5106431181261 l 17.284711275613475 -5.616143137145821 a39.1742209631728,39.1742209631728 0 0,0 0.20285627178083915,0.643109817020405 l -17.37882303116252 5.317783153698997" fill="#ffc412" stroke="none" /><path d="M 120.45610955862082 95.25157060432595 l 17.52966895604193 -4.0691215076243665 a38.9957507082153,38.9957507082153 0 0,0 0.1461516411336101,0.6551691497450387 l -17.597114984177576 3.7667741883293635" fill="#ffc112" stroke="none" /><path d="M 120.6074358757038 95.95851677861258 l 20.89932590227184 -4.098728026222946 a42.29745042492918,42.29745042492918 0 0,0 0.133970680736799,0.7156767334960846 l -20.9667823069185 3.7383732152642986" fill="#ffed16" stroke="none" /><path d="M 120.78858239683441 97.02765380044208 l 20.965255901623372 -2.9976069321320584 a42.1784702549575,42.1784702549575 0 0,0 0.09657664778468594,0.7196082024820197 l -21.013748548465895 2.636280387585374" fill="#ffec16" stroke="none" /><path d="M 120.87857604477298 97.74499172005257 l 19.370350296496184 -2.0921110812543433 a40.48300283286119,40.48300283286119 0 0,0 0.0688652010573467,0.6934631766448499 l -19.40349262323576 1.7583723739050583" fill="#ffd513" stroke="none" /><path d="M 120.91429891909075 98.10471618934814 l 36.170480141940246 -3.277820867997063 a57.31869688385269,57.31869688385269 0 0,0 0.08058876725188897,0.9833870843351693 l -36.22154339301163 2.6547198664541245" fill="#5cff2a" stroke="none" /><line stroke="#e1ed5e" stroke-width="0.3" x1="184.98032266829074" x2="189.97916517819016" y1="98.17113171792111" y2="98.06355123074" /><path d="M 185.9800911702706 98.14961562048488 a86.0,86.0 0 0,1 -9.607161424134198,41.387399972396054" fill="none" id="id16" stroke="none" /><text fill="#e1ed5e" style="font-size:6.75px; font-family:Arial;" text-anchor="middle"><textPath startOffset="21.466115282336823" xlink:href="#id16">April</textPath></text><path d="M 120.99824983174949 100.27111621757518 l 19.2136960216858 0.24807517925434794 a40.21529745042493,40.21529745042493 0 0,0 -0.014894860127294504,0.6921056218863523 l -19.206579098873494 -0.5787706169308151" fill="#ffd213" stroke="none" /><path d="M 120.9904718944345 100.63252640178507 l 19.414699925022276 0.5850421251638114 a40.42351274787535,40.42351274787535 0 0,0 -0.026944902911069202,0.6953282171500929 l -19.401752889260006 -0.9191475893279104" fill="#ffd513" stroke="none" /><path d="M 120.70491114924044 103.5080841355445 l 17.127008656028917 2.901871296257773 a38.37110481586402,38.37110481586402 0 0,0 -0.11594205294964102,0.6502646056007767 l -17.07452016074009 -3.196254652591768" fill="#ffb911" stroke="none" /><path d="M 120.41448212921028 104.9243191809786 l 19.05544436706739 4.596496232669828 a40.60198300283286,40.60198300283286 0 0,0 -0.16973308213490357,0.677999290683505 l -18.973499970637427 -4.923823362750729" fill="#ffd714" stroke="none" /><path d="M 120.32669344350535 105.2749913415812 l 17.908220002635023 4.647371975160779 a39.5014164305949,39.5014164305949 0 0,0 -0.17646208869422075,0.6566810775394787 l -17.825569837599026 -4.954943985875806" fill="#ffc812" stroke="none" /><path d="M 120.23288151984713 105.62410040840565 l 18.28410539612247 5.082402352071968 a39.977337110481585,39.977337110481585 0 0,0 -0.19000155244345948,0.6614203299176229 l -18.19391120679291 -5.396380157494173" fill="#ffcf13" stroke="none" /><path d="M 119.67450827220406 107.3425965602758 l 22.402743909383634 8.360783817005254 a44.91203966005666,44.91203966005666 0 0,0 -0.27654207824612487,0.7219641026043004 l -22.255507551544003 -8.745171486442699" fill="#efff19" stroke="none" /><path d="M 118.81262510543309 109.33194174019688 l 19.665321994064612 9.754919269497584 a42.95184135977337,42.95184135977337 0 0,0 -0.33424985953063385,0.6595066831463305 l -19.494493464747713 -10.09198016434661" fill="#fff617" stroke="none" /><path d="M 118.64920377521936 109.65438752849418 l 7.158547058193266 3.705862634875246 a29.060906515580736,29.060906515580736 0 0,0 -0.23379844116753465,0.44225854144595855 l -7.093696108800838 -3.828536191407339" fill="#ff3304" stroke="none" /><line stroke="#e1ed5e" stroke-width="0.3" x1="174.80103733775053" x2="179.2010983576182" y1="140.37084112569926" y2="142.7455964860345" /><path d="M 175.68104954172406 140.8457921977663 a86.0,86.0 0 0,1 -30.038265399797805,32.042727171017184" fill="none" id="id17" stroke="none" /><text fill="#e1ed5e" style="font-size:6.75px; font-family:Arial;" text-anchor="middle"><textPath startOffset="22.206326154141568" xlink:href="#id17">May</textPath></text><path d="M 118.12598468904814 110.60418214915192 l 18.074636290495594 10.574141973092006 a41.94050991501416,41.94050991501416 0 0,0 -0.369913548534702,0.6199963847317184 l -17.889941866262664 -10.88370045170983" fill="#ffe915" stroke="none" /><path d="M 117.75023020441432 111.22182372390056 l 16.191428118474263 10.236337787807303 a40.155807365439095,40.155807365439095 0 0,0 -0.374395799491476,0.5810705950510461 l -16.012827455605738 -10.5135299827798" fill="#ffd113" stroke="none" /><path d="M 115.32070863581623 114.36230785411682 l 15.255606474474238 14.301278217342952 a41.91076487252124,41.91076487252124 0 0,0 -0.4979267267805085,0.5220741823445431 l -15.007173196314765 -14.561759516270001" fill="#ffe815" stroke="none" /><path d="M 114.55890576462653 115.13401014063108 l 14.2702022508804 14.833902290816868 a41.583569405099155,41.583569405099155 0 0,0 -0.5201196933734433,0.4918056343189828 l -14.012746723116148 -15.077342561881773" fill="#ffe415" stroke="none" /><path d="M 114.29624159901734 115.38237550388516 l 14.518987572939709 15.62204424403068 a42.3271954674221,42.3271954674221 0 0,0 -0.5379594066694796,0.491413163098148 l -14.247928616803366 -15.869650173715412" fill="#ffee16" stroke="none" /><path d="M 113.20401910651253 116.32954008644616 l 11.221545982871836 13.877796107461325 a38.84702549575071,38.84702549575071 0 0,0 -0.5235885474662032,0.415970408370121 l -10.980999942688282 -14.068900429836573" fill="#ffbf11" stroke="none" /><path d="M 112.63410532772338 116.77436683061366 l 11.793024661430174 15.657659690332016 a40.60198300283286,40.60198300283286 0 0,0 -0.5618831662587248,0.4156677336688601 l -11.521756524752885 -15.858337372740646" fill="#ffd714" stroke="none" /><path d="M 112.34349029814194 116.9893568818739 l 11.276984762466784 15.521437944488186 a40.18555240793201,40.18555240793201 0 0,0 -0.5631195185214687,0.4017708247145322 l -11.00813791609643 -15.713253031046937" fill="#ffd113" stroke="none" /><line stroke="#e1ed5e" stroke-width="0.3" x1="143.8653032363475" x2="146.44561519142675" y1="172.8068346515853" y2="177.08958963109032" /><path d="M 144.38136562736335 173.6633856474863 a86.0,86.0 0 0,1 -40.68145358897372,12.25698825130547" fill="none" id="id18" stroke="none" /><text fill="#e1ed5e" style="font-size:6.75px; font-family:Arial;" text-anchor="middle"><textPath startOffset="21.466115282336833" xlink:href="#id18">June</textPath></text><path d="M 110.8373102113329 117.98757091392108 l 9.639986986851367 16.000275543827808 a39.679886685552404,39.679886685552404 0 0,0 -0.5880788385950967,0.3474473435696007 l -9.363140277227888 -16.16384145969116" fill="#ffcb12" stroke="none" /><path d="M 110.5260780823613 118.17145234162733 l 9.079860555464627 15.674808039732353 a39.11473087818697,39.11473087818697 0 0,0 -0.5855125658620747,0.3324693158357841 l -8.808699222681353 -15.828780521362765" fill="#ffc312" stroke="none" /><path d="M 110.21172684928248 118.3499491758327 l 9.155840078747616 16.452574827623373 a39.828611898017,39.828611898017 0 0,0 -0.6019377548270225,0.32822445792304156 l -8.871279512051943 -16.607739937306185" fill="#ffcd13" stroke="none" /><path d="M 109.57404056367764 118.69057910512821 l 8.36711477023952 16.334401285926493 a39.35269121813031,39.35269121813031 0 0,0 -0.6055556375859885,0.30363816781443814 l -8.08470522497077 -16.476007294650234" fill="#ffc612" stroke="none" /><path d="M 108.59647513512805 119.15986991738527 l 6.2220946091365885 13.867837858050812 a36.19971671388102,36.19971671388102 0 0,0 -0.5707132279624839,0.25018390742301533 l -5.982460706516351 -13.972886318768282" fill="#ff9b0e" stroke="none" /><path d="M 106.91757812671514 119.82793768551818 l 6.084725236104958 17.440721391935966 a39.47167138810198,39.47167138810198 0 0,0 -0.6434451337001413,0.21829152462633247 l -5.78361036946759 -17.542875903460423" fill="#ffc812" stroke="none" /><path d="M 105.88484417918355 120.15858648285463 l 5.117980631754533 17.53168852758179 a39.26345609065156,39.26345609065156 0 0,0 -0.6504063145919553,0.18381132123676328 l -4.815443149057972 -17.61718864215707" fill="#ffc512" stroke="none" /><path d="M 105.53697534728816 120.25689768951611 l 5.019354422470851 18.363193372932454 a40.036827195467424,40.036827195467424 0 0,0 -0.6663454163962104,0.17598788078948438 l -4.702518563263143 -18.446872603025522" fill="#ffcf13" stroke="none" /><path d="M 104.48393922423573 120.51570834832081 l 3.9631417505992843 18.132864035909616 a39.56090651558074,39.56090651558074 0 0,0 -0.66652316756222,0.13967641024603433 l -3.6504271216076862 -18.198396426882194" fill="#ffc912" stroke="none" /><path d="M 103.41894727170886 120.7198165907248 l 3.109014374556782 18.84153293377524 a40.096317280453256,40.096317280453256 0 0,0 -0.6819507873310465,0.10650668795481788 l -2.784227723617218 -18.892257929077164" fill="#ffd013" stroke="none" /><path d="M 103.06178313531738 120.77559828337769 l 2.48065149207017 16.832354416560964 a38.01416430594901,38.01416430594901 0 0,0 -0.6481802556136412,0.08983187719611035 l -2.1905426452696983 -16.872560859249678" fill="#ffb410" stroke="none" /><path d="M 102.70371172650421 120.8252237178851 l 2.607971226273889 20.08778661739341 a41.256373937677054,41.256373937677054 0 0,0 -0.705037201455716,0.08537018648433183 l -2.2618066017667924 -20.12970233260309" fill="#ffe015" stroke="none" /><path d="M 102.34483914955558 120.86867818915974 l 2.1223119214816157 18.888222893587923 a40.007082152974505,40.007082152974505 0 0,0 -0.6850115546253037,0.07100424848017697 l -1.7968677702507097 -18.92195651052386" fill="#ffcf13" stroke="none" /><path d="M 101.62511606390274 120.93702456842531 l 1.5698713251864924 20.22528435646752 a41.286118980169974,41.286118980169974 0 0,0 -0.7090148555791002,0.04889781559687847 l -1.2214937088284619 -20.24931051658068" fill="#ffe015" stroke="none" /><path d="M 100.90346689309514 120.98055641714683 l 0.9930457635153409 23.060781557657144 a44.082152974504254,44.082152974504254 0 0,0 -0.7583802249549084,0.026120148346358375 l -0.5959451868857801 -23.074458504429597" fill="#f9ff18" stroke="none" /><line stroke="#e1ed5e" stroke-width="0.3" x1="102.19456741930631" x2="102.32365962044197" y1="184.97166512339345" y2="189.96999836594603" /><path d="M 102.22038585953345 185.97133177190398 a86.0,86.0 0 0,1 -42.740103519485714,-10.115201625700543" fill="none" id="id19" stroke="none" /><text fill="#e1ed5e" style="font-size:6.75px; font-family:Arial;" text-anchor="middle"><textPath startOffset="22.20632615414155" xlink:href="#id19">July</textPath></text><path d="M 100.54218724476979 120.99299961872073 l 0.46231830219747355 17.900546417096145 a38.90651558073654,38.90651558073654 0 0,0 -0.6696372884141505,0.011528413199517229 l -0.15412132389065508 -17.905852307574822" fill="#ffc011" stroke="none" /><path d="M 99.81925306533755 120.99922214144158 l -0.19636387944206485 22.81360252476727 a43.81444759206799,43.81444759206799 0 0,0 -0.7541098821361192,-0.012982685506795781 l 0.589033451470852 -22.806842361981314" fill="#fdff18" stroke="none" /><path d="M 98.01472825383883 120.90594882070398 l -2.047135738251185 21.557408982255662 a42.654390934844194,42.654390934844194 0 0,0 -0.730339456752945,-0.07570267087031035 l 2.417907791609723 -21.518976942929594" fill="#fff216" stroke="none" /><path d="M 97.2962882734958 120.8252237178851 l -3.833449629221952 29.526981503686933 a50.774787535410766,50.774787535410766 0 0,0 -0.8657618907139936,-0.11998670921263942 l 4.341140111122777 -29.45662022898169" fill="#a7ff21" stroke="none" /><path d="M 96.58105272829116 120.7198165907248 l -3.118699777592772 18.900229298054917 a40.155807365439095,40.155807365439095 0 0,0 -0.6810253378367317,-0.1184049844145066 l 3.4435740869015534 -18.843745735119406" fill="#ffd113" stroke="none" /><path d="M 95.86986931433489 120.58985236759428 l -5.931944072612481 29.572394193683557 a51.16147308781869,51.16147308781869 0 0,0 -0.8619698106819471,-0.18063415460389398 l 6.440105344723815 -29.46590405835312" fill="#a2ff22" stroke="none" /><path d="M 95.51606077576429 120.51570834832081 l -6.363891080289215 29.117195134585636 a50.804532577903686,50.804532577903686 0 0,0 -0.8527416215821397,-0.1940812167837267 l 6.864152851264217 -29.003337184224222" fill="#a6ff21" stroke="none" /><path d="M 95.16358092515715 120.4354850818985 l -5.315950711158716 22.461666322313373 a44.082152974504254,44.082152974504254 0 0,0 -0.7368997620546205,-0.181112032830889 l 5.701803757956546 -22.366833031168454" fill="#f9ff18" stroke="none" /><path d="M 94.81253420990036 120.34920634021253 l -4.805386156834511 18.850397941216706 a40.45325779036827,40.45325779036827 0 0,0 -0.6732762008163946,-0.17781836394777473 l 5.1291528004623945 -18.76488822796535" fill="#ffd513" stroke="none" /><path d="M 93.42475214034765 119.94407469862007 l -7.087483882713087 21.497791566076305 a43.63597733711048,43.63597733711048 0 0,0 -0.7113293226361045,-0.2413215272244384 l 7.456482938286418 -21.372607051953743" fill="#ffff18" stroke="none" /><path d="M 93.08242187328487 119.8279376855182 l -4.918731189250697 14.098618580920864 a35.932011331444755,35.932011331444755 0 0,0 -0.5822362192057935,-0.2087691932347464 l 5.160686969086217 -14.011861846646159" fill="#ff970d" stroke="none" /><path d="M 92.40401165467489 119.57807347666478 l -4.873913201745435 12.562134964488875 a34.47450424929178,34.47450424929178 0 0,0 -0.5513933043448817,-0.21941077525972924 l 5.089427582132175 -12.476377344823078" fill="#ff820c" stroke="none" /><path d="M 91.40352486487194 119.15986991738527 l -8.608651445517753 19.18700854333058 a42.02974504249292,42.02974504249292 0 0,0 -0.6575293512473602,-0.3018394753795367 l 8.937648792532533 -19.035981997616968" fill="#ffea16" stroke="none" /><path d="M 91.07499286063937 119.00905698771935 l -12.666936478242713 26.978859917414713 a50.804532577903686,50.804532577903686 0 0,0 -0.7884073131098961,-0.3784834217262712 l 13.12945645935285 -26.75682221918888" fill="#a6ff21" stroke="none" /><path d="M 90.7491055286396 118.85261126421891 l -17.492838695844362 35.64905954353009 a60.70963172804532,60.70963172804532 0 0,0 -0.9341942980445974,-0.4684244145950629 l 18.103886901571723 -35.34266728802572" fill="#38ff2e" stroke="none" /><line stroke="#e1ed5e" stroke-width="0.3" x1="58.666819895761336" x2="56.23545636021788" y1="174.27360380694188" y2="178.64263932499728" /><path d="M 58.180547188652646 175.14741091055294 a86.0,86.0 0 0,1 -31.652253787137756,-30.449443065178592" fill="none" id="id20" stroke="none" /><text fill="#e1ed5e" style="font-size:6.75px; font-family:Arial;" text-anchor="middle"><textPath startOffset="22.20632615414155" xlink:href="#id20">August</textPath></text><path d="M 88.54995079064634 117.60387380957326 l -4.135641003378452 6.358339690426604 a28.584985835694052,28.584985835694052 0 0,0 -0.41016092706925883,-0.2718322970697493 l 4.244476629187672 -6.286209372265536" fill="#ff2c04" stroke="none" /><path d="M 86.79598089348748 116.32954008644616 l -9.351288319059861 11.564830089551107 a35.87252124645892,35.87252124645892 0 0,0 -0.4768139163953333,-0.39238539186719557 l 9.548972363999884 -11.40214957882673" fill="#ff960d" stroke="none" /><path d="M 86.24171649860922 115.8653595955263 l -19.52662899205887 22.517125091667634 a50.804532577903686,50.804532577903686 0 0,0 -0.6557598601070088,-0.5786318326528763 l 19.911331205072468 -22.177670117242467" fill="#a6ff21" stroke="none" /><path d="M 84.9287848128048 114.62390073753433 l -17.139771492633177 16.631062184371547 a44.882294617563744,44.882294617563744 0 0,0 -0.5332304031505539,-0.5590899458762969 l 17.42350844716269 -16.33356512191275" fill="#efff19" stroke="none" /><path d="M 84.4343377721795 114.09645910891817 l -11.023840104688741 9.983327980820231 a35.87252124645892,35.87252124645892 0 0,0 -0.41055442963754907,-0.4612622539554037 l 11.194053383974625 -9.792091557123962" fill="#ff960d" stroke="none" /><path d="M 84.19399662182784 113.82643327865904 l -22.410494874717198 19.60376729736217 a50.774787535410766,50.774787535410766 0 0,0 -0.5697837622700803,-0.6627872404125605 l 22.74462114655806 -19.21510295778808" fill="#a7ff21" stroke="none" /><path d="M 83.50135304334701 112.99209946851258 l -35.754858135522774 28.155682984170333 a66.5099150141643,66.5099150141643 0 0,0 -0.7005495137399419,-0.9055546815336644 l 36.23421446648078 -27.536050308523414" fill="#36ff6d" stroke="none" /><path d="M 82.6465618267979 111.8261652097733 l -32.78964096749518 22.345756926115545 a60.67988668555241,60.67988668555241 0 0,0 -0.5807842279916573,-0.8681936190086695 l 33.16942830089757 -21.77802639290105" fill="#38ff2e" stroke="none" /><line stroke="#e1ed5e" stroke-width="0.3" x1="26.63291911575756" x2="22.317208475507996" y1="142.92168965132927" y2="145.44649492493687" /><path d="M 25.769776987707644 143.4266507060508 a86.0,86.0 0 0,1 -11.730757126820373,-40.83630448921669" fill="none" id="id21" stroke="none" /><text fill="#e1ed5e" style="font-size:6.75px; font-family:Arial;" text-anchor="middle"><textPath startOffset="21.46611528233685" xlink:href="#id21">September</textPath></text><path d="M 81.87401531095188 110.60418214915194 l -20.539359421017718 12.016070423968205 a44.79603399433428,44.79603399433428 0 0,0 -0.38364177591291776,-0.6689117735657079 l 20.74315319308301 -11.660738804544192" fill="#f0ff19" stroke="none" /><path d="M 81.51974371655577 109.97397251340807 l -39.00224059820384 21.04988533283006 a65.32011331444758,65.32011331444758 0 0,0 -0.5255080622353401,-0.9940632108652504 l 39.358801168664066 -20.375407106878683" fill="#34ff5f" stroke="none" /><path d="M 80.73074385275274 108.34839909993369 l -15.2298086829518 6.598309770202547 a37.59773371104816,37.59773371104816 0 0,0 -0.25217161440924146,-0.5960592061727694 l 15.341131278553348 -6.335176038363619" fill="#ffae10" stroke="none" /><path d="M 80.45479744820244 107.68017299344265 l -36.0451185870261 14.16371846666053 a59.728045325779036,59.728045325779036 0 0,0 -0.36777037758673337,-0.9601324048144746 l 36.28358324420635 -13.541162495012896" fill="#42ff2d" stroke="none" /><path d="M 79.76711848015287 105.62410040840567 l -28.7157893525309 7.98208018303468 a50.804532577903686,50.804532577903686 0 0,0 -0.22695575865191567,-0.8445868075583279 l 28.84893318752459 -7.486602442300813" fill="#a6ff21" stroke="none" /><path d="M 79.58551787078972 104.9243191809786 l -17.609659513723887 4.2477484153200695 a39.11473087818697,39.11473087818697 0 0,0 -0.15224837932198296,-0.6558820334088171 l 17.680168458976425 -3.9439977245626783" fill="#ffc312" stroke="none" /><path d="M 79.50377843672027 104.57218783832718 l -15.56087076192342 3.4712360925543435 a36.94334277620396,36.94334277620396 0 0,0 -0.13311207351876003,-0.6218552921885616 l 15.61831687416662 -3.2028669809496177" fill="#ffa50f" stroke="none" /><path d="M 79.4281124754447 104.21870165774334 l -29.546591997024166 6.059155072169613 a51.16147308781869,51.16147308781869 0 0,0 -0.16949081484681827,-0.8642300133755206 l 29.646512744846653 -5.549661331726138" fill="#a2ff22" stroke="none" /><path d="M 79.23777060512086 103.15116336523772 l -62.286688184637434 9.45349009571317 a84.0,84.0 0 0,0 -0.20466379593360395,-1.4314181120783975 l 62.440186031587636 -8.379926511654372" fill="#4dd2ff" stroke="none" /><path d="M 79.07016306316243 101.71520430193888 l -18.647121010298626 1.528135277506453 a39.70963172804532,39.70963172804532 0 0,0 -0.04996500592508826,-0.6817328084657571 l 18.670662574888052 -1.2069293325439352" fill="#ffcb12" stroke="none" /><path d="M 79.04373962182676 101.35467743843564 l -29.71277144270738 1.9207253765921768 a50.774787535410766,50.774787535410766 0 0,0 -0.048873511380996465,-0.8726693770756487 l 29.741431304975908 -1.4089842831810906" fill="#a7ff21" stroke="none" /><path d="M 79.0095281055655 100.63252640178507 l -30.59376144387125 0.9219117102504855 a51.607648725212464,51.607648725212464 0 0,0 -0.01911433603613607,-0.8881680872579695 l 30.605097842592393 -0.3951538072023871" fill="#9dff22" stroke="none" /><line stroke="#e1ed5e" stroke-width="0.3" x1="15.007084014347285" x2="10.007500721073583" y1="101.09737516637583" y2="101.16192664675087" /><path d="M 14.007167355692545 101.11028546245083 a86.0,86.0 0 0,1 10.666146001902534,-42.60595125391555" fill="none" id="id22" stroke="none" /><text fill="#e1ed5e" style="font-size:6.75px; font-family:Arial;" text-anchor="middle"><textPath startOffset="22.20632615414155" xlink:href="#id22">October</textPath></text><path d="M 79.00175016825051 100.2711162175752 l -19.54086422019748 0.25229936961318594 a40.54249291784703,40.54249291784703 0 0,0 -0.003003431720123786,-0.6978917580855389 l 19.542311949207107 0.08410186667602834" fill="#ffd614" stroke="none" /><path d="M 79.16333360222342 97.38593545837743 l -29.543205473334783 -3.7063436347934635 a50.774787535410766,50.774787535410766 0 0,0 0.11625975865195128,-0.8662702409286493 l 29.475029715625 4.214332217786772" fill="#a7ff21" stroke="none" /><path d="M 79.21141760316559 97.0276538004421 l -23.906869756359573 -3.4181981294915884 a45.15,45.15 0 0,0 0.11662482910550022,-0.768411908357002 l 23.84448903381477 3.8292091502406826" fill="#ecff1a" stroke="none" /><path d="M 79.26566170972629 96.67025291283419 l -35.33060759659955 -5.673775843995001 a56.78328611898017,56.78328611898017 0 0,0 0.16328747359475107,-0.9637319123301479 l 35.22770826148457 6.281093544640977" fill="#62ff29" stroke="none" /><path d="M 79.32604984820605 96.31383870115002 l -29.7517469606553 -5.30473070769346 a51.22096317280453,51.22096317280453 0 0,0 0.16223453743232052,-0.8666633861323652 l 29.656026699313117 5.816072171288398" fill="#a1ff22" stroke="none" /><path d="M 79.46518482838121 95.60439243477599 l -51.48246863139557 -11.020149278252827 a73.6487252124646,73.6487252124646 0 0,0 0.2760270506840722,-1.2373751447511347 l 51.28514719370946 11.90470259255392" fill="#3fffc1" stroke="none" /><path d="M 79.81627453868168 94.20196356495316 l -57.63511406518091 -16.556432653051615 a80.96600566572238,80.96600566572238 0 0,0 0.39632513889792303,-1.3362113445834565 l 57.34158302917128 17.54607338438161" fill="#49f0ff" stroke="none" /><path d="M 79.91906864156998 93.8553929516997 l -14.534498476144107 -4.447442212013394 a36.19971671388102,36.19971671388102 0 0,0 0.1874533657990027,-0.5942783958343535 l 14.4557896265769 4.6969707742741615" fill="#ff9b0e" stroke="none" /><path d="M 80.38941819471856 92.48833698450439 l -8.610878696370033 -3.2983222872572817 a30.22096317280453,30.22096317280453 0 0,0 0.19025744096345867,-0.48418443488088436 l 8.552827705524884 3.4460557270339294" fill="#ff4406" stroke="none" /><line stroke="#e1ed5e" stroke-width="0.3" x1="26.266209847984243" x2="21.928928074336255" y1="57.711370442889674" y2="55.22380399835377" /><path d="M 25.398753493254645 57.213857153982495 a86.0,86.0 0 0,1 29.58750427330803,-30.492523968695096" fill="none" id="id23" stroke="none" /><text fill="#e1ed5e" style="font-size:6.75px; font-family:Arial;" text-anchor="middle"><textPath startOffset="21.46611528233685" xlink:href="#id23">November</textPath></text><path d="M 82.34701348167596 88.62581576622439 l -11.326916278754663 -7.298166370963666 a34.47450424929178,34.47450424929178 0 0,0 0.32570750654415076,-0.49607487797433986 l 11.199612136852592 7.492059312915672" fill="#ff820c" stroke="none" /><path d="M 82.54541684631803 88.32363383020206 l -17.429859948081848 -11.659827407517769 a41.97025495750708,41.97025495750708 0 0,0 0.40686271804731916,-0.5970208345119594 l 17.226572764365788 11.958126265300145" fill="#ffe915" stroke="none" /><path d="M 82.7489923806493 88.02491185347247 l -49.87153902421358 -34.619199585074604 a81.70963172804532,81.70963172804532 0 0,0 0.8119889991483661,-1.1485008549413362 l 49.26823740526134 35.47252694034773" fill="#4ae8ff" stroke="none" /><path d="M 82.95767976084542 87.72973835380427 l -14.55597606828642 -10.480124323875392 a38.93626062322946,38.93626062322946 0 0,0 0.3962921249570168,-0.5405420130793237 l 14.373421330815768 10.729128780626219" fill="#ffc111" stroke="none" /><path d="M 83.17141714833178 87.43820079747577 l -12.299644123882151 -9.181145026207512 a36.34844192634561,36.34844192634561 0 0,0 0.37858470403135835,-0.49817309330508264 l 12.139783479626685 9.391502895393618" fill="#ff9d0e" stroke="none" /><path d="M 83.84228863543731 86.58626213691792 l -25.426653436301912 -21.108587487088087 a54.04674220963173,54.04674220963173 0 0,0 0.6004062539573588,-0.7106916268043859 l 25.05953656885743 21.54313806352159" fill="#81ff25" stroke="none" /><path d="M 84.31358615837235 86.03803664274999 l -23.174121298608565 -20.626526602849534 a52.024079320113316,52.024079320113316 0 0,0 0.6011416041962285,-0.6637955737472331 l 22.815636053796293 21.022374963866323" fill="#98ff23" stroke="none" /><path d="M 85.05521093208273 85.24692304244772 l -26.396815818261814 -26.05819683578995 a58.09206798866855,58.09206798866855 0 0,0 0.7086241958544373,-0.7055811383574105 l 25.94435582224006 26.50871382479747" fill="#54ff2b" stroke="none" /><path d="M 85.83668400450813 84.49514656593479 l -30.13215386009745 -32.98624625774216 a65.67705382436262,65.67705382436262 0 0,0 0.8412574212295967,-0.7552892190331906 l 29.55988545127188 33.500034485544624" fill="#35ff63" stroke="none" /><path d="M 86.65592168130627 83.78471172551755 l -9.185866944596532 -11.162365582717376 a35.45609065155807,35.45609065155807 0 0,0 0.4745993610639028,-0.38375967714043785 l 8.992364184968128 11.318831357121951" fill="#ff900d" stroke="none" /><path d="M 87.22198572758235 83.33499621200491 l -10.968097236664446 -14.304521665049611 a39.02549575070822,39.02549575070822 0 0,0 0.5366077142620289,-0.40416180533756246 l 10.720243368644027 14.491200059893028" fill="#ffc212" stroke="none" /><line stroke="#e1ed5e" stroke-width="0.3" x1="56.76296977257108" x2="54.21961505331056" y1="26.818313649435495" y2="22.513508569990535" /><path d="M 56.25429882871898 25.957352633546506 a86.0,86.0 0 0,1 42.26535254187918,-11.944610805530505" fill="none" id="id24" stroke="none" /><text fill="#e1ed5e" style="font-size:6.75px; font-family:Arial;" text-anchor="middle"><textPath startOffset="22.20632615414155" xlink:href="#id24">December</textPath></text><path d="M 90.58718382345135 81.22770947309562 l -6.7062982107704885 -13.374592259253408 a35.961756373937675,35.961756373937675 0 0,0 0.5557439634339872,-0.2727011492875226 l 6.475082980326075 13.488048568675762" fill="#ff970e" stroke="none" /><path d="M 91.23893434514133 80.91482961587045 l -13.997849941473916 -30.493020103821724 a54.552407932011334,54.552407932011334 0 0,0 0.8567790293653481,-0.3844117759669773 l 13.470888793641794 30.72945221030523" fill="#7bff26" stroke="none" /><path d="M 91.90106846888425 80.62456947434976 l -12.159868871080315 -29.090589741061265 a52.52974504249292,52.52974504249292 0 0,0 0.8372644281967706,-0.3415411827192678 l 11.657320573295165 29.295591809964108" fill="#92ff23" stroke="none" /><path d="M 92.57280143429618 80.3572730644239 l -6.974833780540551 -18.446356881426286 a40.72096317280453,40.72096317280453 0 0,0 0.6577747818942691,-0.2422640033613947 l 6.656276672873713 18.563684152594004" fill="#ffd914" stroke="none" /><path d="M 93.25333710446033 80.11325718540243 l -10.358898836777621 -30.534318995784382 a53.243626062322946,53.243626062322946 0 0,0 0.8704500682522484,-0.28697370194896793 l 9.831765946282964 30.708106421992582" fill="#8aff24" stroke="none" /><path d="M 93.59665428221793 80.00007090966166 l -4.716345287884816 -14.73082595888943 a36.46742209631728,36.46742209631728 0 0,0 0.5994803584371764,-0.1862614654872862 l 4.462079556736911 14.80982755925924" fill="#ff9f0e" stroke="none" /><path d="M 94.28887869178378 79.79150937346287 l -7.296645070837164 -25.81877980897519 a47.8300283286119,47.8300283286119 0 0,0 0.7942110398417199,-0.21708787868458373 l 6.851136141771722 25.940554228486068" fill="#caff1d" stroke="none" /><path d="M 95.692805502759 79.44645832069477 l -6.1191445902729855 -29.200003263942122 a50.834277620396605,50.834277620396605 0 0,0 0.8579702637686458,-0.17210076354680878 l 5.615607917037204 29.301007983566144" fill="#a6ff21" stroke="none" /><path d="M 96.75951476605007 79.25152402106235 l -5.517086758084708 -35.325308961307435 a56.75354107648725,56.75354107648725 0 0,0 0.9665155599746998,-0.1424392694346618 l 4.908202217681359 35.415042714903066" fill="#62ff29" stroke="none" /><path d="M 98.55514903715128 79.0497635885617 l -4.316134108566486 -62.583638231902796 a83.73229461756374,83.73229461756374 0 0,0 1.438751887417084,-0.08678944290996805 l 3.2382201723097794 62.64866094419307" fill="#4dd5ff" stroke="none" /></svg>