<?xml version="1.0" encoding="utf-8" ?>
<svg baseProfile="full" height="200mm" version="1.1" viewBox="0,0,200,200" width="200mm" xmlns="http://www.w3.org/2000/svg" xmlns:ev="http://www.w3.org/2001/xml-events" xmlns:xlink="http://www.w3.org/1999/xlink"><defs /><rect fill="#1a1a1a" height="200" width="200" x="0" y="0" /><text alignment-baseline="middle" fill="#e1ed5e" style="dominant-baseline: central; font-size:9.0px; font-family:Arial;" text-anchor="middle" x="100.0" y="100.0">2023</text><line stroke="#e1ed5e" stroke-width="0.3" x1="100.0" x2="100.0" y1="15.0" y2="10.0" /><path d="M 100.0 14.0 a86.0,86.0 0 0,1 42.46469731375804,11.215312516191453" fill="none" id="id49" stroke="none" /><text fill="#e1ed5e" style="font-size:6.75px; font-family:Arial;" text-anchor="middle"><textPath startOffset="22.20632615414155" xlink:href="#id49">January</textPath></text><path d="M 100.0 79.0 l 0.0 -7.927750029039377 a28.927750029039377,28.927750029039377 0 0,0 0.49794366403681195,0.00428595832279006 l -0.13646318476428357 7.9265754473251455" fill="#ff5f08" stroke="none" /><path d="M 100.36148047927253 79.00311137660856 l 0.2024483831818441 -11.759379544393292 a32.761122081542574,32.761122081542574 0 0,0 0.5637617581618456,0.014560302954122294 l -0.40483677653855743 11.75415244929681" fill="#ff930d" stroke="none" /><path d="M 100.72285384407766 79.0124445844662 l 0.20241838826927872 -5.877076224648405 a26.880561040771287,26.880561040771287 0 0,0 0.4622933833520344,0.01990732554710242 l -0.30355260401064466 5.872721172577108" fill="#ff4306" stroke="none" /><path d="M 101.08401301168833 79.027996857942 l 0.2903628766352987 -5.617544342616533 a26.625043559066093,26.625043559066093 0 0,0 0.45749172225759505,0.02759715004227912 l -0.38701664773250566 5.61171392319395" fill="#ff3f05" stroke="none" /><path d="M 101.44485096284872 79.0497635885617 l 0.4200792147764362 -6.091118798679297 a27.105587176210943,27.105587176210943 0 0,0 0.46519616863813046,0.03610817592772474 l -0.5248655727769078 6.082985360563108" fill="#ff4606" stroke="none" /><path d="M 102.52436894288641 79.15227682838746 l 0.7964708027779301 -6.577724249610008 a27.625769543500986,27.625769543500986 0 0,0 0.4715919759515061,0.06122617325884084 l -0.9095775072372824 6.563039753187031" fill="#ff4d07" stroke="none" /><path d="M 103.2404852339499 79.25152402106235 l 0.8949069164497501 -5.729992059463847 a26.79945405970496,26.79945405970496 0 0,0 0.45517059783427205,0.07510704869483258 l -0.9934067204228972 5.71373874782939" fill="#ff4206" stroke="none" /><path d="M 103.59715602781102 79.31037775812273 l 0.8179153123986632 -4.704371650421044 a25.77494482518295,25.77494482518295 0 0,0 0.43646172062564736,0.07976058965122794 l -0.8987721541272115 4.689595579419078" fill="#ff3304" stroke="none" /><path d="M 103.95276090670814 79.375362276772 l 2.089559169058973 -10.902860527170485 a32.101289348356374,32.101289348356374 0 0,0 0.5417988211653654,0.10867974654709472 l -2.2769243996914637 10.865276824546182" fill="#ff8a0c" stroke="none" /><path d="M 104.66035177308747 79.52364482259891 l 2.2378782936396355 -9.832646335622732 a31.084098036938087,31.084098036938087 0 0,0 0.5206975905490258,0.12323229661852837 l -2.4067995711511845 9.792668126863335" fill="#ff7d0b" stroke="none" /><path d="M 105.36241919743992 79.69619591428918 l 2.362603788580513 -8.945560331873754 a30.252294110814262,30.252294110814262 0 0,0 0.5023351815364778,0.13730718093533584 l -2.516236859340702 8.903566610112124" fill="#ff710a" stroke="none" /><path d="M 105.71112130821622 79.79150937346287 l 1.3697337345962868 -4.84672796156842 a26.036560576141248,26.036560576141248 0 0,0 0.430235296036075,0.12559748074154822 l -1.452959248355789 4.822432151908168" fill="#ff3705" stroke="none" /><path d="M 106.0581310904928 79.89281104454417 l 1.7673360708296708 -5.865861895879579 a27.126321291671506,27.126321291671506 0 0,0 0.4459239473539851,0.13855074108943313 l -1.8680453908943742 5.834571019907625" fill="#ff4606" stroke="none" /><path d="M 106.40334571778207 80.00007090966166 l 3.280887206543932 -10.247379163373498 a31.759786270182367,31.759786270182367 0 0,0 0.5192228661172871,0.17117961553545644 l -3.4567928949036366 10.189385823578805" fill="#ff860c" stroke="none" /><path d="M 107.76421540070413 80.48803036053334 l 3.8388178479611055 -9.647194653315118 a31.382913230340343,31.382913230340343 0 0,0 0.5002079655953771,0.204047388640395 l -4.00430968314487 9.579686378491143" fill="#ff810b" stroke="none" /><path d="M 108.09893153111575 80.62456947434976 l 3.611781029252659 -8.640622795400477 a30.36511209199675,30.36511209199675 0 0,0 0.4805152354613438,0.2057315467577174 l -3.7599800225043185 8.577171720679967" fill="#ff730a" stroke="none" /><path d="M 108.43124777332544 80.76684994638697 l 5.473847324550957 -12.486802641091492 a34.6339005691718,34.6339005691718 0 0,0 0.5439466530931627,0.2440530075785411 l -5.6879760961109 12.39072930299642" fill="#ffac0f" stroke="none" /><path d="M 108.76106565485865 80.91482961587045 l 4.550228227353555 -9.912250909517867 a31.906754559182254,31.906754559182254 0 0,0 0.4971707284990631,0.23342832336195862 l -4.720177167152217 9.832457603515905" fill="#ff880c" stroke="none" /><path d="M 109.08828744355905 81.06846463323043 l 3.4005861223794405 -7.083657602532984 a28.857619932628644,28.857619932628644 0 0,0 0.44595842065859437,0.21882986024101567 l -3.522015810048467 7.024072582157136" fill="#ff5e08" stroke="none" /><path d="M 109.41281617654863 81.2277094730956 l 5.267579873918822 -10.50530871018628 a32.751974677662915,32.751974677662915 0 0,0 0.501790683966509,0.2570366779835502 l -5.447631045474087 10.413079506890229" fill="#ff930d" stroke="none" /><path d="M 109.73455568895987 81.39251694778311 l 5.655970212124203 -10.81131725254837 a33.20141712161691,33.20141712161691 0 0,0 0.5041160148336807,0.26928131648096465 l -5.841231273486194 10.712357209565653" fill="#ff990e" stroke="none" /><line stroke="#e1ed5e" stroke-width="0.3" x1="143.23703022742887" x2="145.7803849466894" y1="26.81831364943548" y2="22.513508569990506" /><path d="M 143.74570117128098 25.957352633546492 a86.0,86.0 0 0,1 28.547481713284135,27.462654790039103" fill="none" id="id50" stroke="none" /><text fill="#e1ed5e" style="font-size:6.75px; font-family:Arial;" text-anchor="middle"><textPath startOffset="19.985693538727396" xlink:href="#id50">February</textPath></text><path d="M 110.68208982089419 81.91981866633111 l 3.4745640633010755 -5.880941779487313 a27.83067139040539,27.83067139040539 0 0,0 0.4103538850048111,0.24723362423444087 l -3.5752800145235244 5.820261545794257" fill="#ff5007" stroke="none" /><path d="M 110.99172775467656 82.1063720568725 l 3.9991682262266983 -6.510316659874678 a28.64052154721803,28.64052154721803 0 0,0 0.4178527270541485,0.26165933934742497 l -4.11064010565311 6.440512979204309" fill="#ff5b08" stroke="none" /><path d="M 111.2981086023043 82.29822771554956 l 11.355852449266933 -17.79224481093619 a42.107329538854685,42.107329538854685 0 0,0 0.6076147288781224,0.3952095215655973 l -11.660434203929336 17.594136365211064" fill="#f4ff19" stroke="none" /><path d="M 111.60114157652 82.49532879139004 l 15.012825882055445 -22.652475986446916 a48.175717272621675,48.175717272621675 0 0,0 0.6872961304035776,0.4640654152723127 l -15.400526706865564 22.390698658875934" fill="#adff20" stroke="none" /><path d="M 112.48926042617603 83.11751280151076 l 7.947414441828183 -10.742999825197318 a34.363137414333835,34.363137414333835 0 0,0 0.47249943320562426,0.3558767771499305 l -8.131160028792191 10.60460645854154" fill="#ffa80f" stroke="none" /><path d="M 112.77801427241765 83.33499621200491 l 4.178198417569483 -5.449179424231176 a27.866651178998723,27.866651178998723 0 0,0 0.37814706584489116,0.29514978296130345 l -4.271378038573805 5.376451252046646" fill="#ff5107" stroke="none" /><path d="M 113.6212207817346 84.01681056812373 l 3.9903262645527575 -4.6822631835511626 a27.151934022534558,27.151934022534558 0 0,0 0.3531124552518142,0.30621564156645525 l -4.070332518451336 4.612882548565033" fill="#ff4706" stroke="none" /><path d="M 113.89432698308785 84.25364557470405 l 8.88024865172437 -10.063930611753351 a34.42168079916367,34.42168079916367 0 0,0 0.4409073296882432,0.3958509539440451 l -9.052166969008603 9.909580649040011" fill="#ffa90f" stroke="none" /><path d="M 114.42810811169701 84.74124197986012 l 4.654904202606393 -4.922894691710827 a27.775177140202114,27.775177140202114 0 0,0 0.344566621745519,0.3314728171194156 l -4.7389540679643325 4.84203878782911" fill="#ff4f07" stroke="none" /><path d="M 114.68862486808459 84.99185889309783 l 5.311808731625548 -5.42735454769 a28.594174700894413,28.594174700894413 0 0,0 0.3488001848633559,0.34730232602121575 l -5.404444716656224 5.335116371018666" fill="#ff5b08" stroke="none" /><path d="M 115.4437574822437 85.77008943001954 l 46.331272446731084 -42.689731709941405 a84.0,84.0 0 0,0 0.9706254375358574,1.0717888509218039 l -47.05924152488298 41.88589007175005" fill="#4dd2ff" stroke="none" /><path d="M 115.9244219780498 86.31012108654704 l 2.563278865847662 -2.2035950405758444 a24.380270646997328,24.380270646997328 0 0,0 0.2708408753455262,0.32059016879945257 l -2.6008303546803058 2.1591459221472853" fill="#ff1f03" stroke="none" /><path d="M 116.38621287248628 86.86637796730983 l 5.099635362830628 -4.087380280065646 a27.535515158555,27.535515158555 0 0,0 0.2932478859025654,0.3723950353071918 l -5.169237329327157 3.9989928508054153" fill="#ff4c07" stroke="none" /><path d="M 116.60985879189232 87.15038557335679 l 4.3849525577039445 -3.392259401574323 a26.543936577999766,26.543936577999766 0 0,0 0.2764665509892267,0.36379757405698254 l -4.442695048917285 3.3162770516363067" fill="#ff3e05" stroke="none" /><path d="M 117.04232023915458 87.72973835380427 l 6.450010444793287 -4.643928447986672 a28.94787431757463,28.94787431757463 0 0,0 0.2876693358848148,0.40688787477494803 l -6.528992400481985 4.53221407287993" fill="#ff6008" stroke="none" /><path d="M 117.2510076193507 88.02491185347247 l 4.568240750402458 -3.1711240796894113 a26.56101173190847,26.56101173190847 0 0,0 0.25748438836677656,0.37782656802350584 l -4.6221496044379675 3.092019488395499" fill="#ff3e05" stroke="none" /><path d="M 117.45458315368197 88.32363383020206 l 6.101196928239919 -4.081438598729754 a28.340486699965155,28.340486699965155 0 0,0 0.2677546627079555,0.4078087208957358 l -6.1705482263058 3.975811813856344" fill="#ff5708" stroke="none" /><path d="M 117.65298651832404 88.62581576622439 l 8.888009067682141 -5.726728024311812 a31.573179231037287,31.573179231037287 0 0,0 0.2904317583912734,0.459393294437353 l -8.98526842231937 5.5728870821602525" fill="#ff830c" stroke="none" /><line stroke="#e1ed5e" stroke-width="0.3" x1="172.23445277983987" x2="176.4835382374775" y1="55.19839476539836" y2="52.563006222186495" /><path d="M 173.08426987136738 54.67131705675599 a86.0,86.0 0 0,1 12.851231095245387,41.99856678651699" fill="none" id="id51" stroke="none" /><text fill="#e1ed5e" style="font-size:6.75px; font-family:Arial;" text-anchor="middle"><textPath startOffset="22.20632615414155" xlink:href="#id51">March</textPath></text><path d="M 118.03404312379186 89.2402003453031 l 6.4954186567658985 -3.8754151213034516 a28.56368335462888,28.56368335462888 0 0,0 0.24828685989907218,0.4244027269356458 l -6.561165191135296 3.7630329820139106" fill="#ff5a08" stroke="none" /><path d="M 118.56541770881063 90.18545643968196 l 23.43590160883954 -12.389307950023973 a47.50917644325706,47.50917644325706 0 0,0 0.37597985539052087,0.7262734086300842 l -23.64569089739018 11.984061819133546" fill="#b5ff20" stroke="none" /><path d="M 118.89224826269711 90.83032412892265 l 5.747882595199141 -2.7898331426785137 a27.389156696480427,27.389156696480427 0 0,0 0.20221258682730875,0.4259112784973984 l -5.795053375868206 2.6904794485405747" fill="#ff4a06" stroke="none" /><path d="M 119.196687751892 91.48605970444005 l 6.313790378613337 -2.8002348643138553 a27.90689975606923,27.90689975606923 0 0,0 0.19097527402077025,0.44079726290590904 l -6.361056362476788 2.6911384568213434" fill="#ff5107" stroke="none" /><path d="M 119.47837535516314 92.15188598940014 l 3.836169754289591 -1.54564726506819 a25.135846207457313,25.135846207457313 0 0,0 0.15824385703845023,0.4027133556802637 l -3.8622071612097417 1.4793849044921419" fill="#ff2a04" stroke="none" /><path d="M 119.61058180528143 92.48833698450437 l 11.393568073477335 -4.3642072816535356 a33.2008072946916,33.2008072946916 0 0,0 0.19982998571860888,0.5354450125076086 l -11.46700264769757 4.167439132116593" fill="#ff990e" stroke="none" /><path d="M 119.85752413597 93.16781622104841 l 8.199964955671197 -2.821281604619918 a29.671738877918457,29.671738877918457 0 0,0 0.1620115180114054,0.4843938176388631 l -8.247313767454372 2.679714684058741" fill="#ff6a09" stroke="none" /><path d="M 120.18372546131832 94.20196356495316 l 3.5864855412303047 -1.0302644019645617 a24.731530955976304,24.731530955976304 0 0,0 0.11401616098504892,0.41017679433861093 l -3.6036884727817164 0.9683763042069988" fill="#ff2403" stroke="none" /><path d="M 120.37134235888165 94.90015583598534 l 25.20566137841878 -6.3100871222074595 a46.98350563363921,46.98350563363921 0 0,0 0.18965048602350526,0.7862237022892529 l -25.31054466470311 5.875278188258801" fill="#bbff1f" stroke="none" /><path d="M 120.45610955862082 95.25157060432595 l 7.8180641741493995 -1.8147891531091365 a29.025932164014403,29.025932164014403 0 0,0 0.10878589446695368,0.48766583412505426 l -7.8481444556183915 1.6799451494341182" fill="#ff6108" stroke="none" /><path d="M 120.53481517161879 95.60439243477599 l 5.334663042319133 -1.141918494554944 a26.45551167382971,26.45551167382971 0 0,0 0.09148656593726345,0.4461209863026736 l -5.353528904171394 1.0499218520888587" fill="#ff3d05" stroke="none" /><path d="M 120.6074358757038 95.95851677861258 l 7.905222090778462 -1.550354087423857 a29.05581368335463,29.05581368335463 0 0,0 0.09202982920753991,0.49162702756472104 l -7.930737643895862 1.4140489823965734" fill="#ff6109" stroke="none" /><path d="M 120.73433829027371 96.67025291283417 l 6.733421567549395 -1.0813265674229144 a27.819694505749798,27.819694505749798 0 0,0 0.07185973682171502,0.47346588139695606 l -6.75103719781041 0.9652615736338755" fill="#ff5007" stroke="none" /><path d="M 120.91429891909075 98.10471618934814 l 6.369155905578604 -0.5771820572164625 a27.395254965733535,27.395254965733535 0 0,0 0.03851709732189678,0.4700061475570741 l -6.378147486719996 0.4674619924516197" fill="#ff4a06" stroke="none" /><path d="M 120.96714384426684 98.82574320788733 l 6.152050801558607 -0.34454322881596 a27.161691253339526,27.161691253339526 0 0,0 0.022125644362878005,0.4670373827102912 l -6.157070054154981 0.238594739482669" fill="#ff4706" stroke="none" /><line stroke="#e1ed5e" stroke-width="0.3" x1="184.98032266829074" x2="189.97916517819016" y1="98.17113171792111" y2="98.06355123074" /><path d="M 185.9800911702706 98.14961562048488 a86.0,86.0 0 0,1 -9.607161424134198,41.387399972396054" fill="none" id="id52" stroke="none" /><text fill="#e1ed5e" style="font-size:6.75px; font-family:Arial;" text-anchor="middle"><textPath startOffset="21.466115282336823" xlink:href="#id52">April</textPath></text><path d="M 120.99980553446 99.90962569577887 l 25.99546144508539 -0.11187349983558868 a46.99570217214543,46.99570217214543 0 0,0 -0.0034814924405197987,0.8089762333520514 l -25.99353565535537 -0.3356122117201474" fill="#bbff1f" stroke="none" /><path d="M 120.9904718944345 100.63252640178507 l 5.005626530290864 0.15083943580726564 a26.007898710651645,26.007898710651645 0 0,0 -0.01733595766528883,0.44736403674487935 l -5.002288439774372 -0.23698071956615116" fill="#ff3605" stroke="none" /><path d="M 120.95626037817324 101.35467743843564 l 7.832125423019212 0.5062927933751511 a28.848472528748985,28.848472528748985 0 0,0 -0.036298853404136425,0.49526901512614085 l -7.8222500109507385 -0.6410349449980621" fill="#ff5e08" stroke="none" /><path d="M 120.92983693683757 101.71520430193887 l 3.1076273742028855 0.25467068172300644 a24.11804506911372,24.11804506911372 0 0,0 -0.03746956939940607,0.4134735760335865 l -3.1027832085264038 -0.3081256463051635" fill="#ff1b02" stroke="none" /><path d="M 120.8583938346157 102.4346265915055 l 29.17182905880261 3.4049846461115347 a50.36987454988965,50.36987454988965 0 0,0 -0.10793182543669665,0.8603228438007912 l -29.10889572411907 -3.9066252441997205" fill="#95ff23" stroke="none" /><path d="M 120.70491114924044 103.5080841355445 l 3.5786860018666253 0.6063455910895825 a24.629689859449414,24.629689859449414 0 0,0 -0.07442102122211773,0.4173926093444877 l -3.5677185383053187 -0.6678569511672885" fill="#ff2303" stroke="none" /><path d="M 120.41448212921028 104.9243191809786 l 5.712450627165476 1.3779399357622781 a26.87629225229411,26.87629225229411 0 0,0 -0.1123540177833685,0.44879845109995253 l -5.687885295087046 -1.4760662262596265" fill="#ff4306" stroke="none" /><path d="M 120.32669344350535 105.2749913415812 l 3.8474093351367125 0.9984433024865343 a24.97485189917528,24.97485189917528 0 0,0 -0.11156851903527865,0.41518796383809375 l -3.829652739759657 -1.0645221995001763" fill="#ff2803" stroke="none" /><path d="M 119.9155931802556 106.66101706037122 l 6.947555490603166 2.323696072315005 a28.325850853757697,28.325850853757697 0 0,0 -0.15863713246363903,0.46107376333502986 l -6.906527527196296 -2.4429425387393353" fill="#ff5708" stroke="none" /><path d="M 119.79798401119884 107.00284435728193 l 4.842560672735736 1.7128864566554085 a26.136572191892206,26.136572191892206 0 0,0 -0.15367774124686337,0.4228551419477938 l -4.812358670483646 -1.7959893956093334" fill="#ff3805" stroke="none" /><line stroke="#e1ed5e" stroke-width="0.3" x1="174.80103733775053" x2="179.2010983576182" y1="140.37084112569926" y2="142.7455964860345" /><path d="M 175.68104954172406 140.8457921977663 a86.0,86.0 0 0,1 -30.038265399797805,32.042727171017184" fill="none" id="id53" stroke="none" /><text fill="#e1ed5e" style="font-size:6.75px; font-family:Arial;" text-anchor="middle"><textPath startOffset="22.206326154141568" xlink:href="#id53">May</textPath></text><path d="M 117.35343817320211 111.8261652097733 l 10.114440050364136 6.892872631123235 a33.23983621791149,33.23983621791149 0 0,0 -0.32628712781140207,0.47004094325624707 l -9.994292015390597 -7.065954836566502" fill="#ff9a0e" stroke="none" /><path d="M 116.93607887273984 112.41649034213515 l 4.883704936877298 3.58043178933099 a27.055581368335464,27.055581368335464 0 0,0 -0.27859355447222517,0.37322159332354893 l -4.821350115709981 -3.6639662621638536" fill="#ff4506" stroke="none" /><path d="M 116.498646956653 112.99209946851258 l 4.8423691715324635 3.8131940216127482 a27.163520734115462,27.163520734115462 0 0,0 -0.29243740397667095,0.36486062576733647 l -4.776013855500938 -3.895982480958335" fill="#ff4706" stroke="none" /><path d="M 116.27256486870786 113.27417163493432 l 5.212173031183868 4.251774687342479 a27.726390986177258,27.726390986177258 0 0,0 -0.30486355177256813,0.36722778731749656 l -5.1382134795177565 -4.340863731773746" fill="#ff4f07" stroke="none" /><path d="M 116.0416608686014 113.55231037782055 l 2.3450377747862547 1.9811340005212186 a24.069868742014172,24.069868742014172 0 0,0 -0.2701068982239886,0.31419534487438994 l -2.3105883669914853 -2.0212064445571367" fill="#ff1b02" stroke="none" /><path d="M 115.80600337817218 113.82643327865902 l 6.910192265605244 6.04474831601265 a30.18094436055291,30.18094436055291 0 0,0 -0.3454153755388059,0.38807783614109587 l -6.805118040418105 -6.162800321894613" fill="#ff710a" stroke="none" /><path d="M 115.56566222782051 114.09645910891815 l 0.9130746224938278 0.8268918399353785 a22.231850389127658,22.231850389127658 0 0,0 -0.2593224576056416,0.2814433109235259 l -0.8987057568924618 -0.8424864056602392" fill="#ff0000" stroke="none" /><path d="M 115.32070863581623 114.36230785411682 l 3.0426973620730418 2.8523586773813734 a25.170606342200024,25.170606342200024 0 0,0 -0.2990429228665711,0.3135453090677494 l -2.993147887827506 -2.9043111030316298" fill="#ff2b04" stroke="none" /><path d="M 115.07121518719521 114.62390073753431 l 3.99888759337329 3.88020040187162 a26.571988616564063,26.571988616564063 0 0,0 -0.32134312476638255,0.3255188888308892 l -3.9315038435513716 -3.9484597846831737" fill="#ff3e05" stroke="none" /><path d="M 114.29624159901734 115.38237550388516 l 13.454309378004234 14.476478839874261 a40.76327099546985,40.76327099546985 0 0,0 -0.5180826378045343,0.4732562060136615 l -13.203127190732836 -14.705927812474506" fill="#fff917" stroke="none" /><path d="M 112.92097659922987 116.55440617244103 l 2.703814536358767 3.46413784639941 a25.394412823789057,25.394412823789057 0 0,0 -0.346901309329595,0.2659891313632419 l -2.643784498535678 -3.5101663195900232" fill="#ff2e04" stroke="none" /><path d="M 112.04921762599082 117.19931262002967 l 9.802498309679777 13.992297103325916 a38.08430131257985,38.08430131257985 0 0,0 -0.5401498547571237,0.37151999545128656 l -9.56019157029977 -14.158957888142295" fill="#ffd814" stroke="none" /><line stroke="#e1ed5e" stroke-width="0.3" x1="143.8653032363475" x2="146.44561519142675" y1="172.8068346515853" y2="177.08958963109032" /><path d="M 144.38136562736335 173.6633856474863 a86.0,86.0 0 0,1 -40.68145358897372,12.25698825130547" fill="none" id="id54" stroke="none" /><text fill="#e1ed5e" style="font-size:6.75px; font-family:Arial;" text-anchor="middle"><textPath startOffset="21.466115282336833" xlink:href="#id54">June</textPath></text><path d="M 110.8373102113329 117.98757091392108 l 1.9216115736554398 3.1894560343942984 a24.723603205947263,24.723603205947263 0 0,0 -0.36641807912554686,0.2164862597882102 l -1.8664256235015109 -3.2220608664762582" fill="#ff2403" stroke="none" /><path d="M 110.21172684928248 118.3499491758327 l 1.4242921377948599 2.559379889985028 a23.928998722267394,23.928998722267394 0 0,0 -0.36164372996532834,0.19719699632937523 l -1.3800255959608816 -2.583517538074174" fill="#ff1902" stroke="none" /><path d="M 109.89434966115114 118.52300852407294 l 3.484686743246632 6.523610389707181 a28.39598095016843,28.39598095016843 0 0,0 -0.4331186204772987,0.22658719178354653 l -3.3718772202428378 -6.582627000435444" fill="#ff5808" stroke="none" /><path d="M 109.2508944713604 118.85261126421891 l 2.8473176472862365 5.802614321914747 a27.463555581368336,27.463555581368336 0 0,0 -0.4261916597923545,0.20459789632484357 l -2.7470133194936492 -5.85076649473915" fill="#ff4b07" stroke="none" /><path d="M 108.92500713936063 119.00905698771935 l 2.1415766637396 4.561268378717765 a26.03899988384249,26.03899988384249 0 0,0 -0.4073640390500336,0.1870008503834754 l -2.0627446289221467 -4.597456299435314" fill="#ff3705" stroke="none" /><path d="M 108.2653958097858 119.30500536409082 l 2.89946513480696 6.772112463649003 a28.366709257753513,28.366709257753513 0 0,0 -0.4505289113142089,0.18832112146831592 l -2.7824647639952897 -6.821018628137292" fill="#ff5808" stroke="none" /><path d="M 106.91757812671514 119.82793768551818 l 2.244456394755147 6.433312456739885 a27.81359623649669,27.81359623649669 0 0,0 -0.4534017060769548,0.15381847573944438 l -2.133384955740965 -6.470993919377452" fill="#ff5007" stroke="none" /><path d="M 106.57524785965236 119.94407469862006 l 1.7656323893078592 5.355524995299679 a26.63906957834824,26.63906957834824 0 0,0 -0.43672681154583726,0.1398261336788256 l -1.6731842326710815 -5.385123975638211" fill="#ff3f05" stroke="none" /><path d="M 105.53697534728816 120.25689768951611 l 2.5893672607947638 9.473140910441614 a30.820652805203856,30.820652805203856 0 0,0 -0.5129577482955895,0.1354768035252894 l -2.425919069687677 -9.516309063270489" fill="#ff790b" stroke="none" /><path d="M 104.13013068566511 120.58985236759428 l 0.6975502400925849 3.477482325761653 a24.546753397607155,24.546753397607155 0 0,0 -0.41499487682250424,0.07953475583916426 l -0.6375877486983763 -3.4889742799492853" fill="#ff2203" stroke="none" /><path d="M 103.41894727170886 120.7198165907248 l 1.567596656783924 9.500092465761234 a30.62855732373098,30.62855732373098 0 0,0 -0.5209248678784478,0.08135775100161496 l -1.403835925296959 -9.525668524109955" fill="#ff770a" stroke="none" /><path d="M 103.06178313531738 120.77559828337769 l 1.5197775331623862 10.312385336792161 a31.42377163433616,31.42377163433616 0 0,0 -0.5358073418728602,0.0742580152959601 l -1.3420416001026954 -10.337017917580724" fill="#ff810b" stroke="none" /><path d="M 102.70371172650421 120.8252237178851 l 0.7517725572446798 5.790495908315418 a26.839092809850158,26.839092809850158 0 0,0 -0.4586578285540046,0.05553707559729877 l -0.6519873056392949 -5.8025785126380685" fill="#ff4206" stroke="none" /><path d="M 101.98527174616119 120.90594882070398 l 0.4421835954540694 4.656424307550224 a25.677372517133232,25.677372517133232 0 0,0 -0.4403738865482241,0.037997311928057796 l -0.36196539116430354 -4.663345871756945" fill="#ff3204" stroke="none" /><path d="M 101.62511606390274 120.93702456842531 l 0.4647031560358408 5.986957861693697 a27.004965733534675,27.004965733534675 0 0,0 -0.4637617279715016,0.03198372400352376 l -0.36157866728540883 -5.994069930213507" fill="#ff4506" stroke="none" /><line stroke="#e1ed5e" stroke-width="0.3" x1="102.19456741930631" x2="102.32365962044197" y1="184.97166512339345" y2="189.96999836594603" /><path d="M 102.22038585953345 185.97133177190398 a86.0,86.0 0 0,1 -42.740103519485714,-10.115201625700543" fill="none" id="id55" stroke="none" /><text fill="#e1ed5e" style="font-size:6.75px; font-family:Arial;" text-anchor="middle"><textPath startOffset="22.20632615414155" xlink:href="#id55">July</textPath></text><path d="M 100.54218724476979 120.99299961872073 l 0.11350411916440496 4.394776810644609 a25.39624230456499,25.39624230456499 0 0,0 -0.4371059854344245,0.00752517594114868 l -0.03783844383731249 -4.396079463864917" fill="#ff2e04" stroke="none" /><path d="M 100.18074693466247 120.99922214144158 l 0.058319177344483164 6.775535985990165 a27.775786967127424,27.775786967127424 0 0,0 -0.47813222401387256,0.0 l 0.058319177344478494 -6.775535985990165" fill="#ff4f07" stroke="none" /><path d="M 99.09653310690486 120.98055641714683 l -0.22316440331824938 5.182385087822364 a26.187187826692995,26.187187826692995 0 0,0 -0.4501851076253908,-0.0232694278666955 l 0.3123375793571291 -5.177775853193466" fill="#ff3905" stroke="none" /><path d="M 96.93821686468263 120.77559828337769 l -0.9213979158814561 6.252106081154693 a27.319636426995004,27.319636426995004 0 0,0 -0.46464735004652225,-0.07256836012187852 l 1.0288811295364955 -6.235319413685708" fill="#ff4906" stroke="none" /><path d="M 96.58105272829116 120.7198165907248 l -0.8302136451977394 5.031336576014657 a26.09937274944825,26.09937274944825 0 0,0 -0.4426342118404927,-0.07695763144552147 l 0.9166968285102821 -5.016300366048129" fill="#ff3805" stroke="none" /><path d="M 96.22490169976321 120.6578951692458 l -0.7821851077996729 4.280232374043699 a25.351115112091996,25.351115112091996 0 0,0 -0.4285936605482653,-0.08214099510558227 l 0.8557463829196332 -4.266134180589648" fill="#ff2d04" stroke="none" /><path d="M 95.16358092515715 120.4354850818985 l -3.3712801565956503 14.24478406045684 a35.63828551515856,35.63828551515856 0 0,0 -0.5957477651180967,-0.14642030619491492 l 3.615981206456958 -14.184642495947895" fill="#ffb911" stroke="none" /><path d="M 93.76903079525671 120.05430185196036 l -1.7766838953819948 5.718236435253768 a26.987890579625972,26.987890579625972 0 0,0 -0.4424454603612624,-0.14165706444054726 l 1.8748507008341977 -5.686806524153514" fill="#ff4406" stroke="none" /><path d="M 93.08242187328487 119.8279376855182 l -1.7062930830618621 4.890768460355196 a26.179869903589267,26.179869903589267 0 0,0 -0.4242141730214263,-0.1521081096281395 l 1.7902268167130149 -4.860672809687099" fill="#ff3905" stroke="none" /><path d="M 92.7421414339146 119.70592522655815 l -1.738589711686562 4.720472098788424 a26.03046230688814,26.03046230688814 0 0,0 -0.4191273558731363,-0.15847810268899876 l 1.8195872883199813 -4.689845745992791" fill="#ff3705" stroke="none" /><path d="M 92.06813273071674 119.44442032107085 l -2.6880268042901503 6.5895105455597855 a28.116680218376118,28.116680218376118 0 0,0 -0.44655787223864574,-0.18666122681267036 l 2.8010561360262582 -6.542264275727143" fill="#ff5407" stroke="none" /><path d="M 90.10565033884886 118.52300852407294 l -2.647132170640765 4.955641698579506 a26.618335462887675,26.618335462887675 0 0,0 -0.4022882124737399,-0.2193596088784406 l 2.7320431949831456 -4.9093414379413" fill="#ff3f05" stroke="none" /><line stroke="#e1ed5e" stroke-width="0.3" x1="58.666819895761336" x2="56.23545636021788" y1="174.27360380694188" y2="178.64263932499728" /><path d="M 58.180547188652646 175.14741091055294 a86.0,86.0 0 0,1 -31.652253787137756,-30.449443065178592" fill="none" id="id56" stroke="none" /><text fill="#e1ed5e" style="font-size:6.75px; font-family:Arial;" text-anchor="middle"><textPath startOffset="22.20632615414155" xlink:href="#id56">August</textPath></text><path d="M 89.4739219176387 118.17145234162733 l -3.6784418528033385 6.350193329049348 a28.338657219189223,28.338657219189223 0 0,0 -0.41999526754881766,-0.2481406070829789 l 3.787204991380538 -6.285934149672619" fill="#ff5708" stroke="none" /><path d="M 89.1626897886671 117.98757091392108 l -2.2674764802141243 3.763516332756458 a25.393802996863748,25.393802996863748 0 0,0 -0.3724675959931099,-0.22880001895689123 l 2.331923276139543 -3.7239278469711885" fill="#ff2e04" stroke="none" /><path d="M 88.8546689885994 117.79835938074946 l -3.3465769153758322 5.344262864355598 a27.30561040771286,27.30561040771286 0 0,0 -0.39621506654509686,-0.25288320173612916 l 3.4380737839678526 -5.285865233795665" fill="#ff4906" stroke="none" /><path d="M 88.54995079064634 117.60387380957326 l -2.375063930259417 3.651541137814548 a25.355993727494482,25.355993727494482 0 0,0 -0.3638286880326149,-0.24112581545603645 l 2.4375673170319936 -3.6101173012671937" fill="#ff2d04" stroke="none" /><path d="M 87.95078237400918 117.19931262002967 l -2.4787041951016064 3.5381557265736494 a25.32001393890115,25.32001393890115 0 0,0 -0.35480896003352047,-0.25314677222174514 l 2.5392404829840114 -3.494964692507685" fill="#ff2d04" stroke="none" /><path d="M 87.36589467227662 116.77436683061367 l -2.914913660958363 3.8701459074580553 a25.84507492159368,25.84507492159368 0 0,0 -0.35305759547327037,-0.270709509060703 l 2.98109998492512 -3.8193970565699855" fill="#ff3405" stroke="none" /><path d="M 87.07902340077011 116.55440617244103 l -2.923691766209759 3.74584542036417 a25.75177140202114,25.75177140202114 0 0,0 -0.3470879021236904,-0.2757476210765287 l 2.9877371610508074 -3.6949638852825104" fill="#ff3304" stroke="none" /><path d="M 85.70375840098266 115.38237550388516 l -5.4783715919570435 5.89458204057581 a29.04727610640028,29.04727610640028 0 0,0 -0.36331802579558364,-0.34353987055749613 l 5.5790254521434415 -5.799407533272386" fill="#ff6108" stroke="none" /><path d="M 85.18274418774928 114.88116024355367 l -3.1845310217931133 3.1982653897822244 a25.51332907422465,25.51332907422465 0 0,0 -0.30854043354488486,-0.31254983021637045 l 3.239112080393532 -3.142975065585189" fill="#ff2f04" stroke="none" /><path d="M 84.67929136418377 114.36230785411682 l -11.57328359111069 10.849306371504849 a36.863427808107794,36.863427808107794 0 0,0 -0.42999185977076426,-0.46667123935746574 l 11.758321858877185 -10.648483877346042" fill="#ffc912" stroke="none" /><path d="M 84.4343377721795 114.09645910891817 l -4.69058186020715 4.247849813371003 a27.328174003949357,27.328174003949357 0 0,0 -0.3127659417676044,-0.3513958511848807 l 4.763006651623088 -4.166479792445256" fill="#ff4906" stroke="none" /><path d="M 83.72743513129214 113.27417163493432 l -3.578584439270662 2.9191921765407596 a25.61821930537809,25.61821930537809 0 0,0 -0.2758009766664928,-0.34410412473025004 l 3.6283033279920156 -2.85716021823225" fill="#ff3104" stroke="none" /><path d="M 83.28015986056508 112.70617746262583 l -6.275523690387862 4.769059812534527 a28.882013009641074,28.882013009641074 0 0,0 -0.2974004718333743,-0.3984165325113188 l 6.356685428916321 -4.660330400513902" fill="#ff5f08" stroke="none" /><path d="M 83.06392112726016 112.41649034213515 l -9.088707677088866 6.663280913075195 a32.26960157974213,32.26960157974213 0 0,0 -0.32457104502997897,-0.45080079376081567 l 9.202058514494452 -6.505846513863239" fill="#ff8d0d" stroke="none" /><path d="M 82.85270091963577 112.12312394758628 l -5.925070035929085 4.189018813228284 a28.256330584272273,28.256330584272273 0 0,0 -0.2773683025508923,-0.39956972693009873 l 5.996299245642112 -4.086407824111175" fill="#ff5608" stroke="none" /><path d="M 82.44556493220864 111.52570212397912 l -7.408995216496681 4.864518372340355 a29.863224532466024,29.863224532466024 0 0,0 -0.2784321013017213,-0.4321328043863015 l 7.491632181175448 -4.736263968032606" fill="#ff6c0a" stroke="none" /><line stroke="#e1ed5e" stroke-width="0.3" x1="26.63291911575756" x2="22.317208475507996" y1="142.92168965132927" y2="145.44649492493687" /><path d="M 25.769776987707644 143.4266507060508 a86.0,86.0 0 0,1 -11.730757126820373,-40.83630448921669" fill="none" id="id57" stroke="none" /><text fill="#e1ed5e" style="font-size:6.75px; font-family:Arial;" text-anchor="middle"><textPath startOffset="21.46611528233685" xlink:href="#id57">September</textPath></text><path d="M 81.69416730710424 110.29060199501025 l -10.469664737094375 5.885509533387351 a33.010541293994656,33.010541293994656 0 0,0 -0.27418176849750137,-0.49771955130118095 l 10.569422915043393 -5.704419463688347" fill="#ff970d" stroke="none" /><path d="M 81.51974371655577 109.97397251340807 l -4.18161682427104 2.256858921607495 a25.75177140202114,25.75177140202114 0 0,0 -0.20717605653036097,-0.39189902262002163 l 4.219845389026287 -2.184544883901347" fill="#ff3304" stroke="none" /><path d="M 81.02952815118164 109.00673069616217 l -7.096573886528 3.369285190729499 a28.855790451852712,28.855790451852712 0 0,0 -0.2091706551391881,-0.45053498247474905 l 7.153519158507015 -3.2466301409759226" fill="#ff5e08" stroke="none" /><path d="M 80.87730276802145 108.67885076344099 l -6.8941888179525375 3.128932867583922 a28.571001277732606,28.571001277732606 0 0,0 -0.199396902638367,-0.4495873762045739 l 6.947026805322184 -3.0097971548866522" fill="#ff5a08" stroke="none" /><path d="M 80.58989483394504 108.01547362559985 l -20.17667918817816 8.332033160122318 a42.82936461842258,42.82936461842258 0 0,0 -0.2755302472840963,-0.6838434776880037 l 20.317112049719643 -7.983490314591509" fill="#ecff1a" stroke="none" /><path d="M 80.0844068197444 106.66101706037122 l -13.306364499109097 4.450478584185769 a35.030897897549075,35.030897897549075 0 0,0 -0.18634394042927674,-0.5735076777115536 l 13.381000690554623 -4.220772006496412" fill="#ffb110" stroke="none" /><path d="M 79.76711848015287 105.62410040840567 l -19.141213095411185 5.320651153009641 a40.86694157277268,40.86694157277268 0 0,0 -0.18256220966524722,-0.6793818969733545 l 19.229963381418205 -4.990378322860748" fill="#fffb17" stroke="none" /><path d="M 79.67330655649465 105.27499134158121 l -12.510868496198627 3.2467023314210066 a33.92528168196074,33.92528168196074 0 0,0 -0.14182170909662764,-0.5665072298316789 l 12.564901519590315 -3.030867262191936" fill="#ffa30f" stroke="none" /><path d="M 79.50377843672027 104.57218783832718 l -8.01195372468662 1.787263924141077 a29.20888024160762,29.20888024160762 0 0,0 -0.10524371434590142,-0.49166359598745507 l 8.041531477756962 -1.6490865087374582" fill="#ff6309" stroke="none" /><path d="M 79.4281124754447 104.21870165774334 l -3.3902155216009797 0.6952355647489102 a24.460767801138346,24.460767801138346 0 0,0 -0.08103510739961213,-0.41319626680152355 l 3.4016805619762587 -0.6367755708794318" fill="#ff2003" stroke="none" /><path d="M 79.29508885075956 103.50808413554451 l -6.430451409604091 1.0895272339890965 a27.522098966198165,27.522098966198165 0 0,0 -0.07511992519225771,-0.4677718458797646 l 6.448253089157639 -0.9786761584161182" fill="#ff4c07" stroke="none" /><path d="M 79.23777060512086 103.15116336523772 l -11.250528531433524 1.7075359622295245 a32.37937042629806,32.37937042629806 0 0,0 -0.07889148644507663,-0.5517668724511746 l 11.2782540688952 -1.5136236177979494" fill="#ff8e0d" stroke="none" /><path d="M 79.18660465613746 102.79330883721812 l -13.14950136778585 1.7647585974711784 a34.26739458706005,34.26739458706005 0 0,0 -0.07342766849811565,-0.585290764057438 l 13.177930545530815 -1.5381500791263318" fill="#ffa70f" stroke="none" /><path d="M 79.1416061653843 102.43462659150553 l -6.081982009913351 0.7098991057412894 a27.12327215704495,27.12327215704495 0 0,0 -0.05013633337605167,-0.46420017979819217 l 6.093300644790455 -0.6051026040583152" fill="#ff4606" stroke="none" /><path d="M 79.04373962182676 101.35467743843564 l -19.22369929974777 1.2426793356587138 a40.263822743640375,40.263822743640375 0 0,0 -0.03875613261269381,-0.6920167826969663 l 19.242241783247998 -0.9115908366263098" fill="#fff316" stroke="none" /><path d="M 79.0095281055655 100.63252640178507 l -13.47288884547235 0.4059917254807621 a34.47900453014287,34.47900453014287 0 0,0 -0.012770263615180726,-0.5933839704100914 l 13.477881171772538 -0.17401793928054193" fill="#ffaa0f" stroke="none" /><line stroke="#e1ed5e" stroke-width="0.3" x1="15.007084014347285" x2="10.007500721073583" y1="101.09737516637583" y2="101.16192664675087" /><path d="M 14.007167355692545 101.11028546245083 a86.0,86.0 0 0,1 10.666146001902534,-42.60595125391555" fill="none" id="id58" stroke="none" /><text fill="#e1ed5e" style="font-size:6.75px; font-family:Arial;" text-anchor="middle"><textPath startOffset="22.20632615414155" xlink:href="#id58">October</textPath></text><path d="M 79.00486145842228 99.54816195383935 l -4.8122496372596375 -0.10356480713050288 a25.813363921477524,25.813363921477524 0 0,0 0.013383990166889306,-0.4441494752482115 l 4.809753952637103 0.1863844298037088" fill="#ff3404" stroke="none" /><path d="M 79.08570108090925 98.10471618934814 l -57.403179133371545 -5.201958550574129 a78.63840167266814,78.63840167266814 0 0,0 0.1337709399763401,-1.3470551099024946 l 57.30513106771298 6.189289191181054" fill="#46fffa" stroke="none" /><path d="M 79.3925641242962 95.95851677861259 l -5.708396178950473 -1.1195176108959952 a26.81713904053897,26.81713904053897 0 0,0 0.09273711993663937,-0.45221913172884115 l 5.688279763098839 1.217612398788239" fill="#ff4206" stroke="none" /><path d="M 79.54389044137918 95.25157060432595 l -5.962306064580012 -1.3840163156110008 a27.12083284934371,27.12083284934371 0 0,0 0.10947414548730354,-0.4538410091883972 l 5.937599118831894 1.4864425564587949" fill="#ff4606" stroke="none" /><path d="M 79.71946130924805 94.55025226153421 l -2.7809473718704463 -0.7472908822463538 a23.879602741317225,23.879602741317225 0 0,0 0.11008864090377643,-0.39604741493556295 l 2.767671960400309 0.7950496006008593" fill="#ff1802" stroke="none" /><path d="M 79.81627453868168 94.20196356495316 l -11.329754128449387 -3.2546185471441382 a32.787954466256245,32.787954466256245 0 0,0 0.16049563642385772,-0.5411114993665226 l 11.272052594913822 3.4491594332571998" fill="#ff940d" stroke="none" /><path d="M 79.91906864156998 93.8553929516997 l -4.178181937017978 -1.2784908090681755 a25.369409919851318,25.369409919851318 0 0,0 0.13137067661049343,-0.4164809451299434 l 4.1555557766392806 1.3502219206245334" fill="#ff2d04" stroke="none" /><path d="M 80.02781315780177 93.51064311812611 l -2.7885432203882297 -0.9060526161008734 a23.93204785689395,23.93204785689395 0 0,0 0.13067206537404358,-0.3906928432139734 l 2.772533861242414 0.953918562237169" fill="#ff1902" stroke="none" /><path d="M 80.14247586403 93.16781622104843 l -16.557355398887985 -5.696727054391813 a38.509960506446745,38.509960506446745 0 0,0 0.22105986177086007,-0.624965997467358 l 16.456842456307317 5.980890678285782" fill="#ffdd14" stroke="none" /><path d="M 80.2630227832202 92.82701384747504 l -12.09632083169177 -4.396151491144129 a33.87039725868277,33.87039725868277 0 0,0 0.20386013329164543,-0.5462438043400322 l 12.018856109898497 4.603718432513503" fill="#ffa20f" stroke="none" /><path d="M 80.52162464483688 92.15188598940014 l -6.765618760108787 -2.725963865744711 a28.29413985364154,28.29413985364154 0 0,0 0.18590369942911147,-0.4501805539167649 l 6.717693373793474 2.842018990114787" fill="#ff5708" stroke="none" /><path d="M 80.65960295795067 91.81776055985345 l -7.560143006825009 -3.1984296986819785 a29.20888024160762,29.20888024160762 0 0,0 0.1998851164672213,-0.4613624077051822 l 7.50396718051511 3.3280912509737597" fill="#ff6309" stroke="none" /><path d="M 80.95270993114464 91.15688171328213 l -3.7175292296659546 -1.725943721832698 a25.098646765013356,25.098646765013356 0 0,0 0.18530188221788338,-0.3902930218225873 l 3.68726915360632 1.7896791592958177" fill="#ff2a04" stroke="none" /><path d="M 81.10775173730289 90.83032412892265 l -17.432372765338616 -8.461100325342155 a40.37725055174817,40.37725055174817 0 0,0 0.30886671455283965,-0.6226564492361267 l 17.284146037832365 8.759916363077243" fill="#fff517" stroke="none" /><path d="M 81.43458229118936 90.18545643968196 l -3.989009339862061 -2.108775926437252 a25.512109420374028,25.512109420374028 0 0,0 0.20858202663477848,-0.3864708172344641 l 3.9521192140088104 2.177127727004189" fill="#ff2f04" stroke="none" /><line stroke="#e1ed5e" stroke-width="0.3" x1="26.266209847984243" x2="21.928928074336255" y1="57.711370442889674" y2="55.22380399835377" /><path d="M 25.398753493254645 57.213857153982495 a86.0,86.0 0 0,1 29.58750427330803,-30.492523968695096" fill="none" id="id59" stroke="none" /><text fill="#e1ed5e" style="font-size:6.75px; font-family:Arial;" text-anchor="middle"><textPath startOffset="21.46611528233685" xlink:href="#id59">November</textPath></text><path d="M 81.96595687620814 89.24020034530311 l -10.068082212071626 -6.007002798279353 a32.72392263909862,32.72392263909862 0 0,0 0.2927765753328838,-0.48124770943010736 l 9.963189838452523 6.179418280916535" fill="#ff930d" stroke="none" /><path d="M 82.34701348167596 88.62581576622439 l -25.86791011444853 -16.66722937102308 a51.77247647810431,51.77247647810431 0 0,0 0.48913492995756314,-0.7449860559440122 l 25.57717854913305 17.11003349094476" fill="#86ff25" stroke="none" /><path d="M 82.95767976084542 87.72973835380427 l -3.740441873839306 -2.693072294167364 a25.60907190149843,25.60907190149843 0 0,0 0.26064838686556163,-0.3555241067620775 l 3.693530874460111 2.757058844600945" fill="#ff3104" stroke="none" /><path d="M 83.17141714833178 87.43820079747577 l -3.0157156689988547 -2.2510995144260955 a24.76324195609246,24.76324195609246 0 0,0 0.2579198482785344,-0.3393922873097702 l 2.976519880496211 2.3026765776168903" fill="#ff2503" stroke="none" /><path d="M 84.07557802195018 86.31012108654704 l -4.793141880662281 -4.120559732197117 a27.320856080845626,27.320856080845626 0 0,0 0.3096469543457147,-0.3539799967055391 l 4.721503062738723 4.2024552851056" fill="#ff4906" stroke="none" /><path d="M 84.80347519578584 85.50635884689758 l -6.5175245334370695 -6.2160699904219285 a30.006533859914043,30.006533859914043 0 0,0 0.359700804521091,-0.3707032976523454 l 6.4095594652128645 6.327337483624397" fill="#ff6e0a" stroke="none" /><path d="M 85.05521093208273 85.24692304244772 l -7.817414492983907 -7.717132513543657 a31.984812405622023,31.984812405622023 0 0,0 0.3901601846040326,-0.38848471277884455 l 7.68341850821256 7.850553076972613" fill="#ff890c" stroke="none" /><path d="M 85.31137513191541 84.99185889309783 l -6.042059799524283 -6.173490497713711 a29.63819839702637,29.63819839702637 0 0,0 0.3676784434078409,-0.35370637124709675 l 5.9348981125040146 6.2765799557231166" fill="#ff6909" stroke="none" /><path d="M 85.83668400450813 84.49514656593479 l -21.1269326501461 -23.12805803077094 a52.32497967243582,52.32497967243582 0 0,0 0.6702306955309231,-0.6017397360485995 l 20.725690967019204 23.488296775588818" fill="#80ff26" stroke="none" /><path d="M 86.65592168130627 83.78471172551755 l -2.9562659279043575 -3.592357830352729 a25.652369613195493,25.652369613195493 0 0,0 0.34337113890650156,-0.2776489144669559 l 2.893991390433355 3.6427128420838217" fill="#ff3104" stroke="none" /><path d="M 86.93701828274178 83.55741782278169 l -3.9864930557168874 -5.0178620077937985 a27.40867115809037,27.40867115809037 0 0,0 0.3719323326855504,-0.2902990851539785 l 3.8995281678719116 5.085739482170996" fill="#ff4a06" stroke="none" /><path d="M 87.22198572758235 83.33499621200491 l -3.019360614899014 -3.93783063720862 a25.96216169125334,25.96216169125334 0 0,0 0.3569844783379041,-0.26887330801972537 l 2.95112998280272 3.9892205347341996" fill="#ff3605" stroke="none" /><path d="M 87.80319425747018 82.90503203632743 l -15.280717567370319 -21.417359822764713 a47.30976303868045,47.30976303868045 0 0,0 0.6669975061632948,-0.46727437806992966 l 14.909788921623363 21.677219043598583" fill="#b7ff1f" stroke="none" /><line stroke="#e1ed5e" stroke-width="0.3" x1="56.76296977257108" x2="54.21961505331056" y1="26.818313649435495" y2="22.513508569990535" /><path d="M 56.25429882871898 25.957352633546506 a86.0,86.0 0 0,1 42.26535254187918,-11.944610805530505" fill="none" id="id60" stroke="none" /><text fill="#e1ed5e" style="font-size:6.75px; font-family:Arial;" text-anchor="middle"><textPath startOffset="22.20632615414155" xlink:href="#id60">December</textPath></text><path d="M 89.3179101791058 81.91981866633112 l -2.8417535384252464 -4.809865872858071 a26.586624462771518,26.586624462771518 0 0,0 0.3960182383177296,-0.2293993248422033 l 2.7585385676421943 4.858069355090322" fill="#ff3f05" stroke="none" /><path d="M 90.58718382345135 81.22770947309562 l -4.984123886722845 -9.940003062712703 a32.11958415611569,32.11958415611569 0 0,0 0.4963679976350582,-0.2435656207369765 l 4.81228462207736 10.024323843584508" fill="#ff8b0c" stroke="none" /><path d="M 90.91171255644093 81.06846463323043 l -3.432520225662947 -7.150178562556771 a28.931408990591244,28.931408990591244 0 0,0 0.4508089237868503,-0.2116608344056441 l 3.308933090576488 7.208204379602423" fill="#ff5f08" stroke="none" /><path d="M 91.23893434514133 80.91482961587045 l -4.143926047924792 -9.027159229199158 a30.93286095946103,30.93286095946103 0 0,0 0.48581955578148844,-0.21797307337900998 l 3.9879243736765284 9.097152633094698" fill="#ff7b0b" stroke="none" /><path d="M 91.90106846888425 80.62456947434976 l -3.5320523212422006 -8.449884296498293 a30.158380764316412,30.158380764316412 0 0,0 0.48069030994820044,-0.19608564684276295 l 3.3860781417056196 8.509430829524634" fill="#ff700a" stroke="none" /><path d="M 92.23578459929587 80.48803036053334 l -4.2674324802278765 -10.724330623945447 a32.54219421535602,32.54219421535602 0 0,0 0.522250823734528,-0.20262520595564237 l 4.0821984914936715 10.79619853379164" fill="#ff900d" stroke="none" /><path d="M 92.91201910852362 80.23233633223022 l -2.731165595568594 -7.616945324882019 a29.09179347194796,29.09179347194796 0 0,0 0.4728358402880989,-0.16496314030142092 l 2.5996477512172094 7.66282931835565" fill="#ff6209" stroke="none" /><path d="M 93.25333710446033 80.11325718540243 l -2.940154782011958 -8.666521936887728 a30.151672668137994,30.151672668137994 0 0,0 0.49293272214742,-0.16251216841243754 l 2.790539237622129 8.715847829559399" fill="#ff700a" stroke="none" /><path d="M 93.59665428221793 80.00007090966166 l -3.0434301127581396 -9.505716094249266 a30.98103728656058,30.98103728656058 0 0,0 0.5092908209483346,-0.15823913716933066 l 2.879353919099076 9.556695366301122" fill="#ff7b0b" stroke="none" /><path d="M 94.28887869178378 79.79150937346287 l -3.6143125412346446 -12.789047398772313 a34.28995818329655,34.28995818329655 0 0,0 0.5693800379497999,-0.15563307282722164 l 3.3936346140611224 12.84936701242583" fill="#ffa70f" stroke="none" /><path d="M 95.33964822691252 79.52364482259891 l -1.6432219546064648 -7.219883394238704 a28.40451852712278,28.40451852712278 0 0,0 0.47767916117950115,-0.10440216301808138 l 1.5187000692734427 7.247099055352654" fill="#ff5808" stroke="none" /><path d="M 96.04723909329186 79.375362276772 l -1.9534233102090588 -10.192533533914924 a31.378034614937857,31.378034614937857 0 0,0 0.5313420094892476,-0.09709935598150829 l 1.7776861796169179 10.224648371247168" fill="#ff810b" stroke="none" /><path d="M 97.11714578562143 79.19881850522333 l -4.308626375055808 -31.08881426390032 a52.3859623649669,52.3859623649669 0 0,0 0.894266473370586,-0.11610145386314222 l 3.7728451731773647 31.1583740409276" fill="#7fff26" stroke="none" /><path d="M 97.83486435360386 79.11191278185805 l -0.7489573649631454 -7.225545793428588 a28.264258334301314,28.264258334301314 0 0,0 0.48436173218787687,-0.04599598277414369 l 0.6244705056850322 7.2373673207179126" fill="#ff5608" stroke="none" /><path d="M 98.19473922651362 79.07773832637324 l -0.8391453479264868 -9.725364229577874 a30.76149959344872,30.76149959344872 0 0,0 0.5279402973050231,-0.040978327896021655 l 0.6716148612591295 9.738367819662358" fill="#ff780b" stroke="none" /><path d="M 98.55514903715128 79.0497635885617 l -0.5388611022147185 -7.813447735860788 a28.832007201765595,28.832007201765595 0 0,0 0.49541344792982533,-0.029884692094566533 l 0.4042856054452702 7.821565697335662" fill="#ff5e08" stroke="none" /><path d="M 99.27714615592234 79.0124445844662 l -0.41226767039392714 -11.969903251280163 a32.97700081310256,32.97700081310256 0 0,0 0.5674766545243849,-0.0146562477671553 l 0.20616438067466317 11.975226291189678" fill="#ff960d" stroke="none" /><path d="M 99.63851952072746 79.00311137660856 l -0.17729716851298688 -10.29845071579398 a31.299976768498084,31.299976768498084 0 0,0 0.5387776477855201,-0.004637429312663855 l 2.5227667161666554e-15 10.299976768498084" fill="#ff800b" stroke="none" /></svg>