<?xml version="1.0" encoding="utf-8" ?>
<svg baseProfile="full" height="200mm" version="1.1" viewBox="0,0,200,200" width="200mm" xmlns="http://www.w3.org/2000/svg" xmlns:ev="http://www.w3.org/2001/xml-events" xmlns:xlink="http://www.w3.org/1999/xlink"><defs /><rect fill="#1a1a1a" height="200" width="200" x="0" y="0" /><text alignment-baseline="middle" fill="#e1ed5e" style="dominant-baseline: central; font-size:9.0px; font-family:Arial;" text-anchor="middle" x="100.0" y="100.0">2015</text><line stroke="#e1ed5e" stroke-width="0.3" x1="100.0" x2="100.0" y1="15.0" y2="10.0" /><path d="M 100.0 14.0 a86.0,86.0 0 0,1 42.46469731375804,11.215312516191453" fill="none" id="id25" stroke="none" /><text fill="#e1ed5e" style="font-size:6.75px; font-family:Arial;" text-anchor="middle"><textPath startOffset="22.20632615414155" xlink:href="#id25">January</textPath></text><path d="M 100.36148047927253 79.00311137660856 l 0.15728850490831378 -9.136231162318838 a30.137584994138336,30.137584994138336 0 0,0 0.5186152617348777,0.013394302146552193 l -0.31453040183805925 9.132170068029925" fill="#ff6909" stroke="none" /><path d="M 100.72285384407766 79.0124445844662 l 2.1616465411806094 -62.761894321407084 a83.79910902696366,83.79910902696366 0 0,0 1.4411817363187547,0.062060317172197996 l -3.241669109888696 62.71538627771069" fill="#4dd4ff" stroke="none" /><path d="M 105.01212808612495 79.60689891045804 l 1.8050712169491034 -7.344385292740082 a28.56295427901524,28.56295427901524 0 0,0 0.47644519032547944,0.12145648750865125 l -1.931225295959608 7.312225809062563" fill="#ff5307" stroke="none" /><path d="M 105.71112130821622 79.79150937346287 l 2.8120409723925097 -9.950253297943249 a31.33997655334115,31.33997655334115 0 0,0 0.5178704019203719,0.1511805712620052 l -2.9829015920363084 9.90037439776254" fill="#ff790b" stroke="none" /><path d="M 107.08798089147638 80.2323363322302 l 4.003005761617621 -11.163979244210337 a32.8599531066823,32.8599531066823 0 0,0 0.5307941365748081,0.19549596005649023 l -4.194582223965006 11.093420016347523" fill="#ff8e0d" stroke="none" /><path d="M 107.76421540070413 80.48803036053334 l 4.920673910457979 -12.365968097415799 a34.30902696365768,34.30902696365768 0 0,0 0.5468468925458654,0.22307257797721441 l -5.132804672592232 12.279434633255006" fill="#ffa10e" stroke="none" /><line stroke="#e1ed5e" stroke-width="0.3" x1="143.23703022742887" x2="145.7803849466894" y1="26.81831364943548" y2="22.513508569990506" /><path d="M 143.74570117128098 25.957352633546492 a86.0,86.0 0 0,1 28.547481713284135,27.462654790039103" fill="none" id="id26" stroke="none" /><text fill="#e1ed5e" style="font-size:6.75px; font-family:Arial;" text-anchor="middle"><textPath startOffset="19.985693538727396" xlink:href="#id26">February</textPath></text><path d="M 110.99172775467656 82.1063720568725 l 5.458494580165286 -8.885979832015016 a31.42860492379836,31.42860492379836 0 0,0 0.458529648395743,0.2871312237598235 l -5.610643380933293 8.790704266932249" fill="#ff7a0b" stroke="none" /><path d="M 111.60114157652 82.49532879139004 l 6.356827166313545 -9.591656884999178 a32.50691676436108,32.50691676436108 0 0,0 0.4637580791390412,0.31313152520613835 l -6.5209899398591284 9.48081344749437" fill="#ff890c" stroke="none" /><path d="M 111.90073688211348 82.69761687909136 l 7.567361881428309 -11.002124976296422 a34.35334114888629,34.35334114888629 0 0,0 0.4843311697830873,0.3393049359990672 l -7.755624190795047 10.870235197533418" fill="#ffa20e" stroke="none" /><path d="M 112.77801427241765 83.33499621200491 l 4.574918591789391 -5.966579316358386 a28.518640093786637,28.518640093786637 0 0,0 0.38699447608829535,0.3020553269915762 l -4.676945623037116 5.886945600143583" fill="#ff5207" stroke="none" /><path d="M 113.34407831869373 83.78471172551755 l 10.353002381373397 -12.580630457271376 a37.29284876905041,37.29284876905041 0 0,0 0.49216342674598945,0.4121727160373299 l -10.568023345078503 12.400556583840226" fill="#ffc812" stroke="none" /><path d="M 115.19652480421416 85.50635884689758 l 5.376683688056076 -5.127996365775273 a28.430011723329425,28.430011723329425 0 0,0 0.3347060921318985,0.35704112237892416 l -5.464157102158437 5.034685826518294" fill="#ff5107" stroke="none" /><path d="M 117.04232023915458 87.72973835380427 l 1.5463957637872958 -1.1133859922808313 a22.90550996483001,22.90550996483001 0 0,0 0.22762337460078233,0.32195712085732664 l -1.565331758191961 1.0866023710917116" fill="#ff0100" stroke="none" /><line stroke="#e1ed5e" stroke-width="0.3" x1="172.23445277983987" x2="176.4835382374775" y1="55.19839476539836" y2="52.563006222186495" /><path d="M 173.08426987136738 54.67131705675599 a86.0,86.0 0 0,1 12.851231095245387,41.99856678651699" fill="none" id="id27" stroke="none" /><text fill="#e1ed5e" style="font-size:6.75px; font-family:Arial;" text-anchor="middle"><textPath startOffset="22.20632615414155" xlink:href="#id27">March</textPath></text><path d="M 118.03404312379186 89.2402003453031 l 12.685141704894628 -7.568440554300281 a35.77139507620164,35.77139507620164 0 0,0 0.3109391477076411,0.531495795837972 l -12.813540527072593 7.348965346108414" fill="#ffb410" stroke="none" /><path d="M 119.34039704204932 91.81776055985345 l 13.631238806189986 -5.766896074344789 a35.80093786635405,35.80093786635405 0 0,0 0.2352263340329329,0.5696192258461977 l -13.728486827109116 5.531402278045288" fill="#ffb510" stroke="none" /><path d="M 120.18372546131832 94.20196356495316 l 9.540537052759138 -2.7406427791452384 a30.926377491207504,30.926377491207504 0 0,0 0.14257535617178743,0.5129194145898155 l -9.586299179497288 2.576012061136471" fill="#ff730a" stroke="none" /><path d="M 120.37134235888165 94.90015583598534 l 17.238024518922362 -4.315436714637483 a38.769988276670574,38.769988276670574 0 0,0 0.1564963495302011,0.6487784023244634 l -17.309753668713384 4.018073080653613" fill="#ffdb14" stroke="none" /><path d="M 120.53481517161879 95.60439243477599 l 11.584235709944856 -2.479679203265882 a32.846658851113716,32.846658851113716 0 0,0 0.11358797583846557,0.5538953101369003 l -11.625202981698319 2.2799082369655697" fill="#ff8e0d" stroke="none" /><path d="M 120.6074358757038 95.95851677861258 l 29.09199798537223 -5.705456149114587 a50.646189917936695,50.646189917936695 0 0,0 0.16041403138644486,0.8569381700398779 l -29.185897740668533 5.203839901612146" fill="#96ff23" stroke="none" /><path d="M 120.73433829027371 96.67025291283417 l 11.915559941256944 -1.9135310927651694 a33.06822977725674,33.06822977725674 0 0,0 0.085416979991011,0.5627911749530533 l -11.946732814687255 1.7081408054200333" fill="#ff910d" stroke="none" /><path d="M 120.96714384426684 98.82574320788733 l 10.44178511728553 -0.5847881421916313 a31.458147713950762,31.458147713950762 0 0,0 0.02562549519254186,0.5409137021771757 l -10.450304220711569 0.4049633333914559" fill="#ff7b0b" stroke="none" /><path d="M 120.98425023603335 99.18683210126433 l 13.358086609807865 -0.5176438089255191 a34.36811254396248,34.36811254396248 0 0,0 0.01781954811244958,0.5913440494662383 l -13.365017852375958 0.2876296120342817" fill="#ffa20f" stroke="none" /><line stroke="#e1ed5e" stroke-width="0.3" x1="184.98032266829074" x2="189.97916517819016" y1="98.17113171792111" y2="98.06355123074" /><path d="M 185.9800911702706 98.14961562048488 a86.0,86.0 0 0,1 -9.607161424134198,41.387399972396054" fill="none" id="id28" stroke="none" /><text fill="#e1ed5e" style="font-size:6.75px; font-family:Arial;" text-anchor="middle"><textPath startOffset="21.466115282336823" xlink:href="#id28">April</textPath></text><path d="M 120.99980553446 99.90962569577887 l 14.771258289186397 -0.06356926439938809 a35.77139507620164,35.77139507620164 0 0,0 -0.00264998363230026,0.6157628700703941 l -14.770164008264594 -0.19070308387469068" fill="#ffb410" stroke="none" /><path d="M 120.95626037817324 101.35467743843564 l 12.234721768265262 0.7908902278322965 a33.26025791324736,33.26025791324736 0 0,0 -0.04185002256093762,0.5710103078462642 l -12.219295187039986 -1.001373672175331" fill="#ff930d" stroke="none" /><path d="M 120.81339534386255 102.79330883721812 l 1.8300171756033878 0.24560159764520323 a22.846424384525204,22.846424384525204 0 0,0 -0.055664713548175794,0.38931887690759687 l -1.8255184110386107 -0.27706594653320943" fill="#ff0000" stroke="none" /><path d="M 120.76222939487914 103.15116336523771 l 14.647959730173822 2.2231771549824737 a35.81570926143024,35.81570926143024 0 0,0 -0.09775683910339694,0.6087319304130426 l -14.607521136709137 -2.4749883150887215" fill="#ffb510" stroke="none" /><path d="M 120.70491114924044 103.5080841355445 l 14.63664879600467 2.4799234862055486 a35.84525205158265,35.84525205158265 0 0,0 -0.10830994132959113,0.6074596704952334 l -14.59179241233589 -2.731501907434" fill="#ffb510" stroke="none" /><path d="M 120.41448212921028 104.9243191809786 l 12.923587748855281 3.1173884615808265 a34.29425556858148,34.29425556858148 0 0,0 -0.14336417255214562,0.5726686045948739 l -12.868012262008074 -3.3393849055730964" fill="#ffa10e" stroke="none" /><path d="M 120.13307415673323 105.97154293290107 l 60.32416599210071 17.892366774639186 a83.92171160609612,83.92171160609612 0 0,0 -0.422698585399349,1.3814034342615433 l -60.00724063419523 -18.928097181452788" fill="#4dd3ff" stroke="none" /><path d="M 119.12269723197855 108.67885076344098 l 9.468089037460512 4.2970994506819045 a31.397584994138334,31.397584994138334 0 0,0 -0.22759568600174618,0.49022085978501306 l -9.392718734618935 -4.459440377745748" fill="#ff7a0b" stroke="none" /><path d="M 118.97047184881838 109.00673069616215 l 2.6807745330088704 1.2727682510145202 a23.96757327080891,23.96757327080891 0 0,0 -0.18015254226882887,0.37116759649421543 l -2.6584687341253272 -1.318724803474011" fill="#ff1101" stroke="none" /><line stroke="#e1ed5e" stroke-width="0.3" x1="174.80103733775053" x2="179.2010983576182" y1="140.37084112569926" y2="142.7455964860345" /><path d="M 175.68104954172406 140.8457921977663 a86.0,86.0 0 0,1 -30.038265399797805,32.042727171017184" fill="none" id="id29" stroke="none" /><text fill="#e1ed5e" style="font-size:6.75px; font-family:Arial;" text-anchor="middle"><textPath startOffset="22.206326154141568" xlink:href="#id29">May</textPath></text><path d="M 116.498646956653 112.99209946851258 l 11.605144400928255 9.138639719938505 a35.77139507620164,35.77139507620164 0 0,0 -0.38510817559706595,0.4804816621463099 l -11.446118313276335 -9.337049215663065" fill="#ffb410" stroke="none" /><path d="M 115.80600337817218 113.82643327865902 l 11.11793907022662 9.725509926372116 a35.77139507620164,35.77139507620164 0 0,0 -0.4093970591570589,0.4599619359513728 l -10.948883161421229 -9.915446032064356" fill="#ffb410" stroke="none" /><path d="M 115.07121518719521 114.62390073753431 l 10.611690318205673 10.296734798315487 a35.786166471277845,35.786166471277845 0 0,0 -0.43277297470020337,0.43839673851079236 l -10.432876718449934 -10.477872030806944" fill="#ffb510" stroke="none" /><path d="M 112.92097659922987 116.55440617244103 l 11.369853499861604 14.567101140720094 a39.47901524032825,39.47901524032825 0 0,0 -0.5393045380865573,0.413515722679516 l -11.117420233281551 -14.760656205226981" fill="#ffe415" stroke="none" /><path d="M 112.04921762599082 117.19931262002967 l 5.788709710587384 8.262928853092802 a31.08886283704572,31.08886283704572 0 0,0 -0.44093351242464596,0.3032780904920974 l -5.645619313539855 -8.361347732949994" fill="#ff760a" stroke="none" /><path d="M 111.7513745106137 117.40417183066458 l 4.513189085201699 6.684181350205996 a29.065181711606094,29.065181711606094 0 0,0 -0.4170511731155901,0.27639877643562655 l -4.397463213346144 -6.760878147732941" fill="#ff5a08" stroke="none" /><path d="M 111.45004920935366 117.60387380957326 l 4.80821527173562 7.392388743949756 a29.81852286049238,29.81852286049238 0 0,0 -0.4326784072224593,0.27615583095967494 l -4.680255062466231 -7.47405900373324" fill="#ff6409" stroke="none" /><line stroke="#e1ed5e" stroke-width="0.3" x1="143.8653032363475" x2="146.44561519142675" y1="172.8068346515853" y2="177.08958963109032" /><path d="M 144.38136562736335 173.6633856474863 a86.0,86.0 0 0,1 -40.68145358897372,12.25698825130547" fill="none" id="id30" stroke="none" /><text fill="#e1ed5e" style="font-size:6.75px; font-family:Arial;" text-anchor="middle"><textPath startOffset="21.466115282336833" xlink:href="#id30">June</textPath></text><path d="M 109.89434966115114 118.52300852407294 l 8.337700511647643 15.608837663661925 a38.69613130128957,38.69613130128957 0 0,0 -0.5902248996586802,0.30877777174993454 l -8.067784709462467 -15.750044854356576" fill="#ffda14" stroke="none" /><path d="M 109.57404056367764 118.69057910512821 l 4.774673922378038 9.321186812803683 a31.472919109026964,31.472919109026964 0 0,0 -0.48430242018564945,0.24283928743440586 l -4.613517594509628 -9.40199394114739" fill="#ff7b0b" stroke="none" /><path d="M 108.92500713936063 119.00905698771935 l 9.97550035951515 21.24646533656697 a44.47174677608441,44.47174677608441 0 0,0 -0.6957329571462292,0.3193768770791654 l -9.608299406601502 -21.41502928398021" fill="#ddff1b" stroke="none" /><path d="M 107.2578585660854 119.70592522655815 l 4.098945821366919 11.129111862417492 a32.8599531066823,32.8599531066823 0 0,0 -0.5324571086108649,0.19092017523132898 l -3.9067691521263197 -11.19801957868878" fill="#ff8e0d" stroke="none" /><path d="M 106.91757812671514 119.82793768551818 l 20.752734380145416 59.48381305655456 a84.0,84.0 0 0,0 -1.3693210682510921,0.46454805240750785 l -19.725743578957097 -59.83222409586019" fill="#4dd2ff" stroke="none" /><path d="M 103.06178313531738 120.77559828337769 l 0.6482509193884152 4.3986788393646075 a25.446189917936692,25.446189917936692 0 0,0 -0.43388347965919344,0.06013229672549352 l -0.5724388485423912 -4.409185701582703" fill="#ff2603" stroke="none" /><path d="M 102.70371172650421 120.8252237178851 l 1.3008244930332087 10.01954491655339 a31.103634232121923,31.103634232121923 0 0,0 -0.5315353033023285,0.06436152287033017 l -1.1281617666794999 -10.040451968149071" fill="#ff760a" stroke="none" /><path d="M 101.62511606390274 120.93702456842531 l 0.5726962354151952 7.378276184371221 a28.400468933177024,28.400468933177024 0 0,0 -0.487726986125939,0.03363650851818691 l -0.4456064885103258 -7.387041037405693" fill="#ff5007" stroke="none" /><path d="M 101.26447882468166 120.96189622390904 l 0.26683023264091366 4.423377866709996 a25.431418522860493,25.431418522860493 0 0,0 -0.43719264399633717,0.02259786590228071 l -0.1906495202310969 -4.4273155393744785" fill="#ff2603" stroke="none" /><path d="M 100.90346689309514 120.98055641714683 l 0.6996837392481253 16.248248029504328 a37.263305978898,37.263305978898 0 0,0 -0.641070194261719,0.022079753695503454 l -0.4198931933117542 -16.257884581625927" fill="#ffc812" stroke="none" /><line stroke="#e1ed5e" stroke-width="0.3" x1="102.19456741930631" x2="102.32365962044197" y1="184.97166512339345" y2="189.96999836594603" /><path d="M 102.22038585953345 185.97133177190398 a86.0,86.0 0 0,1 -42.740103519485714,-10.115201625700543" fill="none" id="id31" stroke="none" /><text fill="#e1ed5e" style="font-size:6.75px; font-family:Arial;" text-anchor="middle"><textPath startOffset="22.20632615414155" xlink:href="#id31">July</textPath></text><path d="M 100.18074693466247 120.99922214144158 l 0.12713735146245908 14.770847930674028 a35.77139507620164,35.77139507620164 0 0,0 -0.6157685722498188,0.0 l 0.12713735146244892 -14.770847930674028" fill="#ffb410" stroke="none" /><path d="M 93.08242187328487 119.8279376855182 l -4.7782380214074465 13.695921318062506 a35.50550996483001,35.50550996483001 0 0,0 -0.575325263376094,-0.2062911703542472 l 5.013282845413268 -13.611642606668301" fill="#ffb110" stroke="none" /><path d="M 92.06813273071674 119.44442032107085 l -3.3475641464735912 8.206320416864603 a29.862837045720987,29.862837045720987 0 0,0 -0.47429087881544935,-0.19825362581098774 l 3.488326484786503 -8.147481748033643" fill="#ff6509" stroke="none" /><path d="M 91.7346041902142 119.30500536409082 l -4.604590959918182 10.754675907404405 a32.6989449003517,32.6989449003517 0 0,0 -0.5155211722386698,-0.225989332138697 l 4.789032806814595 -10.673822021971255" fill="#ff8c0c" stroke="none" /><path d="M 91.40352486487194 119.15986991738527 l -3.64014867386665 8.113182900538758 a29.89237983587339,29.89237983587339 0 0,0 -0.46764778375052674,-0.21467416084450985 l 3.7792644533845965 -8.049321669360173" fill="#ff6509" stroke="none" /><path d="M 91.07499286063937 119.00905698771935 l -5.750508703156628 12.24780506500651 a34.5305978898007,34.5305978898007 0 0,0 -0.5358611627935058,-0.25724592237012167 l 5.960482533950375 -12.147004866136825" fill="#ffa40f" stroke="none" /><line stroke="#e1ed5e" stroke-width="0.3" x1="58.666819895761336" x2="56.23545636021788" y1="174.27360380694188" y2="178.64263932499728" /><path d="M 58.180547188652646 175.14741091055294 a86.0,86.0 0 0,1 -31.652253787137756,-30.449443065178592" fill="none" id="id32" stroke="none" /><text fill="#e1ed5e" style="font-size:6.75px; font-family:Arial;" text-anchor="middle"><textPath startOffset="22.20632615414155" xlink:href="#id32">August</textPath></text><path d="M 84.19399662182784 113.82643327865904 l -4.547237079722685 3.9777335598861976 a27.04150058616647,27.04150058616647 0 0,0 -0.30345391264648774,-0.35298545636691103 l 4.615033501939954 -3.8988710043577566" fill="#ff3d05" stroke="none" /><path d="M 83.50135304334701 112.99209946851258 l -2.5299214794023586 1.9922234589465961 a24.22016412661196,24.22016412661196 0 0,0 -0.2551111995555267,-0.32976561476129196 l 2.563839496175954 -1.9483798500720515" fill="#ff1402" stroke="none" /><path d="M 83.28015986056508 112.70617746262583 l -9.408585307067716 7.150017798429544 a32.81711606096131,32.81711606096131 0 0,0 -0.33792055274965016,-0.4526998025956571 l 9.53026712651245 -6.987005116324581" fill="#ff8d0d" stroke="none" /><path d="M 82.6465618267979 111.8261652097733 l -7.397081031390718 5.041024232442638 a29.951465416178195,29.951465416178195 0 0,0 -0.28667388271665345,-0.4285385582382128 l 7.482758019518102 -4.912948759998601" fill="#ff6609" stroke="none" /><path d="M 82.44556493220864 111.52570212397912 l -6.408500680082334 4.2076244330681085 a28.66635404454865,28.66635404454865 0 0,0 -0.2672729860302087,-0.414813609673465 l 6.479978529489588 -4.096689223473195" fill="#ff5407" stroke="none" /><line stroke="#e1ed5e" stroke-width="0.3" x1="26.63291911575756" x2="22.317208475507996" y1="142.92168965132927" y2="145.44649492493687" /><path d="M 25.769776987707644 143.4266507060508 a86.0,86.0 0 0,1 -11.730757126820373,-40.83630448921669" fill="none" id="id33" stroke="none" /><text fill="#e1ed5e" style="font-size:6.75px; font-family:Arial;" text-anchor="middle"><textPath startOffset="21.46611528233685" xlink:href="#id33">September</textPath></text><path d="M 81.69416730710424 110.29060199501025 l -11.730326084333905 6.594188804774445 a34.4567409144197,34.4567409144197 0 0,0 -0.28619373661390085,-0.5195247625444404 l 11.842096230399322 -6.391293523832183" fill="#ffa30f" stroke="none" /><path d="M 81.51974371655577 109.97397251340807 l -10.425204365291169 5.626583321749077 a32.846658851113716,32.846658851113716 0 0,0 -0.2642552679089765,-0.4998713796859208 l 10.520512141425032 -5.4462969269770305" fill="#ff8e0d" stroke="none" /><path d="M 80.73074385275274 108.34839909993369 l -8.308596026913882 3.599696587286765 a30.054865181711605,30.054865181711605 0 0,0 -0.20158087005912323,-0.4764776307933802 l 8.369327878165313 -3.456144430827226" fill="#ff6709" stroke="none" /><path d="M 80.45479744820244 107.68017299344265 l -13.789335164914153 5.418438578492131 a35.81570926143024,35.81570926143024 0 0,0 -0.2205321946627936,-0.5757399706578217 l 13.880561639170455 -5.180275041001151" fill="#ffb510" stroke="none" /><path d="M 80.32549172779594 107.34259656027581 l -13.852883550159154 5.169945479603344 a35.786166471277845,35.786166471277845 0 0,0 -0.21041539765862347,-0.5789728045391654 l 13.939823208823002 -4.9307248780580615" fill="#ffb510" stroke="none" /><path d="M 80.0844068197444 106.66101706037122 l -14.036640820597505 4.694728554156133 a35.80093786635405,35.80093786635405 0 0,0 -0.190440103836073,-0.5861143723942301 l 14.115373175449827 -4.452415281784099" fill="#ffb510" stroke="none" /><path d="M 79.97269907076064 106.31721596034903 l -14.298506759562446 4.510181148713433 a35.992966002344666,35.992966002344666 0 0,0 -0.18129010386405323,-0.592466548802938 l 14.37402363593263 -4.263387627358447" fill="#ffb711" stroke="none" /><path d="M 79.4281124754447 104.21870165774334 l -61.53333728681284 12.61871530789293 a83.81388042203986,83.81388042203986 0 0,0 -0.27766367993003765,-1.4158011219469775 l 61.741430899718544 -11.557650458877998" fill="#4dd4ff" stroke="none" /><path d="M 79.29508885075956 103.50808413554451 l -14.592957307061374 2.472520729530316 a35.80093786635405,35.80093786635405 0 0,0 -0.09771652146284993,-0.6084808724268801 l 14.633355582885516 -2.2209606274102223" fill="#ffb510" stroke="none" /><path d="M 79.18660465613746 102.79330883721812 l -11.829231023100306 1.5875687271786003 a32.935287221570924,32.935287221570924 0 0,0 -0.0705732484520124,-0.5625382278010607 l 11.854805780799166 -1.3837127450901312" fill="#ff8f0d" stroke="none" /><line stroke="#e1ed5e" stroke-width="0.3" x1="15.007084014347285" x2="10.007500721073583" y1="101.09737516637583" y2="101.16192664675087" /><path d="M 14.007167355692545 101.11028546245083 a86.0,86.0 0 0,1 10.666146001902534,-42.60595125391555" fill="none" id="id34" stroke="none" /><text fill="#e1ed5e" style="font-size:6.75px; font-family:Arial;" text-anchor="middle"><textPath startOffset="22.20632615414155" xlink:href="#id34">October</textPath></text><path d="M 79.32604984820605 96.31383870115002 l -7.271025844710647 -1.2964224966647069 a28.38569753810082,28.38569753810082 0 0,0 0.08990733919335235,-0.480288601038281 l 7.247632781607433 1.4213891751655605" fill="#ff5007" stroke="none" /><path d="M 79.46518482838121 95.60439243477599 l -10.139817292245997 -2.1704922701903304 a31.36951934349355,31.36951934349355 0 0,0 0.1175693928276714,-0.5270405350052074 l 10.100953512416288 2.344710974745497" fill="#ff790b" stroke="none" /><path d="M 79.81627453868168 94.20196356495316 l -20.117471731785265 -5.779004193525004 a41.931066822977726,41.931066822977726 0 0,0 0.20525078081986017,-0.6920035972957731 l 20.0150150538537 6.124437177567316" fill="#fcff18" stroke="none" /><path d="M 79.91906864156998 93.8553929516997 l -14.124922409212209 -4.322115157069383 a35.77139507620164,35.77139507620164 0 0,0 0.18523538345228582,-0.5872467856769282 l 14.04843154199172 4.564612109172726" fill="#ffb410" stroke="none" /><path d="M 80.14247586403 93.16781622104843 l -13.99571337695799 -4.815367981132104 a35.80093786635405,35.80093786635405 0 0,0 0.20550917923373385,-0.5810021238574704 l 13.910751116914447 5.055567731416185" fill="#ffb510" stroke="none" /><path d="M 80.38941819471856 92.48833698450439 l -22.084319908737807 -8.459206908188852 a44.64900351699883,44.64900351699883 0 0,0 0.2810898217286812,-0.7153429363669913 l 21.935436537127437 8.838098849451606" fill="#dbff1b" stroke="none" /><path d="M 80.65960295795067 91.81776055985345 l -14.0801718207651 -5.956823789368114 a36.288393903868695,36.288393903868695 0 0,0 0.24833234899401171,-0.5731852999757944 l 13.97554876192841 6.198308233930508" fill="#ffbb11" stroke="none" /><path d="M 81.26839172434947 90.50648371742162 l -6.614256052316455 -3.352224037881134 a28.415240328253223,28.415240328253223 0 0,0 0.22487356652590432,-0.434384154709403 l 6.555573052630438 3.4655809148508725" fill="#ff5007" stroke="none" /><line stroke="#e1ed5e" stroke-width="0.3" x1="26.266209847984243" x2="21.928928074336255" y1="57.711370442889674" y2="55.22380399835377" /><path d="M 25.398753493254645 57.213857153982495 a86.0,86.0 0 0,1 29.58750427330803,-30.492523968695096" fill="none" id="id35" stroke="none" /><text fill="#e1ed5e" style="font-size:6.75px; font-family:Arial;" text-anchor="middle"><textPath startOffset="21.46611528233685" xlink:href="#id35">November</textPath></text><path d="M 81.78341655067845 89.55222093294921 l -28.176975619032635 -16.160374796092388 a53.48229777256741,53.48229777256741 0 0,0 0.4648893354990282,-0.7946465704600297 l 27.894626609063284 16.64300077890631" fill="#77ff27" stroke="none" /><path d="M 82.95767976084542 87.72973835380427 l -6.245520875451024 -4.496698464948168 a28.695896834701056,28.695896834701056 0 0,0 0.29206600100130004,-0.3983776971353999 l 6.167192261936091 4.6035386057550705" fill="#ff5407" stroke="none" /><path d="M 83.17141714833178 87.43820079747577 l -26.21707758490605 -19.569898856096604 a53.7156858147714,53.7156858147714 0 0,0 0.5594720416691927,-0.7361996262610913 l 25.87632960301275 20.018283258238718" fill="#74ff27" stroke="none" /><path d="M 83.6137871275137 86.86637796730984 l -11.791157633214642 -9.450664951541876 a36.11113716295428,36.11113716295428 0 0,0 0.39292615688434634,-0.48168100822844667 l 11.626732984253902 9.652230129378404" fill="#ffb911" stroke="none" /><path d="M 83.84228863543731 86.58626213691792 l -13.05876461281303 -10.841067857923543 a37.97233294255568,37.97233294255568 0 0,0 0.4218353455538799,-0.49931999541858335 l 12.870218653772026 11.064246802971242" fill="#ffd113" stroke="none" /><path d="M 84.07557802195018 86.31012108654704 l -14.203165581360254 -12.210152259501774 a39.73012895662368,39.73012895662368 0 0,0 0.45029018822752176,-0.5147595256737285 l 13.990883529554889 12.452827341378445" fill="#ffe715" stroke="none" /><path d="M 84.5562425177563 85.77008943001954 l -19.586233111713057 -18.046796312549667 a47.63282532239156,47.63282532239156 0 0,0 0.560780522217535,-0.5982015618104908 l 19.272685267525063 18.381267291238206" fill="#b8ff1f" stroke="none" /><path d="M 85.05521093208273 85.24692304244772 l -8.42024106218176 -8.312226009143762 a32.831887456037514,32.831887456037514 0 0,0 0.40049305615107617,-0.3987732116916894 l 8.275912205863369 8.455935071485564" fill="#ff8d0d" stroke="none" /><path d="M 85.31137513191541 84.99185889309783 l -10.352639238795378 -10.577836381558724 a35.80093786635405,35.80093786635405 0 0,0 0.44413067659883687,-0.42725335900381056 l 10.169025318584113 10.754472827324843" fill="#ffb510" stroke="none" /><path d="M 85.83668400450813 84.49514656593479 l -8.229002822234198 -9.008447083145043 a33.201172332942555,33.201172332942555 0 0,0 0.4252738360235322,-0.381815048972744 l 8.072717998614696 9.148761140887066" fill="#ff920d" stroke="none" /><path d="M 86.37877921826538 84.01681056812374 l -9.590744667655114 -11.25381427055672 a35.786166471277845,35.786166471277845 0 0,0 0.47227934850672587,-0.395520372347426 l 9.395607782189279 11.41723580029796" fill="#ffb510" stroke="none" /><path d="M 86.65592168130627 83.78471172551755 l -28.15866468188595 -34.21748991098289 a65.31418522860493,65.31418522860493 0 0,0 0.8742664520614072,-0.7069293364106044 l 27.56549483126004 34.697125344657636" fill="#35ff6a" stroke="none" /><path d="M 87.22198572758235 83.33499621200491 l -12.403512095617609 -16.176580464783047 a41.38452520515827,41.38452520515827 0 0,0 0.5690448013272527,-0.42859274682375015 l 12.123221140531966 16.38768980111265" fill="#fffc17" stroke="none" /><line stroke="#e1ed5e" stroke-width="0.3" x1="56.76296977257108" x2="54.21961505331056" y1="26.818313649435495" y2="22.513508569990535" /><path d="M 56.25429882871898 25.957352633546506 a86.0,86.0 0 0,1 42.26535254187918,-11.944610805530505" fill="none" id="id36" stroke="none" /><text fill="#e1ed5e" style="font-size:6.75px; font-family:Arial;" text-anchor="middle"><textPath startOffset="22.20632615414155" xlink:href="#id36">December</textPath></text><path d="M 89.3179101791058 81.91981866633112 l -6.0185373598144825 -10.186793844034304 a32.831887456037514,32.831887456037514 0 0,0 0.4890438893133012,-0.28328578628913603 l 5.842296738035858 10.288883787713488" fill="#ff8d0d" stroke="none" /><path d="M 89.63071344664047 81.73862282372117 l -5.120215118728055 -9.017223993726427 a31.36951934349355,31.36951934349355 0 0,0 0.4718512141903863,-0.2625846898344816 l 4.964239815465623 9.104024081121093" fill="#ff790b" stroke="none" /><path d="M 90.91171255644093 81.06846463323043 l -12.827590328894926 -26.720763564098334 a50.64028135990621,50.64028135990621 0 0,0 0.7890763546133146,-0.3704819288497186 l 12.365735762982002 26.93761047558806" fill="#96ff23" stroke="none" /><path d="M 92.91201910852362 80.23233633223022 l -10.634464179263158 -29.6584477866492 a52.5073856975381,52.5073856975381 0 0,0 0.8534150313409438,-0.29773974719145474 l 10.122367143858929 29.83710838701287" fill="#81ff25" stroke="none" /><path d="M 96.04723909329186 79.375362276772 l -2.34941357526498 -12.258723711226967 a33.48182883939039,33.48182883939039 0 0,0 0.5669667471278607,-0.10360954907737253 l 2.1380517070342258 12.297348741655075" fill="#ff960d" stroke="none" /><path d="M 97.83486435360386 79.11191278185805 l -3.222574697144836 -31.089701678960157 a52.256271981242676,52.256271981242676 0 0,0 0.8955104399041787,-0.08503950669645695 l 2.686939130150421 31.140566730171795" fill="#84ff25" stroke="none" /><path d="M 99.63851952072746 79.00311137660856 l -0.33181619609659974 -19.27381452768523 a40.276670574443145,40.276670574443145 0 0,0 0.6932966753691308,-0.005967423366473986 l 4.7214225834419536e-15 19.276670574443145" fill="#ffee16" stroke="none" /></svg>