<?xml version="1.0" encoding="utf-8" ?>
<svg baseProfile="full" height="200mm" version="1.1" viewBox="0,0,200,200" width="200mm" xmlns="http://www.w3.org/2000/svg" xmlns:ev="http://www.w3.org/2001/xml-events" xmlns:xlink="http://www.w3.org/1999/xlink"><defs /><rect fill="#1a1a1a" height="200" width="200" x="0" y="0" /><text alignment-baseline="middle" fill="#e1ed5e" style="dominant-baseline: central; font-size:9.0px; font-family:Arial;" text-anchor="middle" x="100.0" y="100.0">2022</text><line stroke="#e1ed5e" stroke-width="0.3" x1="100.0" x2="100.0" y1="15.0" y2="10.0" /><path d="M 100.0 14.0 a86.0,86.0 0 0,1 42.46469731375804,11.215312516191453" fill="none" id="id37" stroke="none" /><text fill="#e1ed5e" style="font-size:6.75px; font-family:Arial;" text-anchor="middle"><textPath startOffset="22.20632615414155" xlink:href="#id37">January</textPath></text><path d="M 101.08401301168833 79.027996857942 l 0.35919867989248505 -6.949285444088535 a27.958562486250827,27.958562486250827 0 0,0 0.48040525737754447,0.02897935705486464 l -0.47876598610964144 6.942072817653367" fill="#ff4706" stroke="none" /><path d="M 101.44485096284872 79.0497635885617 l 1.2672605379208484 -18.37518785465771 a39.418834869907805,39.418834869907805 0 0,0 0.676520705286696,0.052511027158184904 l -1.5833714325698856 18.35065156531106" fill="#ffe115" stroke="none" /><path d="M 101.80526077348638 79.07773832637324 l 0.685163669364327 -7.9407771942101215 a28.970281783093014,28.970281783093014 0 0,0 0.4964607845166863,0.047144933579955035 l -0.8217495809712575 7.927806716114989" fill="#ff5507" stroke="none" /><path d="M 103.95276090670814 79.375362276772 l 1.854761297404012 -9.677736833791949 a30.853868767873927,30.853868767873927 0 0,0 0.5207451185346513,0.10445657186232452 l -2.021072825405789 9.644376305852415" fill="#ff6f0a" stroke="none" /><path d="M 105.71112130821622 79.79150937346287 l 3.4449701197611637 -12.189838495242535 a33.667279963202205,33.667279963202205 0 0,0 0.5563274042797725,0.162407224811154 l -3.6542877417643633 12.128732941512679" fill="#ff960d" stroke="none" /><path d="M 106.0581310904928 79.89281104454417 l 11.64872367573166 -38.662598174113775 a61.37931724096554,61.37931724096554 0 0,0 1.0090018154576432,0.31350177563185444 l -12.31251086390002 38.4563562635994" fill="#30ff3a" stroke="none" /><path d="M 106.40334571778207 80.00007090966166 l 5.45916500908045 -17.05091648743323 a38.9035257884527,38.9035257884527 0 0,0 0.6360118418338528,0.2096831046276058 l -5.75185967315672 16.95441965854639" fill="#ffda14" stroke="none" /><path d="M 106.74666289553966 80.11325718540242 l 2.9014306922721578 -8.552377207069704 a30.031138131712098,30.031138131712098 0 0,0 0.48810323251499893,0.17028963366627922 l -3.0482159288504302 8.501166720231216" fill="#ff6409" stroke="none" /><path d="M 108.43124777332544 80.76684994638697 l 4.194968568937132 -9.569456636278595 a31.44855308681479,31.44855308681479 0 0,0 0.493918816970393,0.22160697578667493 l -4.359069504374306 9.495829329975388" fill="#ff780b" stroke="none" /><path d="M 108.76106565485865 80.91482961587045 l 7.457672510317453 -16.24584909365619 a38.8758074515529,38.8758074515529 0 0,0 0.6057624405461695,0.2844135882239635 l -7.73621316216322 16.115070522792223" fill="#ffda14" stroke="none" /><path d="M 109.41281617654863 81.2277094730956 l 7.839652470622642 -15.634878132981232 a38.490270583764975,38.490270583764975 0 0,0 0.5897067090570194,0.30207068071185006 l -8.107619667268418 15.497614926956881" fill="#ffd513" stroke="none" /><path d="M 109.73455568895987 81.39251694778311 l 5.846223373386893 -11.17498382213214 a33.611843289402636,33.611843289402636 0 0,0 0.5103477489590559,0.2726100930321203 l -6.03771616887426 11.072695002598266" fill="#ff950d" stroke="none" /><path d="M 110.36928655335952 81.73862282372117 l 4.52094506629184 -7.961847965523164 a30.155870647761134,30.155870647761134 0 0,0 0.44918356542726734,0.26019611388846436 l -4.657325364184435 7.88284769424465" fill="#ff6609" stroke="none" /><line stroke="#e1ed5e" stroke-width="0.3" x1="143.23703022742887" x2="145.7803849466894" y1="26.81831364943548" y2="22.513508569990506" /><path d="M 143.74570117128098 25.957352633546492 a86.0,86.0 0 0,1 28.547481713284135,27.462654790039103" fill="none" id="id38" stroke="none" /><text fill="#e1ed5e" style="font-size:6.75px; font-family:Arial;" text-anchor="middle"><textPath startOffset="19.985693538727396" xlink:href="#id38">February</textPath></text><path d="M 111.60114157652 82.49532879139004 l 3.4898780391979285 -5.26578933903788 a27.31726096434214,27.31726096434214 0 0,0 0.38972014983753944,0.26314078484356945 l -3.58000288344201 5.204936641895641" fill="#ff3e05" stroke="none" /><path d="M 113.34407831869373 83.78471172551755 l 5.483286547091175 -6.663110776869206 a29.6292222466652,29.6292222466652 0 0,0 0.3910245538774528,0.3274718186082044 l -5.597168637927745 6.5677378008671825" fill="#ff5e08" stroke="none" /><path d="M 114.42810811169701 84.74124197986012 l 39.105906368859316 -41.35729770120828 a77.91834489930605,77.91834489930605 0 0,0 0.9666206893455194,0.9298883372978295 l -39.81201030181725 40.67802627714815" fill="#45fff2" stroke="none" /><path d="M 114.68862486808459 84.99185889309783 l 6.226134513510246 -6.36156932105657 a29.901365918044917,29.901365918044917 0 0,0 0.3647456892523876,0.3631793553469362 l -6.334716002929953 6.253454115059515" fill="#ff6209" stroke="none" /><path d="M 115.19652480421416 85.50635884689758 l 8.587648768927453 -8.190444934568223 a32.86722796632202,32.86722796632202 0 0,0 0.38694537092957565,0.41276634272190527 l -8.727361461827492 8.041409174968262" fill="#ff8b0c" stroke="none" /><path d="M 115.68641384162765 86.03803664274999 l 13.55507180934923 -12.064925598532408 a39.14669119852809,39.14669119852809 0 0,0 0.44367766758357724,0.5072002714879273 l -13.760741340510656 11.829809770841532" fill="#ffde14" stroke="none" /><path d="M 116.38621287248628 86.86637796730983 l 42.18639565053651 -33.812582547733214 a75.06461612303262,75.06461612303262 0 0,0 0.7994235756046086,1.0151867582826977 l -42.76217330673508 33.08140339549748" fill="#42ffd5" stroke="none" /><path d="M 116.82858285166822 87.43820079747576 l 12.492453790194029 -9.325068987830676 a36.58904465732056,36.58904465732056 0 0,0 0.3724022293179977,0.5079562222757059 l -12.651118632025653 9.108650321883475" fill="#ffbd11" stroke="none" /><path d="M 117.2510076193507 88.02491185347247 l 27.048647068622554 -18.77629063984264 a53.926864388136714,53.926864388136714 0 0,0 0.5227709634583183,0.7671018823263297 l -27.367842497749606 18.307910734245905" fill="#73ff27" stroke="none" /><path d="M 117.45458315368197 88.32363383020206 l 19.76089339299514 -13.219188626127655 a44.77477351358918,44.77477351358918 0 0,0 0.42302217696109334,0.6442917973951211 l -19.985512205314155 12.87707876475486" fill="#dbff1b" stroke="none" /><line stroke="#e1ed5e" stroke-width="0.3" x1="172.23445277983987" x2="176.4835382374775" y1="55.19839476539836" y2="52.563006222186495" /><path d="M 173.08426987136738 54.67131705675599 a86.0,86.0 0 0,1 12.851231095245387,41.99856678651699" fill="none" id="id39" stroke="none" /><text fill="#e1ed5e" style="font-size:6.75px; font-family:Arial;" text-anchor="middle"><textPath startOffset="22.20632615414155" xlink:href="#id39">March</textPath></text><path d="M 117.84615892207809 88.93136811851018 l 12.492989358806893 -7.7484628998194 a35.70079795212287,35.70079795212287 0 0,0 0.31941028208473415,0.5250265204684844 l -12.624515439177852 7.532268606143834" fill="#ffb110" stroke="none" /><path d="M 118.21658344932153 89.55222093294921 l 12.953399618504422 -7.429178899427196 a35.93262404255745,35.93262404255745 0 0,0 0.3031042751167035,0.5391886841487304 l -13.079361534913561 7.205106705343672" fill="#ffb410" stroke="none" /><path d="M 118.56541770881063 90.18545643968196 l 23.753026776816597 -12.556955068122852 a47.86788792672439,47.86788792672439 0 0,0 0.3788186394271595,0.731757035822059 l -23.965654849403872 12.146225310040448" fill="#b7ff1f" stroke="none" /><path d="M 119.196687751892 91.48605970444005 l 16.490501083830356 -7.313717006089272 a39.03959762414255,39.03959762414255 0 0,0 0.26715966012347114,0.6166413298534721 l -16.613951453796506 7.028776531649196" fill="#ffdc14" stroke="none" /><path d="M 119.61058180528143 92.48833698450437 l 15.297689216583152 -5.859646972830084 a37.38153710777353,37.38153710777353 0 0,0 0.22499308405613339,0.6028696057467767 l -15.39628688914091 5.595454230053974" fill="#ffc712" stroke="none" /><path d="M 119.7369772167798 92.82701384747503 l 25.67350377199386 -9.330490936917416 a48.31642101473912,48.31642101473912 0 0,0 0.27735217617252267,0.7841119506854329 l -25.830309028976192 8.88718135980537" fill="#b2ff20" stroke="none" /><path d="M 119.97218684219823 93.5106431181261 l 11.127035998839231 -3.615393156715457 a32.69965802051877,32.69965802051877 0 0,0 0.1693289758279243,0.5368191266898502 l -11.187620458435362 3.4233238635991876" fill="#ff890c" stroke="none" /><path d="M 120.18372546131832 94.20196356495316 l 15.357278941289854 -4.411577189524474 a36.9783612983221,36.9783612983221 0 0,0 0.17047593221211318,0.6132926313474132 l -15.43094164406833 4.146573254758109" fill="#ffc212" stroke="none" /><path d="M 120.37134235888165 94.90015583598534 l 61.11402707664495 -15.299532492043943 a84.0,84.0 0 0,0 0.33906879895672226,1.4056590733623755 l -61.36832867586249 14.245288187022162" fill="#4dd2ff" stroke="none" /><path d="M 120.6074358757038 95.95851677861258 l 13.985839727174053 -2.742870919764891 a35.252264864108156,35.252264864108156 0 0,0 0.11165613704638365,0.5964715488244694 l -14.030981588130295 2.5017212934778588" fill="#ffab0f" stroke="none" /><path d="M 120.67395015179393 96.31383870115 l 15.518176330365812 -2.766887827325095 a36.76291422514649,36.76291422514649 0 0,0 0.10571637881658615,0.6239440520365751 l -15.563504570702621 2.499357986972683" fill="#ffbf11" stroke="none" /><path d="M 120.73433829027371 96.67025291283417 l 16.435538517154743 -2.6393987470132747 a37.64612123272603,37.64612123272603 0 0,0 0.09724191484500123,0.6407027211224545 l -16.478536325439045 2.3560969134987375" fill="#ffca12" stroke="none" /><path d="M 120.83666639777658 97.38593545837742 l 27.770276225039034 -3.483920748411331 a48.98796072235666,48.98796072235666 0 0,0 0.0977651495689533,0.837592097336111 l -27.826131727611575 3.005384912750367" fill="#aaff21" stroke="none" /><path d="M 120.87857604477298 97.74499172005257 l 13.801580956821118 -1.4906514346215693 a34.88184708917465,34.88184708917465 0 0,0 0.05933713521610969,0.5975168539144 l -13.825195217719456 1.2528590500027343" fill="#ffa60f" stroke="none" /><path d="M 120.94382443527127 98.46500227214037 l 20.844975514872008 -1.5277529732694113 a41.90088594684319,41.90088594684319 0 0,0 0.04652875698437023,0.7197792764329075 l -20.868184862860794 1.1687146325834685" fill="#feff18" stroke="none" /><path d="M 120.98425023603335 99.18683210126433 l 16.240835232575865 -0.6293541923698652 a37.253024818510895,37.253024818510895 0 0,0 0.019315348413113536,0.6409823793164472 l -16.249262275444625 0.3497016656284189" fill="#ffc512" stroke="none" /><line stroke="#e1ed5e" stroke-width="0.3" x1="184.98032266829074" x2="189.97916517819016" y1="98.17113171792111" y2="98.06355123074" /><path d="M 185.9800911702706 98.14961562048488 a86.0,86.0 0 0,1 -9.607161424134198,41.387399972396054" fill="none" id="id40" stroke="none" /><text fill="#e1ed5e" style="font-size:6.75px; font-family:Arial;" text-anchor="middle"><textPath startOffset="21.466115282336823" xlink:href="#id40">April</textPath></text><path d="M 120.99824983174949 100.27111621757518 l 21.8868424490721 0.2825891675259701 a42.888666679999204,42.888666679999204 0 0,0 -0.01588501718860206,0.7381143297778513 l -21.87873536919849 -0.6592933130939361" fill="#f2ff19" stroke="none" /><path d="M 120.9764740272857 100.99374915477107 l 2.340834051402001 0.11089575192733514 a23.343459392436454,23.343459392436454 0 0,0 -0.022469357010948522,0.40120546349075387 l -2.3385783435035234 -0.15117293175351235" fill="#ff0400" stroke="none" /><path d="M 120.8583938346157 102.4346265915055 l 17.42363962318387 2.0337163390315296 a38.541927484350936,38.541927484350936 0 0,0 -0.08258707464348647,0.6583002430561604 l -17.386051039293534 -2.333334336375085" fill="#ffd614" stroke="none" /><path d="M 120.81339534386255 102.79330883721812 l 36.234363499761585 4.862914776886867 a57.55922644641321,57.55922644641321 0 0,0 -0.1402415449467176,0.9808490387216162 l -36.14528790379827 -5.485909287588893" fill="#4dff2c" stroke="none" /><path d="M 120.76222939487914 103.15116336523771 l 11.227124784675665 1.7039838856201082 a32.35569865808051,32.35569865808051 0 0,0 -0.08831294683314235,0.5499248042312682 l -11.196130083481233 -1.8969879195445813" fill="#ff840c" stroke="none" /><path d="M 120.70491114924044 103.5080841355445 l 14.920306050448586 2.5279842340674548 a36.13295202287863,36.13295202287863 0 0,0 -0.10917925498281222,0.6123352431237491 l -14.874580353126586 -2.784438227924422" fill="#ffb710" stroke="none" /><path d="M 120.64145759157962 103.86396538481128 l 18.096931371262915 3.3876443114361496 a39.411275323480595,39.411275323480595 0 0,0 -0.13056405075090952,0.6657432818928847 l -18.03593738753634 -3.698651320396979" fill="#ffe115" stroke="none" /><path d="M 120.32669344350535 105.2749913415812 l 43.644483628352454 11.326203835720348 a66.09017458952462,66.09017458952462 0 0,0 -0.29524030538814755,1.0986990084387636 l -43.443055246622535 -12.07579377733466" fill="#36ff72" stroke="none" /><path d="M 119.9155931802556 106.66101706037122 l 15.2739452206792 5.10856035134244 a37.10561366318021,37.10561366318021 0 0,0 -0.20780763763181556,0.6039862675570292 l -15.183746752104154 -5.37071932198877" fill="#ffc312" stroke="none" /><path d="M 119.67450827220406 107.3425965602758 l 13.030431983092653 4.863003625515538 a34.9083055016699,34.9083055016699 0 0,0 -0.2149449329077799,0.5611533932929841 l -12.944792770591366 -5.0865805856416655" fill="#ffa60f" stroke="none" /><path d="M 119.26925614724726 108.34839909993367 l 15.04183499381042 6.516870229140469 a37.39287642741435,37.39287642741435 0 0,0 -0.2609647337133049,0.5884065818458304 l -14.927429175365843 -6.774825147478988" fill="#ffc712" stroke="none" /><path d="M 119.12269723197855 108.67885076344098 l 18.571231731738298 8.428567724405688 a41.39439633621983,41.39439633621983 0 0,0 -0.30006084966499735,0.6463043755120561 l -18.423396265233468 -8.746992167196575" fill="#fffa17" stroke="none" /><path d="M 118.64920377521936 109.65438752849418 l 15.138515313804247 7.836961577936902 a38.0467771933684,38.0467771933684 0 0,0 -0.3060908369974254,0.5790085102554213 l -15.001371968581928 -8.096385103278458" fill="#ffcf13" stroke="none" /><line stroke="#e1ed5e" stroke-width="0.3" x1="174.80103733775053" x2="179.2010983576182" y1="140.37084112569926" y2="142.7455964860345" /><path d="M 175.68104954172406 140.8457921977663 a86.0,86.0 0 0,1 -30.038265399797805,32.042727171017184" fill="none" id="id41" stroke="none" /><text fill="#e1ed5e" style="font-size:6.75px; font-family:Arial;" text-anchor="middle"><textPath startOffset="22.206326154141568" xlink:href="#id41">May</textPath></text><path d="M 118.48025628344425 109.97397251340804 l 13.952495554518476 7.530296388740289 a36.8548887066776,36.8548887066776 0 0,0 -0.3061124770230383,0.5556830621762797 l -13.82080666804393 -7.769349969314375" fill="#ffc011" stroke="none" /><path d="M 118.30583269289576 110.29060199501023 l 11.555046642918803 6.495655676029605 a34.255664660120395,34.255664660120395 0 0,0 -0.29337204331409755,0.51151888592126 l -11.441522603452324 -6.693594407809179" fill="#ff9e0e" stroke="none" /><path d="M 117.75023020441432 111.22182372390056 l 12.044583541703064 7.614672698676994 a35.249745015299084,35.249745015299084 0 0,0 -0.32865374481879156,0.5100779104012297 l -11.911724933507221 -7.820872208999677" fill="#ffab0f" stroke="none" /><path d="M 117.55443506779139 111.5257021239791 l 9.413527626497572 6.180632697085686 a32.26120432774034,32.26120432774034 0 0,0 -0.3087810421707626,0.4615857620833257 l -9.305743478916089 -6.341755373374819" fill="#ff830c" stroke="none" /><path d="M 117.14729908036423 112.12312394758627 l 32.577227727065214 23.03206865133693 a60.89676619402836,60.89676619402836 0 0,0 -0.6125060761503354,0.8507173684775019 l -32.175941858539275 -23.589419625265567" fill="#30ff34" stroke="none" /><path d="M 116.93607887273984 112.41649034213515 l 10.177295321642438 7.461366354028294 a33.61940283582985,33.61940283582985 0 0,0 -0.3461817658898704,0.46376704762513904 l -10.047352289057475 -7.635446281162748" fill="#ff950d" stroke="none" /><path d="M 116.71984013943494 112.70617746262583 l 10.057383591263001 7.643069530245376 a33.63200207987521,33.63200207987521 0 0,0 -0.354246170636959,0.4579109284126275 l -9.924330603407974 -7.8150584527712565" fill="#ff950d" stroke="none" /><path d="M 116.498646956653 112.99209946851258 l 15.423989573339624 12.14584488440871 a40.63214207147571,40.63214207147571 0 0,0 -0.4374380722477639,0.5457712543074988 l -15.212633589037006 -12.40954397229446" fill="#fff016" stroke="none" /><path d="M 116.27256486870786 113.27417163493432 l 5.852890409849623 4.774433071101609 a28.553246805191687,28.553246805191687 0 0,0 -0.31395518587360305,0.3781792462722031 l -5.769839224082477 -4.874473574487583" fill="#ff4f07" stroke="none" /><path d="M 116.0416608686014 113.55231037782055 l 15.70512701560932 13.267999964718662 a41.559446433214006,41.559446433214006 0 0,0 -0.46637118333708405,0.5424950482625578 l -15.474413322701455 -13.536372112142748" fill="#fffc17" stroke="none" /><path d="M 115.80600337817218 113.82643327865902 l 9.776058766008658 8.551688938845421 a33.98856068635882,33.98856068635882 0 0,0 -0.38899284638842385,0.43703758660223735 l -9.6274070699719 -8.718700695188526" fill="#ff9a0e" stroke="none" /><path d="M 115.32070863581623 114.36230785411682 l 11.032086777617334 10.341964614029767 a36.12161270323781,36.12161270323781 0 0,0 -0.42914789157543837,0.44995984860618654 l -10.85243233466293 -10.53033157921846" fill="#ffb610" stroke="none" /><path d="M 115.07121518719521 114.62390073753431 l 10.741213439715125 10.422413666850197 a35.96664200147991,35.96664200147991 0 0,0 -0.4349555200736742,0.4406076454511905 l -10.560217294585916 -10.605761806282052" fill="#ffb410" stroke="none" /><path d="M 114.81725581225074 114.88116024355365 l 12.466194723628105 12.519959408156678 a38.66791992480451,38.66791992480451 0 0,0 -0.47570756924296287,0.46557997967547843 l -12.248837202009348 -12.73268949075473" fill="#ffd714" stroke="none" /><path d="M 114.55890576462653 115.13401014063108 l 9.94808578005309 10.341054026257266 a35.349279043257404,35.349279043257404 0 0,0 -0.4421423278468436,0.4180731681118291 l -9.768607617815439 -10.510761831115015" fill="#ffac0f" stroke="none" /><path d="M 114.29624159901734 115.38237550388516 l 11.275626986021752 12.132274565970496 a37.562966222026674,37.562966222026674 0 0,0 -0.4774082194295186,0.43610108920923607 l -11.06511921712537 -12.324568421766314" fill="#ffc912" stroke="none" /><path d="M 114.0293411484842 115.62618273729858 l 11.862218555221958 13.212394855313608 a38.75611463312201,38.75611463312201 0 0,0 -0.5002448210922199,0.44140789214586407 l -11.63303138122315 -13.414625889231761" fill="#ffd914" stroke="none" /><path d="M 113.75828350139079 115.86535959552629 l 20.66012505787513 23.82421566604568 a52.53464792112473,52.53464792112473 0 0,0 -0.6882902532843461,0.5865758859870723 l -20.246969328013737 -24.176315942255698" fill="#82ff25" stroke="none" /><path d="M 113.20401910651253 116.32954008644616 l 4.753161688643193 5.878281734216565 a28.559546427214368,28.559546427214368 0 0,0 -0.3849316965530463,0.30581302013698014 l -4.651272499372795 -5.959228668358672" fill="#ff4f07" stroke="none" /><path d="M 112.63410532772338 116.77436683061366 l 6.931159677421505 9.202536465759932 a32.52074875507469,32.52074875507469 0 0,0 -0.4500484934031652,0.33293511627974287 l -6.7717262135997744 -9.320481530779444" fill="#ff860c" stroke="none" /><path d="M 112.04921762599082 117.19931262002967 l 22.748521903966516 32.47172986783356 a60.64730116193029,60.64730116193029 0 0,0 -0.8601610055849308,0.5916265830081165 l -22.1862040137587 -32.85849724020677" fill="#2fff31" stroke="none" /><path d="M 111.7513745106137 117.40417183066458 l 14.383524471993496 21.302472422697928 a46.70371777693339,46.70371777693339 0 0,0 -0.670143420433245,0.44413451725934133 l -14.014706352820287 -21.54690496104859" fill="#c4ff1e" stroke="none" /><line stroke="#e1ed5e" stroke-width="0.3" x1="143.8653032363475" x2="146.44561519142675" y1="172.8068346515853" y2="177.08958963109032" /><path d="M 144.38136562736335 173.6633856474863 a86.0,86.0 0 0,1 -40.68145358897372,12.25698825130547" fill="none" id="id42" stroke="none" /><text fill="#e1ed5e" style="font-size:6.75px; font-family:Arial;" text-anchor="middle"><textPath startOffset="21.466115282336833" xlink:href="#id42">June</textPath></text><path d="M 110.21172684928248 118.3499491758327 l 11.650472837587095 20.935301893544462 a44.9587224766514,44.9587224766514 0 0,0 -0.6794701391246358,0.3705012956915547 l -11.288379886593809 -21.13274384099579" fill="#d9ff1c" stroke="none" /><path d="M 109.89434966115114 118.52300852407294 l 13.069849598397976 24.467796652671662 a48.739755614663125,48.739755614663125 0 0,0 -0.7434184348577102,0.38892138899245726 l -12.64674026101377 -24.689147460608837" fill="#adff20" stroke="none" /><path d="M 107.59598834532513 119.57807347666477 l 3.670009448127307 9.459165992495334 a31.146171229726214,31.146171229726214 0 0,0 -0.5014975239080954,0.1896234521047145 l -3.506641703458937 -9.52093769470668" fill="#ff730a" stroke="none" /><path d="M 107.2578585660854 119.70592522655815 l 6.281735156351499 17.055637300861612 a39.175669459832406,39.175669459832406 0 0,0 -0.6347959055436215,0.22761522677142326 l -5.987219690178143 -17.161240068672996" fill="#ffde14" stroke="none" /><path d="M 105.18746579009965 120.34920634021253 l 2.494191399027577 9.784125329108047 a31.097034177949325,31.097034177949325 0 0,0 -0.5198338905903432,0.12776252281138437 l -2.3254042236940227 -9.825609110233462" fill="#ff730a" stroke="none" /><path d="M 104.83641907484287 120.43548508189849 l 2.906029860281462 12.278946248937872 a33.618142911425316,33.618142911425316 0 0,0 -0.5642722852908861,0.1284265350193692 l -2.6942374255977133 -12.327149517534927" fill="#ff950d" stroke="none" /><path d="M 103.7750983002368 120.6578951692458 l 2.8479142867734533 15.584207379043065 a36.842289462632245,36.842289462632245 0 0,0 -0.6248294897829014,0.10863461590794019 l -2.5792358255185017 -15.630920573472011" fill="#ffc011" stroke="none" /><path d="M 103.41894727170886 120.7198165907248 l 2.3252916588259684 14.091944935651238 a35.28250304981701,35.28250304981701 0 0,0 -0.6000783205484644,0.0937198924356998 l -2.082377474668987 -14.129883135434044" fill="#ffab0f" stroke="none" /><path d="M 102.70371172650421 120.8252237178851 l 2.132289501323789 16.423868514185113 a37.56170629762214,37.56170629762214 0 0,0 -0.6418983968388026,0.07772495653984889 l -1.8492636814336059 -16.458138999450313" fill="#ffc912" stroke="none" /><path d="M 101.62511606390274 120.93702456842531 l 0.9963638815884257 12.836557050461266 a33.8751674899506,33.8751674899506 0 0,0 -0.5817450896060531,0.04012054739348516 l -0.7752560312034422 -12.851805942371037" fill="#ff990e" stroke="none" /><path d="M 101.26447882468166 120.96189622390904 l 0.8021878142621787 13.298267544244196 a34.32244065356079,34.32244065356079 0 0,0 -0.5900385998621759,0.0304982559518239 l -0.5731611459865231 -13.31010560695822" fill="#ff9f0e" stroke="none" /><line stroke="#e1ed5e" stroke-width="0.3" x1="102.19456741930631" x2="102.32365962044197" y1="184.97166512339345" y2="189.96999836594603" /><path d="M 102.22038585953345 185.97133177190398 a86.0,86.0 0 0,1 -42.740103519485714,-10.115201625700543" fill="none" id="id43" stroke="none" /><text fill="#e1ed5e" style="font-size:6.75px; font-family:Arial;" text-anchor="middle"><textPath startOffset="22.20632615414155" xlink:href="#id43">July</textPath></text><path d="M 96.93821686468263 120.77559828337769 l -0.9298689817196861 6.3095861354593445 a27.377737335759853,27.377737335759853 0 0,0 -0.46563551961331073,-0.07272269188547731 l 1.038340364941514 -6.292645136226762" fill="#ff3e05" stroke="none" /><path d="M 96.58105272829116 120.7198165907248 l -2.862102550776164 17.345175342902408 a38.579725216487006,38.579725216487006 0 0,0 -0.6542956579132161,-0.11375768693685039 l 3.1602471801614302 -17.293339077444553" fill="#ffd614" stroke="none" /><path d="M 96.22490169976321 120.6578951692458 l -2.566384347338147 14.043633991723947 a35.27620342779433,35.27620342779433 0 0,0 -0.5963902215154271,-0.11429960537411896 l 2.807742183425269 -13.99737718800136" fill="#ffab0f" stroke="none" /><path d="M 95.16358092515715 120.4354850818985 l -2.325984559162868 9.828061221316624 a31.099554026758394,31.099554026758394 0 0,0 -0.5198760136687902,-0.12777287563921702 l 2.4948138575748686 -9.786567087363377" fill="#ff730a" stroke="none" /><path d="M 94.11515582081647 120.15858648285463 l -3.6295541164734177 12.433070158415234 a33.95202287862728,33.95202287862728 0 0,0 -0.5596021326985822,-0.1686035320957908 l 3.8430312236122455 -12.368751257213718" fill="#ff9a0e" stroke="none" /><path d="M 92.7421414339146 119.70592522655815 l -2.6557814167882836 7.210753632188758 a28.684278943263404,28.684278943263404 0 0,0 -0.46185756698743424,-0.1746350122536038 l 2.7795092045360006 -7.163970369828521" fill="#ff5107" stroke="none" /><path d="M 92.40401165467489 119.57807347666478 l -2.2645320933496285 5.836656626935221 a27.26056436613803,27.26056436613803 0 0,0 -0.4360118583709575,-0.17349811670504206 l 2.3646650277624444 -5.796811665824112" fill="#ff3d05" stroke="none" /><path d="M 91.40352486487194 119.15986991738527 l -5.680553795070317 12.660848785277764 a34.876807391556504,34.876807391556504 0 0,0 -0.5456260682657971,-0.25047016667213556 l 5.897647859103533 -12.561191548271555" fill="#ffa60f" stroke="none" /><path d="M 90.42595943632237 118.69057910512821 l -2.8726142546818294 5.607958688763447 a27.300881947083177,27.300881947083177 0 0,0 -0.4164152788905191,-0.21784879291401998 l 2.9687204360988444 -5.557680476904711" fill="#ff3d05" stroke="none" /><line stroke="#e1ed5e" stroke-width="0.3" x1="58.666819895761336" x2="56.23545636021788" y1="174.27360380694188" y2="178.64263932499728" /><path d="M 58.180547188652646 175.14741091055294 a86.0,86.0 0 0,1 -31.652253787137756,-30.449443065178592" fill="none" id="id44" stroke="none" /><text fill="#e1ed5e" style="font-size:6.75px; font-family:Arial;" text-anchor="middle"><textPath startOffset="22.20632615414155" xlink:href="#id44">August</textPath></text><path d="M 89.1626897886671 117.98757091392108 l -5.2074486020377915 8.64322873325164 a31.090734555926645,31.090734555926645 0 0,0 -0.45602823488613053,-0.2801297882266097 l 5.355456036856231 -8.552310478196652" fill="#ff730a" stroke="none" /><path d="M 88.8546689885994 117.79835938074946 l -2.6800683975177653 4.279892670322411 a26.0497770133792,26.0497770133792 0 0,0 -0.37799243374268504,-0.2412526553075995 l 2.7533426333073736 -4.233125586191007" fill="#ff2b04" stroke="none" /><path d="M 88.24862548938628 117.40417183066458 l -29.642003792756366 43.90078172969407 a73.9710017398956,73.9710017398956 0 0,0 -1.0491311240845684,-0.7216019536337103 l 30.393291801463825 -43.38403898669525" fill="#40ffc9" stroke="none" /><path d="M 87.36589467227662 116.77436683061367 l -4.9686955036633815 6.596962656720952 a29.258804471731697,29.258804471731697 0 0,0 -0.3996909734079109,-0.3064659947117375 l 5.081515205564779 -6.510457320181848" fill="#ff5908" stroke="none" /><path d="M 87.07902340077011 116.55440617244103 l -6.580000162446048 8.430322156171398 a31.694238345699258,31.694238345699258 0 0,0 -0.4271817470371605,-0.33937901549456645 l 6.724139402200566 -8.315809226671702" fill="#ff7b0b" stroke="none" /><path d="M 86.24171649860922 115.8653595955263 l -14.383422395360336 16.58623828282577 a42.954182749035056,42.954182749035056 0 0,0 -0.5544314147035182,-0.4892212608406264 l 14.666796162970442 -16.336193880212853" fill="#f1ff19" stroke="none" /><path d="M 85.97065885151581 115.62618273729859 l -9.645154503958583 10.742981100336248 a35.437473751574906,35.437473751574906 0 0,0 -0.45039417666913206,-0.4114244016443918 l 9.828648230094572 -10.57536393210528" fill="#ffad10" stroke="none" /><path d="M 85.44109423537348 115.13401014063109 l -13.22189607978431 13.744186038761642 a40.07147571145731,40.07147571145731 0 0,0 -0.4929746504012953,-0.48247945282774907 l 13.456520682561399 -13.514556483011324" fill="#ffe915" stroke="none" /><path d="M 85.18274418774928 114.88116024355367 l -9.325421282953627 9.365640318873538 a34.21660700357978,34.21660700357978 0 0,0 -0.41379181558807543,-0.41916892454279353 l 9.485253723597236 -9.203730900350081" fill="#ff9d0e" stroke="none" /><path d="M 84.9287848128048 114.62390073753433 l -9.058462516968266 8.789606878904396 a33.62192268463892,33.62192268463892 0 0,0 -0.39944997332669635,-0.4188217000530925 l 9.208419041673919 -8.632378062268803" fill="#ff950d" stroke="none" /><path d="M 84.4343377721795 114.09645910891817 l -15.862014655492542 14.36483958752325 a42.399816011039334,42.399816011039334 0 0,0 -0.48525812165677124,-0.5451926438674 l 16.106931626797646 -14.089672773914984" fill="#f8ff18" stroke="none" /><path d="M 83.95833913139862 113.55231037782056 l -9.12394926510456 7.70809165740489 a32.944083354998696,32.944083354998696 0 0,0 -0.3622343155480936,-0.4363345680904192 l 9.25527958054619 -7.5498958322007095" fill="#ff8c0c" stroke="none" /><path d="M 83.50135304334701 112.99209946851258 l -4.478124042471339 3.5263638978991816 a26.699898006119632,26.699898006119632 0 0,0 -0.28123025809174046,-0.363528018803871 l 4.538161117781148 -3.448757884982058" fill="#ff3505" stroke="none" /><path d="M 83.28015986056508 112.70617746262583 l -10.053371070380782 7.64002023061233 a33.62696238225706,33.62696238225706 0 0,0 -0.3462596071633949,-0.46387132873166415 l 10.183391944239263 -7.46583602237136" fill="#ff950d" stroke="none" /><path d="M 82.85270091963577 112.12312394758628 l -4.35995361293824 3.082483008411735 a26.339559626422414,26.339559626422414 0 0,0 -0.25855299653045716,-0.37246487529582784 l 4.41236751663083 -3.006976870928897" fill="#ff3004" stroke="none" /><path d="M 82.6465618267979 111.8261652097733 l -3.7502000459896783 2.5557174820872794 a25.538247705137692,25.538247705137692 0 0,0 -0.24443373723734368,-0.36539527196484406 l 3.7936368886377525 -2.490785295916612" fill="#ff2403" stroke="none" /><path d="M 82.05923443525364 110.91462005526583 l -6.060027006150953 3.6867374504217723 a28.09337439753615,28.09337439753615 0 0,0 -0.2477823906949218,-0.41529753922117413 l 6.122590272544107 -3.581877817314487" fill="#ff4906" stroke="none" /><line stroke="#e1ed5e" stroke-width="0.3" x1="26.63291911575756" x2="22.317208475507996" y1="142.92168965132927" y2="145.44649492493687" /><path d="M 25.769776987707644 143.4266507060508 a86.0,86.0 0 0,1 -11.730757126820373,-40.83630448921669" fill="none" id="id45" stroke="none" /><text fill="#e1ed5e" style="font-size:6.75px; font-family:Arial;" text-anchor="middle"><textPath startOffset="21.46611528233685" xlink:href="#id45">September</textPath></text><path d="M 81.35079622478065 109.6543875284942 l -9.886468685349172 5.118063008325984 a32.13269203847769,32.13269203847769 0 0,0 -0.2500555845845839,-0.49338339116484753 l 9.973102939720023 -4.9471254054584515" fill="#ff810b" stroke="none" /><path d="M 81.18737489456691 109.33194174019688 l -10.178524480578899 5.049024095340008 a32.361998280103194,32.361998280103194 0 0,0 -0.2432493351406836,-0.5011656784629532 l 10.263927072334303 -4.87306946091177" fill="#ff840c" stroke="none" /><path d="M 81.02952815118164 109.00673069616217 l -13.921973380881923 6.609823203135149 a36.41139531628102,36.41139531628102 0 0,0 -0.26393993349606754,-0.5685031355517263 l 14.033687931217818 -6.369200000304596" fill="#ffba11" stroke="none" /><path d="M 80.87730276802145 108.67885076344099 l -1.9079482529116432 0.8659237737497169 a23.095254284742914,23.095254284742914 0 0,0 -0.16118168646796105,-0.3634221522627376 l 1.922571024110884 -0.8329532849942833" fill="#ff0000" stroke="none" /><path d="M 80.20201598880116 107.00284435728193 l -17.747035924523836 6.277393208936421 a39.82453052816831,39.82453052816831 0 0,0 -0.22303475921399554,-0.6482434105324547 l 17.852461514681057 -5.9709770953146695" fill="#ffe615" stroke="none" /><path d="M 80.0844068197444 106.66101706037122 l -8.589876569777267 2.8729907193773623 a30.05759654420735,30.05759654420735 0 0,0 -0.15988887856262698,-0.4920873693296125 l 8.638057699356144 -2.724704450069946" fill="#ff6409" stroke="none" /><path d="M 79.97269907076064 106.31721596034903 l -12.03608623931708 3.7965453437683476 a33.62066276023439,33.62066276023439 0 0,0 -0.16934123860156872,-0.5534169657684213 l 12.09965425042478 -3.5888014054478785" fill="#ff950d" stroke="none" /><path d="M 79.86692584326677 105.97154293290107 l -22.96844619864502 6.812524580671997 a44.95746255224687,44.95746255224687 0 0,0 -0.2136707518872134,-0.743815918288583 l 23.082309587418337 -6.416151186878819" fill="#d9ff1c" stroke="none" /><path d="M 79.67330655649465 105.27499134158121 l -9.16109760300055 2.37740145339028 a30.464552126872388,30.464552126872388 0 0,0 -0.12735442818132073,-0.5087176341010058 l 9.200663345476931 -2.2193559798918825" fill="#ff6a09" stroke="none" /><path d="M 79.50377843672027 104.57218783832718 l -11.672307766253098 2.6037961899126993 a32.95920244785313,32.95920244785313 0 0,0 -0.11875665409964631,-0.554791551827668 l 11.715398459077186 -2.4024908186688676" fill="#ff8c0c" stroke="none" /><path d="M 79.4281124754447 104.21870165774334 l -13.448270291835755 2.7578529245908103 a34.72813631182129,34.72813631182129 0 0,0 -0.11504946527826661,-0.5866347448157859 l 13.493749690089688 -2.5259544527070696" fill="#ffa40f" stroke="none" /><path d="M 79.35854240842038 103.8639653848113 l -14.66033487805449 2.7443326735633526 a35.914985100893944,35.914985100893944 0 0,0 -0.10852064657079773,-0.6086414173859122 l 14.705401966964477 -2.491572505444227" fill="#ffb410" stroke="none" /><path d="M 79.29508885075956 103.50808413554451 l -15.958802083932474 2.7039391770097976 a37.18624882507049,37.18624882507049 0 0,0 -0.10149764497797874,-0.6320259321649518 l 16.002981483271743 -2.428834015151632" fill="#ffc412" stroke="none" /><path d="M 79.07016306316243 101.71520430193888 l -13.829187899849543 1.1333047003531527 a34.875547467151975,34.875547467151975 0 0,0 -0.043882475359403726,-0.5987415114900307 l 13.846646933873282 -0.8950900523663613" fill="#ffa60f" stroke="none" /><path d="M 79.04373962182676 101.35467743843564 l -12.590604049378646 0.8138955583761681 a33.61688298702078,33.61688298702078 0 0,0 -0.03235808937878788,-0.5777754227932304 l 12.602748489644965 -0.5970484192475002" fill="#ff950d" stroke="none" /><line stroke="#e1ed5e" stroke-width="0.3" x1="15.007084014347285" x2="10.007500721073583" y1="101.09737516637583" y2="101.16192664675087" /><path d="M 14.007167355692545 101.11028546245083 a86.0,86.0 0 0,1 10.666146001902534,-42.60595125391555" fill="none" id="id46" stroke="none" /><text fill="#e1ed5e" style="font-size:6.75px; font-family:Arial;" text-anchor="middle"><textPath startOffset="22.20632615414155" xlink:href="#id46">October</textPath></text><path d="M 79.00175016825051 100.2711162175752 l -26.60108664664464 0.34345652865430715 a47.603303801771894,47.603303801771894 0 0,0 -0.003526504226334669,-0.819435387168166 l 26.603057448160474 0.11448833671753418" fill="#baff1f" stroke="none" /><path d="M 79.00486145842228 99.54816195383935 l -15.129448774446924 -0.32560207022191945 a36.13295202287863,36.13295202287863 0 0,0 0.018734601040220015,-0.6217102013107849 l 15.121602478951058 0.5859824189576988" fill="#ffb710" stroke="none" /><path d="M 79.01574976396665 99.18683210126434 l -4.44923346604055 -0.17241377642132277 a25.452572845629263,25.452572845629263 0 0,0 0.020733413455368777,-0.4376495886869295 l 4.445606444351682 0.24897447173126133" fill="#ff2303" stroke="none" /><path d="M 79.03285615573316 98.82574320788736 l -6.940127547676352 -0.3886791625753731 a27.95100293982361,27.95100293982361 0 0,0 0.031038136637647446,-0.48014623597994227 l 6.932408820034292 0.5080844628083272" fill="#ff4706" stroke="none" /><path d="M 79.08570108090925 98.10471618934814 l -8.787242885250443 -0.7963125728053281 a29.823250604963704,29.823250604963704 0 0,0 0.050732011100405525,-0.5108644284066355 l 8.772233748467809 0.9474525319163939" fill="#ff6109" stroke="none" /><path d="M 79.12142395522702 97.74499172005258 l -13.804086235629764 -1.490922019380074 a34.88436693798372,34.88436693798372 0 0,0 0.06961864305067485,-0.596450018269344 l 13.7763772395755 1.7283157759742798" fill="#ffa60f" stroke="none" /><path d="M 79.16333360222342 97.38593545837743 l -12.523752013254747 -1.5711676446198122 a33.62192268463892,33.62192268463892 0 0,0 0.07698459819264833,-0.5736246763060128 l 12.494851416004265 1.7865106629904843" fill="#ff950d" stroke="none" /><path d="M 79.21141760316559 97.0276538004421 l -18.741029883897 -2.6795876644135586 a39.93162410255385,39.93162410255385 0 0,0 0.10314548918860279,-0.679599899898956 l 18.692128501269096 3.0017866767046066" fill="#ffe715" stroke="none" /><path d="M 79.26566170972629 96.67025291283419 l -10.169582756413872 -1.6331429576773695 a31.299882007079574,31.299882007079574 0 0,0 0.0900067432878191,-0.531224893874327 l 10.13996415160583 1.8079536398675244" fill="#ff760a" stroke="none" /><path d="M 79.32604984820605 96.31383870115002 l -4.683609129842644 -0.8350865986715318 a25.757474551526908,25.757474551526908 0 0,0 0.08158284636690352,-0.4358188274932095 l 4.668540559565878 0.915583503627314" fill="#ff2703" stroke="none" /><path d="M 79.3925641242962 95.95851677861259 l -26.117121499012082 -5.12203017230492 a47.61464312141271,47.61464312141271 0 0,0 0.16465756705872628,-0.8029287739230494 l 26.02508463603836 5.570834602391373" fill="#baff1f" stroke="none" /><path d="M 79.62865764111835 94.90015583598534 l -38.46163866317901 -9.628642041320147 a60.64856108633482,60.64856108633482 0 0,0 0.2622434196869971,-1.0105308718774588 l 38.2901989116217 10.289269338746468" fill="#2fff31" stroke="none" /><path d="M 79.81627453868168 94.20196356495316 l -22.217315623391027 -6.3822115357361255 a44.115833050017,44.115833050017 0 0,0 0.215945118168867,-0.728059586396747 l 22.104164608110455 6.7637005088794115" fill="#e3ff1b" stroke="none" /><path d="M 80.02781315780177 93.51064311812611 l -13.692509192196418 -4.448965927394735 a35.39715617062976,35.39715617062976 0 0,0 0.19327303425274356,-0.5778617721595704 l 13.613898864171901 4.684000802476627" fill="#ffad10" stroke="none" /><path d="M 80.2630227832202 92.82701384747504 l -12.535386325830315 -4.555720541405269 a34.33755974641522,34.33755974641522 0 0,0 0.20667190447609998,-0.5537779531896889 l 12.455109832852587 4.770821631624299" fill="#ff9f0e" stroke="none" /><path d="M 80.38941819471856 92.48833698450439 l -36.90058659434684 -14.134449162349602 a60.51500909945403,60.51500909945403 0 0,0 0.3809749777102847,-0.9695397633453925 l 36.65181806675486 14.767537930590757" fill="#30ff2f" stroke="none" /><path d="M 80.65960295795067 91.81776055985345 l -11.677804681590173 -4.940467035515958 a33.679879207247566,33.679879207247566 0 0,0 0.23048150159323252,-0.5319830830125727 l 11.591032470154262 5.140749263115129" fill="#ff960d" stroke="none" /><path d="M 80.95270993114464 91.15688171328213 l -13.742938045800523 -6.380457603507937 a36.15185088894666,36.15185088894666 0 0,0 0.26690705989457003,-0.5621743379246714 l 13.631072792064202 6.61607435707314" fill="#ffb711" stroke="none" /><path d="M 81.10775173730289 90.83032412892265 l -10.431295767950013 -5.063007842020965 a32.5950842949423,32.5950842949423 0 0,0 0.24933685328199762,-0.5026478814754834 l 10.342598901714604 5.241815311995409" fill="#ff870c" stroke="none" /><path d="M 81.43458229118936 90.18545643968196 l -19.295366136215424 -10.200428260027765 a42.82567045977241,42.82567045977241 0 0,0 0.35013432207055556,-0.6487457226090653 l 19.116923714926397 10.531054965969302" fill="#f3ff19" stroke="none" /><line stroke="#e1ed5e" stroke-width="0.3" x1="26.266209847984243" x2="21.928928074336255" y1="57.711370442889674" y2="55.22380399835377" /><path d="M 25.398753493254645 57.213857153982495 a86.0,86.0 0 0,1 29.58750427330803,-30.492523968695096" fill="none" id="id47" stroke="none" /><text fill="#e1ed5e" style="font-size:6.75px; font-family:Arial;" text-anchor="middle"><textPath startOffset="21.46611528233685" xlink:href="#id47">November</textPath></text><path d="M 81.96595687620814 89.24020034530311 l -12.283692473516128 -7.328920593550817 a35.30392176469412,35.30392176469412 0 0,0 0.31585948372025346,-0.5191899415768435 l 12.155717191509655 7.539278308334734" fill="#ffac0f" stroke="none" /><path d="M 82.7489923806493 88.02491185347247 l -15.690575096055639 -10.891886664881541 a40.100453972761635,40.100453972761635 0 0,0 0.3984980325833709,-0.5636472065440086 l 15.50076444366839 11.160360371757335" fill="#ffea15" stroke="none" /><path d="M 83.17141714833178 87.43820079747577 l -10.919412247712643 -8.150862450770926 a34.626082435053895,34.626082435053895 0 0,0 0.3606455868728411,-0.4745673179241508 l 10.777490720615692 8.337614544576102" fill="#ffa30f" stroke="none" /><path d="M 83.6137871275137 86.86637796730984 l -12.128674771985489 -9.72118642985212 a36.54368737875728,36.54368737875728 0 0,0 0.39763274624452094,-0.48745073027063046 l 11.959543533664576 9.928521329730833" fill="#ffbc11" stroke="none" /><path d="M 84.31358615837235 86.03803664274999 l -20.12885342347853 -17.9160333750893 a47.94726316421015,47.94726316421015 0 0,0 0.5540337296119832,-0.6117778820430094 l 19.817476053250505 18.259864044401866" fill="#b6ff1f" stroke="none" /><path d="M 84.80347519578584 85.50635884689758 l -9.154749048603946 -8.731315170187868 a33.65090094594324,33.65090094594324 0 0,0 0.4033873488895528,-0.415726121779709 l 9.003097436011279 8.8876054875177" fill="#ff960d" stroke="none" /><path d="M 85.05521093208273 85.24692304244772 l -8.981578230905788 -8.866362331288201 a33.62066276023439,33.62066276023439 0 0,0 0.41011477018190357,-0.4083536070246977 l 8.827627660556569 9.01965178896301" fill="#ff950d" stroke="none" /><path d="M 85.31137513191541 84.99185889309783 l -8.822340072859317 -9.014249182320922 a33.61310321380717,33.61310321380717 0 0,0 0.4169893629229396,-0.4011434367516318 l 8.66586746632395 9.164775705834863" fill="#ff950d" stroke="none" /><path d="M 85.83668400450813 84.49514656593479 l -12.888977282540289 -14.109810424648593 a40.11053336799792,40.11053336799792 0 0,0 0.5137758456026951,-0.4612730270078293 l 12.644190449341624 14.329582460425701" fill="#ffea16" stroke="none" /><path d="M 86.10567301691215 84.25364557470407 l -19.237208794795404 -21.801409179802473 a50.07527548347099,50.07527548347099 0 0,0 0.6512318223336722,-0.5647418189828171 l 18.859083173814955 22.129315992204972" fill="#9eff22" stroke="none" /><path d="M 86.93701828274178 83.55741782278169 l -7.884342703974828 -9.92414715333977 a33.67483950962942,33.67483950962942 0 0,0 0.45696347478454835,-0.3566672403038737 l 7.712346674030854 10.058392782866864" fill="#ff960d" stroke="none" /><path d="M 88.09926311788651 82.69761687909137 l -30.472864591627793 -44.30424629825767 a74.77231366118033,74.77231366118033 0 0,0 1.0667349600595906,-0.7202642068345021 l 29.705724937161666 44.82222241739083" fill="#41ffd1" stroke="none" /><line stroke="#e1ed5e" stroke-width="0.3" x1="56.76296977257108" x2="54.21961505331056" y1="26.818313649435495" y2="22.513508569990535" /><path d="M 56.25429882871898 25.957352633546506 a86.0,86.0 0 0,1 42.26535254187918,-11.944610805530505" fill="none" id="id48" stroke="none" /><text fill="#e1ed5e" style="font-size:6.75px; font-family:Arial;" text-anchor="middle"><textPath startOffset="22.20632615414155" xlink:href="#id48">December</textPath></text><path d="M 90.26544431104013 81.39251694778311 l -3.013637623044594 -5.760531121099083 a27.501209927404354,27.501209927404354 0 0,0 0.4213440891791489,-0.21582880757077016 l 2.914033046276681 5.811552453982358" fill="#ff4006" stroke="none" /><path d="M 90.91171255644093 81.06846463323043 l -7.31908579614583 -15.24616518377784 a37.911965282083074,37.911965282083074 0 0,0 0.5907438615595413,-0.27736216401258396 l 7.0555637232866815 15.369892330430432" fill="#ffce13" stroke="none" /><path d="M 91.23893434514133 80.91482961587045 l -6.055810895923851 -13.192023358331893 a35.51558906465612,35.51558906465612 0 0,0 0.5577941117480703,-0.2502659586332663 l 5.827834665709006 13.294309647481688" fill="#ffae10" stroke="none" /><path d="M 91.90106846888425 80.62456947434976 l -10.257005321100086 -24.538285480828208 a47.595744255344684,47.595744255344684 0 0,0 0.7586220638671448,-0.30946098771704145 l 9.83309938764456 24.711207354728824" fill="#baff1f" stroke="none" /><path d="M 92.23578459929587 80.48803036053334 l -3.6422854759577805 -9.153296238885055 a30.851348919064854,30.851348919064854 0 0,0 0.49511542705685035,-0.19209709361838467 l 3.484186883901253 9.21463603639399" fill="#ff6f0a" stroke="none" /><path d="M 92.57280143429618 80.3572730644239 l -8.29404917125643 -21.9352884698045 a44.450972941623505,44.450972941623505 0 0,0 0.7180264599240012,-0.2644552048645727 l 7.915240385559862 22.074806942475394" fill="#dfff1b" stroke="none" /><path d="M 93.25333710446033 80.11325718540243 l -4.848400785719305 -14.291346845184275 a36.09137451752895,36.09137451752895 0 0,0 0.5900375638452507,-0.19452610800020434 l 4.601680399631645 14.372686677443713" fill="#ffb610" stroke="none" /><path d="M 94.28887869178378 79.79150937346287 l -3.56249794461477 -12.605704280389562 a34.09943403395796,34.09943403395796 0 0,0 0.5662164106627418,-0.15476833398295553 l 3.344983644728306 12.665159155198813" fill="#ff9c0e" stroke="none" /><path d="M 94.63758080256005 79.69619591428918 l -6.790345754124808 -25.71038271901762 a47.591964482131075,47.591964482131075 0 0,0 0.7938591489576062,-0.20237237308058026 l 6.346777716482203 25.823458088267063" fill="#baff1f" stroke="none" /><path d="M 94.98787191387505 79.60689891045804 l -6.3536940382617475 -25.851598879323163 a47.62094274343539,47.62094274343539 0 0,0 0.7977104600787606,-0.18879229290935823 l 5.9077598912204525 25.957137084373393" fill="#baff1f" stroke="none" /><path d="M 95.692805502759 79.44645832069477 l -3.24803277618276 -15.499317962953462 a36.835989840609564,36.835989840609564 0 0,0 0.6217101019066349,-0.12470919769749522 l 2.980756264808989 15.552931116728168" fill="#ffc011" stroke="none" /><path d="M 96.04723909329186 79.375362276772 l -0.4339871083300538 -2.264449355049131 a23.30566166030038,23.30566166030038 0 0,0 0.39464795201562186,-0.07211939070462964 l 0.3949440352115386 2.271584227104497" fill="#ff0300" stroke="none" /><path d="M 99.63851952072746 79.00311137660856 l -0.34116649517646985 -19.816934280017446 a40.819870807751535,40.819870807751535 0 0,0 0.7026469744490007,-0.006047904342649198 l 4.854468268845397e-15 19.819870807751535" fill="#fff316" stroke="none" /></svg>