<?xml version="1.0" encoding="utf-8" ?>
<svg baseProfile="full" height="200mm" version="1.1" viewBox="0,0,200,200" width="200mm" xmlns="http://www.w3.org/2000/svg" xmlns:ev="http://www.w3.org/2001/xml-events" xmlns:xlink="http://www.w3.org/1999/xlink"><defs /><rect fill="#1a1a1a" height="200" width="200" x="0" y="0" /><text alignment-baseline="middle" fill="#e1ed5e" style="dominant-baseline: central; font-size:9.0px; font-family:Arial;" text-anchor="middle" x="100.0" y="100.0">2021</text><line stroke="#e1ed5e" stroke-width="0.3" x1="100.0" x2="100.0" y1="15.0" y2="10.0" /><path d="M 100.0 14.0 a86.0,86.0 0 0,1 42.46469731375804,11.215312516191453" fill="none" id="id25" stroke="none" /><text fill="#e1ed5e" style="font-size:6.75px; font-family:Arial;" text-anchor="middle"><textPath startOffset="22.20632615414155" xlink:href="#id25">January</textPath></text><path d="M 100.0 79.0 l 0.0 -11.199777255753446 a32.199777255753446,32.199777255753446 0 0,0 0.5542662340418293,0.004770744464493199 l -0.19278575476930088 11.198117887897512" fill="#ff900d" stroke="none" /><path d="M 100.72285384407766 79.0124445844662 l 0.941633340971665 -27.33966497746651 a48.3558760493781,48.3558760493781 0 0,0 0.8316270449084787,0.03581160992771755 l -1.4121012182694752 27.319405641014594" fill="#a9ff21" stroke="none" /><path d="M 102.88285421437855 79.19881850522331 l 1.5588603350911108 -11.247928040727684 a32.35543617628616,32.35543617628616 0 0,0 0.5510146489714655,0.0812052358984766 l -1.752243964491232 11.21942832066824" fill="#ff920d" stroke="none" /><path d="M 103.95276090670814 79.375362276772 l 1.4343273767174944 -7.484005033318015 a28.620211700624246,28.620211700624246 0 0,0 0.48304592356491627,0.09689446800700846 l -1.562939709749536 7.458206609233798" fill="#ff6008" stroke="none" /><path d="M 104.66035177308747 79.52364482259891 l 1.456607996462572 -6.399950935474239 a27.563617815796125,27.563617815796125 0 0,0 0.46172513567689816,0.10927542187389566 l -1.5665568191019936 6.373929601459475" fill="#ff5207" stroke="none" /><path d="M 107.08798089147638 80.2323363322302 l 2.5924939046672253 -7.230203968217869 a28.680942264316933,28.680942264316933 0 0,0 0.4632896442644098,0.17063348584472512 l -2.7165658747042114 7.184507214566819" fill="#ff6108" stroke="none" /><path d="M 108.43124777332544 80.76684994638697 l 5.1340743022737305 -11.711720980900878 a33.78761616861178,33.78761616861178 0 0,0 0.5306552374661476,0.2380895368221655 l -5.334911658206659 11.621611113562182" fill="#ffa50f" stroke="none" /><path d="M 108.76106565485865 80.91482961587045 l 2.482475491268057 -5.4078430172477665 a26.950416007636946,26.950416007636946 0 0,0 0.4199411110589957,0.19716798243773548 l -2.5751948136266503 5.364310052170028" fill="#ff4906" stroke="none" /><path d="M 109.41281617654863 81.2277094730956 l 5.7037707060133185 -11.375218508876564 a33.7251167535494,33.7251167535494 0 0,0 0.5167001247761559,0.26467387265207415 l -5.89873131837823 11.275352110911989" fill="#ffa40f" stroke="none" /><path d="M 109.73455568895987 81.39251694778311 l 3.5782684839314154 -6.839816042816226 a28.719267377326883,28.719267377326883 0 0,0 0.4360609839685026,0.23292867588775917 l -3.6954745144282293 6.777208640426713" fill="#ff6109" stroke="none" /><path d="M 110.36928655335952 81.73862282372117 l 9.743241690462137 -17.15884796061771 a40.732126646014464,40.732126646014464 0 0,0 0.6067210623099734,0.3514520004247527 l -10.037159485237437 16.988591802802908" fill="#fffc17" stroke="none" /><line stroke="#e1ed5e" stroke-width="0.3" x1="143.23703022742887" x2="145.7803849466894" y1="26.81831364943548" y2="22.513508569990506" /><path d="M 143.74570117128098 25.957352633546492 a86.0,86.0 0 0,1 28.547481713284135,27.462654790039103" fill="none" id="id26" stroke="none" /><text fill="#e1ed5e" style="font-size:6.75px; font-family:Arial;" text-anchor="middle"><textPath startOffset="19.985693538727396" xlink:href="#id26">February</textPath></text><path d="M 112.77801427241765 83.33499621200491 l 5.0625806342993975 -6.602585006478268 a29.32008722589823,29.32008722589823 0 0,0 0.3978700161555641,0.3105438585190375 l -5.175483205614392 6.514462758736004" fill="#ff6a09" stroke="none" /><path d="M 113.6212207817346 84.01681056812373 l 6.379150838267084 -7.4853185258737875 a30.834813615476044,30.834813615476044 0 0,0 0.40100851504560464,0.3477506326440194 l -6.507053151959453 7.374402899810095" fill="#ff7e0b" stroke="none" /><path d="M 113.89432698308785 84.25364557470405 l 7.8884365579000075 -8.93991612932014 a32.9226478488334,32.9226478488334 0 0,0 0.4217062157420333,0.3786120042587 l -8.04115376123803 8.802805116292145" fill="#ff9a0e" stroke="none" /><path d="M 114.16331599549186 84.49514656593476 l 5.970519883844903 -6.53604253083479 a29.8525114881749,29.8525114881749 0 0,0 0.3764147471901181,0.34983648435209297 l -6.082142514829869 6.432301460408056" fill="#ff710a" stroke="none" /><path d="M 114.42810811169701 84.74124197986012 l 7.746285411521027 -8.192251800048142 a32.27465863040365,32.27465863040365 0 0,0 0.40038520856710264,0.3851702534167712 l -7.88615386370055 8.05769845986907" fill="#ff910d" stroke="none" /><path d="M 114.94478906791727 85.2469230424477 l 8.8708678326846 -8.757072128694134 a33.46509560220498,33.46509560220498 0 0,0 0.4011600229365199,0.41343066659763716 l -9.02029211932423 8.603077266546382" fill="#ffa10e" stroke="none" /><path d="M 115.19652480421416 85.50635884689758 l 8.223693784960748 -7.843323931479824 a32.36428043313461,32.36428043313461 0 0,0 0.38102417733251503,0.4064500262358453 l -8.357485284263726 7.700604488365923" fill="#ff920d" stroke="none" /><path d="M 116.15771136456269 86.58626213691792 l 6.814882875416545 -5.657549537549782 a29.85722842516074,29.85722842516074 0 0,0 0.3248772246461113,0.39826106350069124 l -6.911258592139065 5.53940430444099" fill="#ff710a" stroke="none" /><path d="M 116.38621287248628 86.86637796730983 l 4.804571526941037 -3.8508853116280957 a27.157371617890668,27.157371617890668 0 0,0 0.2892207306730735,0.3672809571297538 l -4.870146338208074 3.7676119605453033" fill="#ff4c07" stroke="none" /><path d="M 117.45458315368197 88.32363383020206 l 9.47359021452216 -6.337424807766959 a32.39788860915872,32.39788860915872 0 0,0 0.30608810035029754,0.46619317633101165 l -9.581274950230382 6.173413567458273" fill="#ff930d" stroke="none" /><line stroke="#e1ed5e" stroke-width="0.3" x1="172.23445277983987" x2="176.4835382374775" y1="55.19839476539836" y2="52.563006222186495" /><path d="M 173.08426987136738 54.67131705675599 a86.0,86.0 0 0,1 12.851231095245387,41.99856678651699" fill="none" id="id27" stroke="none" /><text fill="#e1ed5e" style="font-size:6.75px; font-family:Arial;" text-anchor="middle"><textPath startOffset="22.20632615414155" xlink:href="#id27">March</textPath></text><path d="M 118.03404312379186 89.2402003453031 l 2.4036051636039644 -1.434082741836972 a23.79891248397271,23.79891248397271 0 0,0 0.2068695824798393,0.3536071742184468 l -2.427934420554129 1.3924961552646298" fill="#ff1d02" stroke="none" /><path d="M 118.56541770881063 90.18545643968196 l 5.973654978791657 -3.1579519471753086 a27.75701223221556,27.75701223221556 0 0,0 0.21966445698349943,0.42432181309973666 l -6.027128868935273 3.054657411815227" fill="#ff5407" stroke="none" /><path d="M 118.73160827565052 90.50648371742162 l 8.943922647915638 -4.532941007445875 a31.027028797649017,31.027028797649017 0 0,0 0.2373419763880272,0.47846694159455194 l -9.020624637257074 4.378314477352373" fill="#ff810b" stroke="none" /><path d="M 119.04729006885535 91.15688171328212 l 5.5393638836078125 -2.5717700459664705 a27.10725416241612,27.10725416241612 0 0,0 0.19284576025479222,0.42491007004722714 l -5.582811960825952 2.4760379670771804" fill="#ff4b07" stroke="none" /><path d="M 119.196687751892 91.48605970444005 l 5.4033297844448915 -2.396435665181381 a26.91091166038054,26.91091166038054 0 0,0 0.18415942915236252,0.42506535322393285 l -5.443779923439935 2.3030711673708453" fill="#ff4806" stroke="none" /><path d="M 119.34039704204932 91.81776055985345 l 1.4341169853171944 -0.6067242845911626 a22.557178822450375,22.557178822450375 0 0,0 0.14820959440609976,0.35890128873394694 l -1.4443482666094916 0.5819484254039126" fill="#ff0b01" stroke="none" /><path d="M 119.47837535516314 92.15188598940014 l 14.048077972131006 -5.660170088356793 a36.14549504440846,36.14549504440846 0 0,0 0.2275555994090396,0.5791041798202724 l -14.143427121421745 5.4175169036407365" fill="#ffc312" stroke="none" /><path d="M 119.61058180528143 92.48833698450437 l 4.312349484757858 -1.6518080114187816 a25.617881309137193,25.617881309137193 0 0,0 0.15418964998975804,0.41315160370159343 l -4.340143723249241 1.577333270687855" fill="#ff3605" stroke="none" /><path d="M 119.85752413597 93.16781622104841 l 10.10931204690941 -3.478211951818456 a31.690937678405973,31.690937678405973 0 0,0 0.17303660367220036,0.5173574204652498 l -10.167685944353382 3.303681428430892" fill="#ff8a0c" stroke="none" /><path d="M 120.08093135843002 93.85539295169968 l 5.651655774136468 -1.7293622135582651 a26.910322043257306,26.910322043257306 0 0,0 0.13172487680341988,0.4441108006371457 l -5.68058654805159 1.6318220261745895" fill="#ff4806" stroke="none" /><path d="M 120.37134235888165 94.90015583598534 l 4.586597751290287 -1.1482274148911116 a25.7281397111812,25.7281397111812 0 0,0 0.10385249322929715,0.43053563125900834 l -4.605683044780403 1.0691065519726972" fill="#ff3805" stroke="none" /><path d="M 120.53481517161879 95.60439243477599 l 13.743368377220483 -2.9418552592605893 a35.054703366433,35.054703366433 0 0,0 0.1212236780933949,0.5911297060963965 l -13.791971351228876 2.704849897000781" fill="#ffb610" stroke="none" /><path d="M 120.67395015179393 96.31383870115 l 4.668080387857447 -0.8323178269900037 a25.741700905015488,25.741700905015488 0 0,0 0.07402349518843217,0.436890858831933 l -4.681715744566103 0.7518411798422333" fill="#ff3805" stroke="none" /><path d="M 120.83666639777658 97.38593545837742 l 3.7126080251651445 -0.46576533934253594 a24.741710264017446,24.741710264017446 0 0,0 0.049376968726307244,0.4230317140403679 l -3.7200753468950407 0.4017898869773153" fill="#ff2a04" stroke="none" /><path d="M 120.87857604477298 97.74499172005257 l 3.858420411796903 -0.4167319628245648 a24.88085990509972,24.88085990509972 0 0,0 0.04232456339561681,0.42620257737996664 l -3.8650221008747483 0.35025385474016324" fill="#ff2c04" stroke="none" /><path d="M 120.94382443527127 98.46500227214037 l 13.150923911419104 -0.9638468077151731 a34.18619734391525,34.18619734391525 0 0,0 0.03796199608888209,0.587255277117828 l -13.165566498512401 0.7373324663443098" fill="#ffaa0f" stroke="none" /><path d="M 120.98425023603335 99.18683210126433 l 4.272696498190358 -0.16557273165769634 a25.275903377663806,25.275903377663806 0 0,0 0.013105321851695072,0.434901830531011 l -4.274913514497698 0.09200075370168628" fill="#ff3204" stroke="none" /><line stroke="#e1ed5e" stroke-width="0.3" x1="184.98032266829074" x2="189.97916517819016" y1="98.17113171792111" y2="98.06355123074" /><path d="M 185.9800911702706 98.14961562048488 a86.0,86.0 0 0,1 -9.607161424134198,41.387399972396054" fill="none" id="id28" stroke="none" /><text fill="#e1ed5e" style="font-size:6.75px; font-family:Arial;" text-anchor="middle"><textPath startOffset="21.466115282336823" xlink:href="#id28">April</textPath></text><path d="M 120.9904718944345 100.63252640178507 l 7.086928970713106 0.21355735612309346 a28.090145906840494,28.090145906840494 0 0,0 -0.0187239109806796,0.48318094458319855 l -7.082202926881223 -0.3355155477202982" fill="#ff5908" stroke="none" /><path d="M 120.92983693683757 101.71520430193887 l 4.715868414813096 0.386466355035408 a25.73167741392058,25.73167741392058 0 0,0 -0.03997649352843909,0.4411372748988474 l -4.708517325007582 -0.46758501848282596" fill="#ff3805" stroke="none" /><path d="M 120.81339534386255 102.79330883721812 l 24.94825802825052 3.3482374438277116 a46.171934224934255,46.171934224934255 0 0,0 -0.11249670623894402,0.7868017014197825 l -24.886927270994978 -3.7771846172279036" fill="#c1ff1e" stroke="none" /><path d="M 119.67450827220406 107.3425965602758 l 4.97382116303172 1.856247772896047 a26.30891257756273,26.30891257756273 0 0,0 -0.16199489971205713,0.42291756516344126 l -4.941131983726156 -1.941588904892632" fill="#ff4006" stroke="none" /><path d="M 119.54520255179757 107.68017299344265 l 5.939346008426053 2.333831265843287 a27.38142612471806,27.38142612471806 0 0,0 -0.17615043273113387,0.4371909280468222 l -5.898292961437529 -2.435721561732923" fill="#ff4f07" stroke="none" /><path d="M 119.41010516605496 108.01547362559984 l 2.6442314930144044 1.0919450261044206 a23.860822281911858,23.860822281911858 0 0,0 -0.16003682887390105,0.3782797893428991 l -2.625043682948192 -1.1372993411134833" fill="#ff1d03" stroke="none" /><path d="M 119.26925614724726 108.34839909993367 l 4.3368405116473 1.8789347729525308 a25.72637085981151,25.72637085981151 0 0,0 -0.17954423842928405,0.4048248593633694 l -4.303855188486743 -1.9533079688085877" fill="#ff3805" stroke="none" /><path d="M 119.12269723197855 108.67885076344098 l 5.503844752641915 2.49792415023164 a27.04416513023051,27.04416513023051 0 0,0 -0.1960384951998196,0.4222494782571512 l -5.4600316406022635 -2.5922936957676215" fill="#ff4a06" stroke="none" /><line stroke="#e1ed5e" stroke-width="0.3" x1="174.80103733775053" x2="179.2010983576182" y1="140.37084112569926" y2="142.7455964860345" /><path d="M 175.68104954172406 140.8457921977663 a86.0,86.0 0 0,1 -30.038265399797805,32.042727171017184" fill="none" id="id29" stroke="none" /><text fill="#e1ed5e" style="font-size:6.75px; font-family:Arial;" text-anchor="middle"><textPath startOffset="22.206326154141568" xlink:href="#id29">May</textPath></text><path d="M 116.93607887273984 112.41649034213515 l 8.127016369287404 5.958228053723432 a31.077146253123566,31.077146253123566 0 0,0 -0.3200039400241336,0.42869757195882124 l -8.023251162568178 -6.0972385051915685" fill="#ff810b" stroke="none" /><path d="M 114.55890576462653 115.13401014063108 l 2.1407310173052383 2.2252939505232137 a24.087824874355398,24.087824874355398 0 0,0 -0.30128611533156713,0.28488482737713844 l -2.1021090675828633 -2.2618134146462734" fill="#ff2103" stroke="none" /><path d="M 113.75828350139079 115.86535959552629 l 0.5415805520580417 0.6245234158371495 a21.82664320676843,21.82664320676843 0 0,0 -0.2859649084103362,0.24370549882348586 l -0.5307501670706581 -0.6337533048835822" fill="#ff0000" stroke="none" /><path d="M 112.04921762599082 117.19931262002967 l 7.14468344233358 10.198474947516779 a33.45212402549392,33.45212402549392 0 0,0 -0.4744516588445145,0.32633217723445973 l -6.968074898866182 -10.319947914116332" fill="#ffa10e" stroke="none" /><path d="M 111.7513745106137 117.40417183066458 l 5.360920543433767 7.93969949848772 a30.580099018240695,30.580099018240695 0 0,0 -0.4387884547253859,0.2908050613888618 l -5.2234573899684165 -8.0308025809679" fill="#ff7b0b" stroke="none" /><path d="M 111.1453310114006 117.79835938074945 l 12.518039750930514 19.99048480495242 a44.58645378056884,44.58645378056884 0 0,0 -0.65397881741295,0.4017272037384327 l -12.172081733585257 -20.20300047551923" fill="#d4ff1c" stroke="none" /><line stroke="#e1ed5e" stroke-width="0.3" x1="143.8653032363475" x2="146.44561519142675" y1="172.8068346515853" y2="177.08958963109032" /><path d="M 144.38136562736335 173.6633856474863 a86.0,86.0 0 0,1 -40.68145358897372,12.25698825130547" fill="none" id="id30" stroke="none" /><text fill="#e1ed5e" style="font-size:6.75px; font-family:Arial;" text-anchor="middle"><textPath startOffset="21.466115282336833" xlink:href="#id30">June</textPath></text><path d="M 110.21172684928248 118.3499491758327 l 6.029037020095056 10.83387017013009 a33.398468867279995,33.398468867279995 0 0,0 -0.5047577208090364,0.27523415497109865 l -5.84165648741737 -10.936044976860959" fill="#ffa00e" stroke="none" /><path d="M 107.93186726928326 119.44442032107085 l 3.1220745326979777 7.653548329355228 a29.265842450561074,29.265842450561074 0 0,0 -0.4680847462391774,0.1862605806967768 l -2.989868710416934 -7.706155754458074" fill="#ff6909" stroke="none" /><path d="M 105.88484417918355 120.15858648285463 l 2.3145250941610076 7.928426455610093 a29.25935666220554,29.25935666220554 0 0,0 -0.4846865820996268,0.1369772695047652 l -2.1777073439567753 -7.967092518453377" fill="#ff6909" stroke="none" /><path d="M 103.41894727170886 120.7198165907248 l 1.3468890444275665 8.16254003082274 a29.272917856039832,29.272917856039832 0 0,0 -0.4978684012243469,0.07775680509043016 l -1.2061847795947025 -8.184515143260276" fill="#ff6909" stroke="none" /><path d="M 100.90346689309514 120.98055641714683 l 0.3555642665962605 8.257011089457471 a29.264663216314613,29.264663216314613 0 0,0 -0.5034632016738039,0.017340290637765775 l -0.21338071324780428 -8.261908178521331" fill="#ff6909" stroke="none" /><line stroke="#e1ed5e" stroke-width="0.3" x1="102.19456741930631" x2="102.32365962044197" y1="184.97166512339345" y2="189.96999836594603" /><path d="M 102.22038585953345 185.97133177190398 a86.0,86.0 0 0,1 -42.740103519485714,-10.115201625700543" fill="none" id="id31" stroke="none" /><text fill="#e1ed5e" style="font-size:6.75px; font-family:Arial;" text-anchor="middle"><textPath startOffset="22.20632615414155" xlink:href="#id31">July</textPath></text><path d="M 98.73552117531835 120.96189622390904 l -0.5212873096463413 8.641639760474773 a29.657348220385778,29.657348220385778 0 0,0 -0.5093116278484685,-0.03512511178561897 l 0.6699616982737399 -8.631386304172867" fill="#ff6e0a" stroke="none" /><path d="M 95.86986931433489 120.58985236759428 l -1.717392828796717 8.561681819129927 a29.732229595035985,29.732229595035985 0 0,0 -0.5009293667364579,-0.10497461924463099 l 1.8645136569625618 -8.530851219158755" fill="#ff6f0a" stroke="none" /><path d="M 95.16358092515715 120.4354850818985 l -0.7251301704179023 3.0639170325600973 a24.148555438048085,24.148555438048085 0 0,0 -0.40367957451063147,-0.09921461793946086 l 0.7777630296717443 -3.0509811563066065" fill="#ff2203" stroke="none" /><path d="M 94.11515582081647 120.15858648285463 l -2.9838669814001677 10.221263089796025 a31.647895628410186,31.647895628410186 0 0,0 -0.5216251753950433,-0.15716138638996557 l 3.1593671312354568 -10.168386334300335" fill="#ff890c" stroke="none" /><path d="M 93.42475214034765 119.94407469862007 l -2.163113716690281 6.561167345798221 a27.908543832885663,27.908543832885663 0 0,0 -0.4549494887449947,-0.1543435676559119 l 2.2757329383725016 -6.522960791244186" fill="#ff5608" stroke="none" /><path d="M 92.40401165467489 119.57807347666478 l -1.071268316743294 2.761111374180963 a23.961646809984185,23.961646809984185 0 0,0 -0.3832481974667872,-0.15250236711341403 l 1.1186375902519394 -2.7422621626614827" fill="#ff1f03" stroke="none" /><path d="M 91.7346041902142 119.30500536409082 l -3.251962811515177 7.595420832211946 a29.262304747821695,29.262304747821695 0 0,0 -0.4613401958984915,-0.20223798434328447 l 3.382223682071412 -7.53831829457421" fill="#ff6909" stroke="none" /><path d="M 90.7491055286396 118.85261126421891 l -2.9126954094610733 5.935849171736305 a27.61196641990098,27.61196641990098 0 0,0 -0.4248904309421828,-0.21304888265506686 l 3.0144397480860166 -5.884832448171936" fill="#ff5207" stroke="none" /><line stroke="#e1ed5e" stroke-width="0.3" x1="58.666819895761336" x2="56.23545636021788" y1="174.27360380694188" y2="178.64263932499728" /><path d="M 58.180547188652646 175.14741091055294 a86.0,86.0 0 0,1 -31.652253787137756,-30.449443065178592" fill="none" id="id32" stroke="none" /><text fill="#e1ed5e" style="font-size:6.75px; font-family:Arial;" text-anchor="middle"><textPath startOffset="22.20632615414155" xlink:href="#id32">August</textPath></text><path d="M 89.1626897886671 117.98757091392108 l -4.416004354661468 7.329603927235722 a29.55711330943668,29.55711330943668 0 0,0 -0.43353360425067106,-0.2663117488288507 l 4.5415171588444485 -7.252503711578493" fill="#ff6d0a" stroke="none" /><path d="M 87.95078237400918 117.19931262002967 l -4.9893362094576235 7.121885909653743 a29.695673333395725,29.695673333395725 0 0,0 -0.41612500681642767,-0.2968941435593349 l 5.111188544122935 -7.03494750425019" fill="#ff6f0a" stroke="none" /><path d="M 87.07902340077011 116.55440617244103 l -2.179596273474897 2.792507340752623 a24.54241967636571,24.54241967636571 0 0,0 -0.33078799999911407,-0.2627979930222774 l 2.2273417661913695 -2.7545754337252153" fill="#ff2703" stroke="none" /><path d="M 86.24171649860922 115.8653595955263 l -1.9364788213031092 2.2330498456431034 a23.955750638751883,23.955750638751883 0 0,0 -0.3092090191665045,-0.27284100829824576 l 1.9746301933762014 -2.199385695572569" fill="#ff1f03" stroke="none" /><path d="M 85.97065885151581 115.62618273729859 l -6.26697912958615 6.980296512379728 a30.380808430588964,30.380808430588964 0 0,0 -0.3861262598897764,-0.3527171834440502 l 6.386204938942783 -6.871386562349099" fill="#ff780b" stroke="none" /><path d="M 85.18274418774928 114.88116024355367 l -5.830994884308872 5.856143023528011 a29.264073599191384,29.264073599191384 0 0,0 -0.35389932569426263,-0.358498148487688 l 5.930934835058668 -5.754904381059658" fill="#ff6909" stroke="none" /><path d="M 84.9287848128048 114.62390073753433 l -3.720798373620922 3.610364884607417 a26.184503364561202,26.184503364561202 0 0,0 -0.3110886688025555,-0.326175225523371 l 3.7823935938024347 -3.5457825425015455" fill="#ff3e05" stroke="none" /><path d="M 84.19399662182784 113.82643327865904 l -4.546136096902986 3.976770465982362 a27.040037810367902,27.040037810367902 0 0,0 -0.3034374976905948,-0.3529663620647596 l 4.613916104164362 -3.897927004756072" fill="#ff4a06" stroke="none" /><path d="M 83.72743513129214 113.27417163493432 l -5.944986309791199 4.849559321484491 a28.672098007468485,28.672098007468485 0 0,0 -0.3086784658712446,-0.3851238476582429 l 6.027582687717304 -4.746507640247988" fill="#ff6108" stroke="none" /><path d="M 82.24976979558568 111.22182372390057 l -6.986695539565679 4.4170393766538405 a29.265842450561074,29.265842450561074 0 0,0 -0.26553227793992795,-0.42812257935707376 l 7.061692457173563 -4.296120465931502" fill="#ff6909" stroke="none" /><line stroke="#e1ed5e" stroke-width="0.3" x1="26.63291911575756" x2="22.317208475507996" y1="142.92168965132927" y2="145.44649492493687" /><path d="M 25.769776987707644 143.4266507060508 a86.0,86.0 0 0,1 -11.730757126820373,-40.83630448921669" fill="none" id="id33" stroke="none" /><text fill="#e1ed5e" style="font-size:6.75px; font-family:Arial;" text-anchor="middle"><textPath startOffset="21.46611528233685" xlink:href="#id33">September</textPath></text><path d="M 81.18737489456691 109.33194174019688 l -8.24417971096406 4.089498638667454 a30.202744059373508,30.202744059373508 0 0,0 -0.22701927576529768,-0.4677269489648644 l 8.313352243344076 -3.9469827337373045" fill="#ff760a" stroke="none" /><path d="M 80.87730276802145 108.67885076344099 l -4.029495158382361 1.8287894593199188 a25.42507650984099,25.42507650984099 0 0,0 -0.17744150637650058,-0.4000837536894018 l 4.060377749490142 -1.759157369137821" fill="#ff3404" stroke="none" /><path d="M 80.20201598880116 107.00284435728193 l -3.950554680930757 1.397370537315352 a25.19040889479546,25.19040889479546 0 0,0 -0.14107728849129528,-0.41003663717063166 l 3.974022800365281 -1.3291611970554233" fill="#ff3004" stroke="none" /><path d="M 80.0844068197444 106.66101706037122 l -4.485663557693861 1.5002857918641623 a25.72990856255089,25.72990856255089 0 0,0 -0.13686810319429962,-0.4212367079655015 l 4.51082391190441 -1.4228501839208576" fill="#ff3805" stroke="none" /><path d="M 79.97269907076064 106.31721596034903 l -5.714722440374536 1.8025961629503464 a26.992278823386275,26.992278823386275 0 0,0 -0.13595525945542838,-0.4443096542190087 l 5.744904472336095 -1.7039595361792899" fill="#ff4a06" stroke="none" /><path d="M 79.76711848015287 105.62410040840567 l -8.527429863482816 2.370355489445223 a29.85074263680521,29.85074263680521 0 0,0 -0.13335026616120788,-0.49624594790248666 l 8.566968205985797 -2.2232186083671976" fill="#ff710a" stroke="none" /><path d="M 79.67330655649465 105.27499134158121 l -6.284688154307879 1.6309428629231613 a27.492863761008525,27.492863761008525 0 0,0 -0.11493154170685183,-0.45909437791552415 l 6.311831010309792 -1.5225206456102454" fill="#ff5107" stroke="none" /><path d="M 79.50377843672027 104.57218783832718 l -1.021463746263087 0.22786268696096562 a22.046570393733212,22.046570393733212 0 0,0 -0.07943690198433849,-0.3711027601644493 l 1.025234686971866 -0.21024610738035254" fill="#ff0300" stroke="none" /><path d="M 79.4281124754447 104.21870165774334 l -6.940405633044476 1.4232773105815868 a28.084839352731425,28.084839352731425 0 0,0 -0.09304115029224598,-0.4744148208515799 l 6.963876716312388 -1.303598762662052" fill="#ff5908" stroke="none" /><path d="M 79.35854240842038 103.8639653848113 l -5.543398867470705 1.0376932560637921 a26.639687783694747,26.639687783694747 0 0,0 -0.08049442689755641,-0.4514554937399254 l 5.56043973670745 -0.9421190115906531" fill="#ff4506" stroke="none" /><path d="M 79.29508885075956 103.50808413554451 l -4.659956605274116 0.789547934857363 a25.72637085981151,25.72637085981151 0 0,0 -0.07021859258739084,-0.4372512430705707 l 4.672856952222798 -0.7092174620935785" fill="#ff3805" stroke="none" /><path d="M 79.23777060512086 103.15116336523772 l -1.3174471946137138 0.19995402499145318 a22.332534698499753,22.332534698499753 0 0,0 -0.05441263481207004,-0.3805618411434741 l 1.320693880442383 -0.17724671186757848" fill="#ff0701" stroke="none" /><path d="M 79.18660465613746 102.79330883721812 l -5.901631636543194 0.7920418332525108 a26.954543327499557,26.954543327499557 0 0,0 -0.0577577985084724,-0.4603864825173756 l 5.914390944298515 -0.6903375964477265" fill="#ff4906" stroke="none" /><path d="M 79.0095281055655 100.63252640178507 l -12.572595071286708 0.37886229340324235 a33.57830208986513,33.57830208986513 0 0,0 -0.012436663276135912,-0.5778828735120409 l 12.57725379724785 -0.16238960410107253" fill="#ffa20f" stroke="none" /><line stroke="#e1ed5e" stroke-width="0.3" x1="15.007084014347285" x2="10.007500721073583" y1="101.09737516637583" y2="101.16192664675087" /><path d="M 14.007167355692545 101.11028546245083 a86.0,86.0 0 0,1 10.666146001902534,-42.60595125391555" fill="none" id="id34" stroke="none" /><text fill="#e1ed5e" style="font-size:6.75px; font-family:Arial;" text-anchor="middle"><textPath startOffset="22.20632615414155" xlink:href="#id34">October</textPath></text><path d="M 79.00175016825051 100.2711162175752 l -8.113045024325118 0.10475054338512443 a29.113721232767737,29.113721232767737 0 0,0 -0.002156775954022402,-0.5011587752317116 l 8.113646097568642 0.03491771005026258" fill="#ff6709" stroke="none" /><path d="M 79.01574976396665 99.18683210126434 l -5.89528421964875 -0.22845018656465535 a26.89970893503917,26.89970893503917 0 0,0 0.021912236164172982,-0.4625326729293547 l 5.890478375251078 0.3298939661170191" fill="#ff4806" stroke="none" /><path d="M 79.03285615573316 98.82574320788736 l -6.488592109935777 -0.3633910947973001 a27.498759932240826,27.498759932240826 0 0,0 0.03053594427292282,-0.47237754237325436 l 6.481375574658441 0.4750277014235662" fill="#ff5107" stroke="none" /><path d="M 79.16333360222342 97.38593545837743 l -7.6375823776443355 -0.9581731019723876 a28.69745154376737,28.69745154376737 0 0,0 0.06570896605087036,-0.4896081198866702 l 7.619957412535632 1.0894995639237173" fill="#ff6109" stroke="none" /><path d="M 79.21141760316559 97.0276538004421 l -14.512648112239448 -2.0750147190654396 a35.660240151990195,35.660240151990195 0 0,0 0.09211227937069666,-0.6069048325063073 l 14.47477993942945 2.324518663963839" fill="#ffbd11" stroke="none" /><path d="M 79.3925641242962 95.95851677861259 l -5.79347271635922 -1.1362026269525816 a26.903836254901776,26.903836254901776 0 0,0 0.09303693006755535,-0.45368111240258835 l 5.77305649037667 1.2357593955185724" fill="#ff4806" stroke="none" /><path d="M 79.46518482838121 95.60439243477599 l -5.194770695924679 -1.111973649617731 a26.31245028030211,26.31245028030211 0 0,0 0.09861607279950407,-0.442076517691518 l 5.174860236123138 1.2012283368592083" fill="#ff4006" stroke="none" /><path d="M 79.81627453868168 94.20196356495316 l -5.907832677916784 -1.6971014188816942 a27.14675850967253,27.14675850967253 0 0,0 0.13288222320604395,-0.4480127973590864 l 5.8777445575990335 1.7985436029873199" fill="#ff4c07" stroke="none" /><path d="M 80.02781315780177 93.51064311812611 l -2.289579842863162 -0.7439295870440836 a23.407406714148003,23.407406714148003 0 0,0 0.12780745712519023,-0.38212802916412203 l 2.2764350919661998 0.7832307191305278" fill="#ff1702" stroke="none" /><path d="M 80.38941819471856 92.48833698450439 l -1.1452613544811494 -0.43868241365565164 a22.226403616318358,22.226403616318358 0 0,0 0.13992732957191398,-0.3560997911570816 l 1.1375404750275444 0.45833120970849667" fill="#ff0600" stroke="none" /><path d="M 80.52162464483688 92.15188598940014 l -0.861905667617023 -0.34727403197143747 a21.929236586210447,21.929236586210447 0 0,0 0.1440837653351761,-0.34891026638088224 l 0.8558002153956449 0.362058868805631" fill="#ff0100" stroke="none" /><path d="M 80.65960295795067 91.81776055985345 l -2.7254195945880326 -1.15302884678646 a23.959288341491263,23.959288341491263 0 0,0 0.16396058667763336,-0.37844363990328433 l 2.7051682980677207 1.1997716312763436" fill="#ff1f03" stroke="none" /><path d="M 80.95270993114464 91.15688171328213 l -4.2783270002763585 -1.9863062722274323 a25.71693698583983,25.71693698583983 0 0,0 0.18986668376868904,-0.3999076580581194 l 4.243502122665918 2.059656345926084" fill="#ff3805" stroke="none" /><line stroke="#e1ed5e" stroke-width="0.3" x1="26.266209847984243" x2="21.928928074336255" y1="57.711370442889674" y2="55.22380399835377" /><path d="M 25.398753493254645 57.213857153982495 a86.0,86.0 0 0,1 29.58750427330803,-30.492523968695096" fill="none" id="id35" stroke="none" /><text fill="#e1ed5e" style="font-size:6.75px; font-family:Arial;" text-anchor="middle"><textPath startOffset="21.46611528233685" xlink:href="#id35">November</textPath></text><path d="M 81.96595687620814 89.24020034530311 l -3.2132459170488215 -1.917145371750035 a24.741710264017446,24.741710264017446 0 0,0 0.2213607848565987,-0.3638589274048519 l 3.1797693339060036 1.9721720723619613" fill="#ff2a04" stroke="none" /><path d="M 82.15384107792192 88.93136811851018 l -7.024955257069361 -4.357052072882871 a29.266432067684303,29.266432067684303 0 0,0 0.26921271580089606,-0.42582986482347873 l 6.948914945022502 4.477329585420565" fill="#ff6909" stroke="none" /><path d="M 82.54541684631803 88.32363383020206 l -5.712284286403717 -3.821272751504405 a27.87257718836863,27.87257718836863 0 0,0 0.27019879972911537,-0.39648339782178066 l 5.6456610210058615 3.9190341725966014" fill="#ff5607" stroke="none" /><path d="M 82.7489923806493 88.02491185347247 l -2.758411077095778 -1.9147992118168882 a24.35786951679473,24.35786951679473 0 0,0 0.24205618936280315,-0.34237131379685737 l 2.7250422679290964 1.9619970259455317" fill="#ff2403" stroke="none" /><path d="M 82.95767976084542 87.72973835380427 l -10.063277249660551 -7.245436251564615 a33.400237718649684,33.400237718649684 0 0,0 0.33994664530513263,-0.4636868421564772 l 9.937067991841785 7.417585537392595" fill="#ffa00e" stroke="none" /><path d="M 83.17141714833178 87.43820079747577 l -2.3709860293405964 -1.7698371083940874 a23.958698724368034,23.958698724368034 0 0,0 0.2495401834257734,-0.32836563061680973 l 2.3401699056907144 1.8103875148919213" fill="#ff1f03" stroke="none" /><path d="M 83.6137871275137 86.86637796730984 l -6.045395945993035 -4.845411567058616 a28.74756899924192,28.74756899924192 0 0,0 0.31280299359355856,-0.38345948390340967 l 5.961094460323084 4.948755220570108" fill="#ff6209" stroke="none" /><path d="M 84.07557802195018 86.31012108654704 l -7.933074314870643 -6.8198912922365915 a31.46157661746951,31.46157661746951 0 0,0 0.3565767247441339,-0.4076288369020325 l 7.814505726548666 6.955435685341567" fill="#ff860c" stroke="none" /><path d="M 84.5562425177563 85.77008943001954 l -10.039475811277272 -9.250394091477439 a34.6514052541437,34.6514052541437 0 0,0 0.40795046278423236,-0.4351731101747769 l 9.878758026522581 9.421836618530266" fill="#ffb010" stroke="none" /><path d="M 85.31137513191541 84.99185889309783 l -4.133199143499996 -4.223107099927193 a26.909142809010845,26.909142809010845 0 0,0 0.3338229810368321,-0.3211374432698338 l 4.059892918850736 4.293627629959336" fill="#ff4806" stroke="none" /><path d="M 85.57189188830299 84.74124197986013 l -3.334767362600207 -3.526755403095716 a25.853728158429185,25.853728158429185 0 0,0 0.3259934948029991,-0.30297542536486244 l 3.2735659840023517 3.583635414535228" fill="#ff3a05" stroke="none" /><path d="M 86.37877921826538 84.01681056812374 l -7.221290535261342 -8.473488273713956 a32.13315052082846,32.13315052082846 0 0,0 0.42406954669552593,-0.35514604977022385 l 7.074363451606706 8.596535480877993" fill="#ff8f0d" stroke="none" /><path d="M 86.65592168130627 83.78471172551755 l -4.50305975663918 -5.471971186562472 a28.086608204101115,28.086608204101115 0 0,0 0.375954767239202,-0.30399594253920287 l 4.4082015908354775 5.548673226365811" fill="#ff5908" stroke="none" /><path d="M 86.93701828274178 83.55741782278169 l -9.491258904038645 -11.946798049080162 a36.25811191494539,36.25811191494539 0 0,0 0.49201816700693196,-0.3840279836117587 l 9.284208181872287 12.10840442191514" fill="#ffc512" stroke="none" /><path d="M 87.22198572758235 83.33499621200491 l -5.402334291778072 -7.045689534940807 a29.87845464159702,29.87845464159702 0 0,0 0.41083422369126793,-0.3094318197975789 l 5.280253914328414 7.13763794424424" fill="#ff710a" stroke="none" /><path d="M 87.51073957382395 83.11751280151077 l -6.01068085705295 -8.125000132971875 a31.106627109285064,31.106627109285064 0 0,0 0.43320375193080196,-0.314740949069213 l 5.869931788768366 8.227260316857755" fill="#ff820b" stroke="none" /><path d="M 87.80319425747018 82.90503203632743 l -4.116931332161093 -5.77026565131929 a28.088377055470804,28.088377055470804 0 0,0 0.3960044659884622,-0.2774264354031497 l 4.016995726588971 5.840276929486382" fill="#ff5908" stroke="none" /><path d="M 88.09926311788651 82.69761687909137 l -5.047808554448478 -7.3389671912951915 a29.90734588063529,29.90734588063529 0 0,0 0.4266714489808691,-0.28809046697219515 l 4.920732411061069 7.424769570566053" fill="#ff720a" stroke="none" /><path d="M 88.39885842347998 82.49532879139004 l -7.841185631261872 -11.831368099042601 a35.19385300751528,35.19385300751528 0 0,0 0.5078522833799032,-0.33032125194059264 l 7.6363663220976825 11.964588275142729" fill="#ffb711" stroke="none" /><path d="M 88.70189139769569 82.29822771554957 l -3.811997428349098 -5.972602388667393 a28.085428969854654,28.085428969854654 0 0,0 0.40975416827491673,-0.25658802258283436 l 3.708624107701939 6.037334752573157" fill="#ff5908" stroke="none" /><path d="M 89.00827224532344 82.1063720568725 l -4.018473371589161 -6.541743847320886 a28.677404561577553,28.677404561577553 0 0,0 0.4228386806994049,-0.25475557394710246 l 3.9052726246721097 6.609946030726608" fill="#ff6108" stroke="none" /><line stroke="#e1ed5e" stroke-width="0.3" x1="56.76296977257108" x2="54.21961505331056" y1="26.818313649435495" y2="22.513508569990535" /><path d="M 56.25429882871898 25.957352633546506 a86.0,86.0 0 0,1 42.26535254187918,-11.944610805530505" fill="none" id="id36" stroke="none" /><text fill="#e1ed5e" style="font-size:6.75px; font-family:Arial;" text-anchor="middle"><textPath startOffset="22.20632615414155" xlink:href="#id36">December</textPath></text><path d="M 90.91171255644093 81.06846463323043 l -4.848266097790966 -10.099275762111628 a32.2027253413696,32.2027253413696 0 0,0 0.501782542249066,-0.23559363175525647 l 4.673705344242292 10.181234376506891" fill="#ff900d" stroke="none" /><path d="M 91.23893434514133 80.91482961587045 l -3.696654942803849 -8.05282053737608 a29.86076612790012,29.86076612790012 0 0,0 0.46898164882205323,-0.21041839533951848 l 3.5574911755150214 8.115259263232128" fill="#ff710a" stroke="none" /><path d="M 91.90106846888425 80.62456947434976 l -6.81089754382294 -16.294010101290866 a38.66021207498432,38.66021207498432 0 0,0 0.6161998374586343,-0.2513633855558732 l 6.529413836775926 16.408834373030313" fill="#ffe315" stroke="none" /><path d="M 92.57280143429618 80.3572730644239 l -4.800024050352471 -12.694633228287326 a34.57180694250765,34.57180694250765 0 0,0 0.558446092613201,-0.20568040882988586 l 4.580795631966701 12.775376904923533" fill="#ffaf10" stroke="none" /><path d="M 92.91201910852362 80.23233633223022 l -2.390101465805895 -6.66575187366981 a28.081301649992046,28.081301649992046 0 0,0 0.45641207630807834,-0.15923321153785094 l 2.275007385434532 6.70590593837987" fill="#ff5908" stroke="none" /><path d="M 93.25333710446033 80.11325718540243 l -2.1903339215470017 -6.456318931347747 a27.817742795908245,27.817742795908245 0 0,0 0.4547766165846556,-0.14993270031349432 l 2.078874482719937 6.493065355920475" fill="#ff5507" stroke="none" /><path d="M 93.59665428221793 80.00007090966166 l -4.723178373738255 -14.752168119466123 a36.48983144437477,36.48983144437477 0 0,0 0.5998487410437223,-0.18637592375633463 l 4.468544259983805 14.831284178104983" fill="#ffc812" stroke="none" /><path d="M 94.28887869178378 79.79150937346287 l -1.6966759041891615 -6.003594960721839 a27.238738780896405,27.238738780896405 0 0,0 0.4522955098943916,-0.12362944841600755 l 1.5930825050710473 6.031910949964142" fill="#ff4d07" stroke="none" /><path d="M 94.63758080256005 79.69619591428918 l -1.68100993943089 -6.364831845416281 a27.583075180862714,27.583075180862714 0 0,0 0.4601002885042672,-0.11728980810000154 l 1.5712007622416233 6.392824649685145" fill="#ff5207" stroke="none" /><path d="M 94.98787191387505 79.60689891045804 l -2.165906935213687 -8.812535977008869 a30.0747971436326,30.0747971436326 0 0,0 0.5037905359303233,-0.11923094303530815 l 2.0138927123208297 8.84851283218505" fill="#ff740a" stroke="none" /><path d="M 96.40284397218896 79.31037775812273 l -1.2139883982336368 -6.982449794027968 a28.087197821224343,28.087197821224343 0 0,0 0.47704205448715464,-0.07871602644442947 l 1.0936171376075965 7.002312083412025" fill="#ff5908" stroke="none" /><path d="M 96.75951476605007 79.25152402106235 l -1.053129647904154 -6.743075072004508 a27.824818201387004,27.824818201387004 0 0,0 0.47385800489283453,-0.06983435221101725 l 0.9369026625826707 6.760203908376495" fill="#ff5507" stroke="none" /><path d="M 97.11714578562143 79.19881850522333 l -1.376174433626831 -9.929761282956127 a31.0246703291561,31.0246703291561 0 0,0 0.5296136840905588,-0.06875905620946571 l 1.2050460210284144 9.95197866232973" fill="#ff810b" stroke="none" /><path d="M 98.91598698831166 79.02799685794201 l -0.08235938220185421 -1.5933768356018931 a22.59550393546032,22.59550393546032 0 0,0 0.3885987330035524,-0.01673387888228405 l 0.05491981680897767 1.5945584410083697" fill="#ff0b01" stroke="none" /><path d="M 99.27714615592234 79.0124445844662 l -0.23717404997402564 -6.886182535707249 a27.89026570206553,27.89026570206553 0 0,0 0.4799428172411562,-0.012395507000104541 l 0.11860459753799041 6.8892448348497135" fill="#ff5608" stroke="none" /><path d="M 99.63851952072746 79.00311137660856 l -1.0844414378176228 -62.990665870174325 a84.0,84.0 0 0,0 1.445921917090143,-0.012445506434235476 l 1.543054966925665e-14 63.0" fill="#4dd2ff" stroke="none" /></svg>