<?xml version="1.0" encoding="utf-8" ?>
<svg baseProfile="full" height="200mm" version="1.1" viewBox="0,0,200,200" width="200mm" xmlns="http://www.w3.org/2000/svg" xmlns:ev="http://www.w3.org/2001/xml-events" xmlns:xlink="http://www.w3.org/1999/xlink"><defs /><rect fill="#1a1a1a" height="200" width="200" x="0" y="0" /><text alignment-baseline="middle" fill="#e1ed5e" style="dominant-baseline: central; font-size:9.0px; font-family:Arial;" text-anchor="middle" x="100.0" y="100.0">2016</text><line stroke="#e1ed5e" stroke-width="0.3" x1="100.0" x2="100.0" y1="15.0" y2="10.0" /><path d="M 100.0 14.0 a86.0,86.0 0 0,1 42.35913384403234,11.155469271406648" fill="none" id="id37" stroke="none" /><text fill="#e1ed5e" style="font-size:6.75px; font-family:Arial;" text-anchor="middle"><textPath startOffset="22.145653131862478" xlink:href="#id37">January</textPath></text><path d="M 100.0 79.0 l 0.0 -14.641030401485267 a35.64103040148527,35.64103040148527 0 0,0 0.6118256806694465,0.005251787624864561 l -0.2513327558205917 14.638873012054837" fill="#ffb510" stroke="none" /><path d="M 100.36049292484886 79.00309439819443 l 1.0814787745465644 -62.990716805416696 a84.0,84.0 0 0,0 1.4415467437170346,0.03712913059981959 l -2.1626388323343404 62.96286995746683" fill="#4dd2ff" stroke="none" /><path d="M 101.44090949804482 79.04949213459386 l 0.6029147888082622 -8.766248707664717 a29.786957530749596,29.786957530749596 0 0,0 0.5098264803745122,0.03946379394899794 l -0.7533102639580079 8.754607146720666" fill="#ff6609" stroke="none" /><path d="M 101.80034050326958 79.07731436759882 l 0.6342345982741298 -7.370767414709912 a28.39800417730332,28.39800417730332 0 0,0 0.4853360046775423,0.045961824244904755 l -0.760670166336685 7.358793834959823" fill="#ff5307" stroke="none" /><path d="M 102.51750503828377 79.15144685158666 l 0.8781179096171986 -7.272075976343757 a28.3249013692272,28.3249013692272 0 0,0 0.48222763963117166,0.062434022483938846 l -1.0028233711391619 7.255930357659421" fill="#ff5207" stroke="none" /><path d="M 103.23170211078529 79.25015418208739 l 2.258741528673029 -14.502740925924215 a35.677581805523324,35.677581805523324 0 0,0 0.6043484992804332,0.09944531557501987 l -2.507367531006533 14.461829611853528" fill="#ffb510" stroke="none" /><path d="M 108.07796709384702 80.6158196554323 l 3.9424378738362242 -9.460415703092565 a31.249013692271987,31.249013692271987 0 0,0 0.4933846131369698,0.21059655288556905 l -4.104257562143624 9.391344500547595" fill="#ff7a0b" stroke="none" /><line stroke="#e1ed5e" stroke-width="0.3" x1="143.13028292997686" x2="145.6673583964461" y1="26.7553504044142" y2="22.446841604673864" /><path d="M 143.63769802327073 25.89364864446614 a86.0,86.0 0 0,1 29.32050498858742,28.57503671076993" fill="none" id="id38" stroke="none" /><text fill="#e1ed5e" style="font-size:6.75px; font-family:Arial;" text-anchor="middle"><textPath startOffset="20.669276256404974" xlink:href="#id38">February</textPath></text><path d="M 110.96478420261332 82.08984904055464 l 7.641505444522581 -12.481824862198746 a35.63518217683917,35.63518217683917 0 0,0 0.518976999370996,0.3238800309804178 l -7.854646572683289 12.348809034376782" fill="#ffb510" stroke="none" /><path d="M 114.91283532996326 85.21462403516908 l 5.191286376176579 -5.146916673763373 a28.310280807611974,28.310280807611974 0 0,0 0.3392019197296204,0.3480510517007427 l -5.278875097057011 5.057042929994891" fill="#ff5207" stroke="none" /><path d="M 115.41159269507618 85.73525988315684 l 10.740546034651604 -9.9412890626317 a35.63518217683917,35.63518217683917 0 0,0 0.41167510128665386,0.4525030511771418 l -10.909618836780137 9.755448435896886" fill="#ffb510" stroke="none" /><path d="M 116.1254893667686 86.54754324733833 l 5.6471022173250915 -4.711013515842764 a28.354142492457648,28.354142492457648 0 0,0 0.3085918787815421,0.376431915775854 l -5.727140915345261 4.613379318368415" fill="#ff5207" stroke="none" /><path d="M 116.57777611688842 87.10902102172516 l 11.553274931310257 -8.98389646594555 a35.63518217683917,35.63518217683917 0 0,0 0.37136615028668113,0.4861302117388422 l -11.705793058951246 8.784245340965827" fill="#ffb510" stroke="none" /><path d="M 116.7966241395341 87.39550010848427 l 7.051541672874727 -5.2916083322701235 a29.81619865398004,29.81619865398004 0 0,0 0.30369641313208495,0.41202251099861287 l -7.141340105590637 5.169779512002635" fill="#ff6709" stroke="none" /><path d="M 117.21940702142032 87.97951657250589 l 6.018200736657926 -4.201171511210521 a28.339521930842423,28.339521930842423 0 0,0 0.2750421630120411,0.4012947355691963 l -6.089432636485292 4.097242040571276" fill="#ff5207" stroke="none" /><path d="M 117.62189284568427 88.57770195909679 l 10.551052109971087 -6.839064503488118 a33.573682989092596,33.573682989092596 0 0,0 0.3093292231119156,0.48631691695025037 l -10.666899024708894 6.656933911859197" fill="#ff9a0e" stroke="none" /><path d="M 117.81537515405839 88.88188828441811 l 12.676245120061035 -7.9109144859536045 a35.94221397075888,35.94221397075888 0 0,0 0.32216552846168667,0.5262331790627545 l -12.810178612978124 7.692144190766295" fill="#ffb911" stroke="none" /><line stroke="#e1ed5e" stroke-width="0.3" x1="172.87174338648825" x2="177.1583165268699" y1="56.24261187166439" y2="53.66864786411523" /><path d="M 173.72905801456457 55.72781907015455 a86.0,86.0 0 0,1 12.242430191666344,42.057860355516425" fill="none" id="id39" stroke="none" /><text fill="#e1ed5e" style="font-size:6.75px; font-family:Arial;" text-anchor="middle"><textPath startOffset="22.145653131862474" xlink:href="#id39">March</textPath></text><path d="M 118.18653347947321 89.5 l 12.674439554155963 -7.317591088419588 a35.63518217683917,35.63518217683917 0 0,0 0.3013152088567414,0.532395102584184 l -12.79818812803408 7.098939215736286" fill="#ffb510" stroke="none" /><path d="M 118.36410011445183 89.81374322990088 l 13.181750209793345 -7.3116946367873235 a36.07379902529589,36.07379902529589 0 0,0 0.2957272504402979,0.5441048323557638 l -13.305322809848983 7.084334970956956" fill="#ffba11" stroke="none" /><path d="M 118.53625476483649 90.13048839642627 l 5.613787994456166 -2.9890259091816445 a27.359944302622417,27.359944302622417 0 0,0 0.21717533088295685,0.41646233260880644 l -5.664271394314067 2.8922173334683396" fill="#ff4406" stroke="none" /><path d="M 119.0197475246899 91.09779779509293 l 14.619030819627051 -6.842444581724818 a37.141100023207244,37.141100023207244 0 0,0 0.2653210474215951,0.5797743714416087 l -14.734336331903696 6.590481228068525" fill="#ffc812" stroke="none" /><path d="M 119.58574465831526 92.42381321644754 l 15.326788347142976 -5.928730989588969 a37.43351125551172,37.43351125551172 0 0,0 0.2266854299422793,0.601310034771101 l -15.426304460899695 5.66475267462371" fill="#ffcc13" stroke="none" /><path d="M 119.94978838288452 93.4421083053983 l 23.653624703679974 -7.775416260784411 a45.898816430726384,45.898816430726384 0 0,0 0.23962522785096121,0.7506226132964764 l -23.783614647308195 7.3682246137965475" fill="#caff1d" stroke="none" /><path d="M 120.51834098615036 95.52812308129327 l 61.47788275794619 -13.398818408456457 a83.92104896727778,83.92104896727778 0 0,0 0.2946919171841653,1.4102075034011585 l -61.698832385954724 12.341494453769894" fill="#4dd3ff" stroke="none" /><path d="M 120.96210409425399 98.7389718711861 l 8.829477589016246 -0.531159446228185 a29.84543977721049,29.84543977721049 0 0,0 0.026375424963552788,0.5116761980415181 l -8.837294603436371 0.3795114548099362" fill="#ff6709" stroke="none" /><path d="M 120.99303781780057 99.45929381324524 l 11.692571539271613 -0.3011591664449822 a32.69644929217916,32.69644929217916 0 0,0 0.00963543871073326,0.5612159992489055 l -11.696018409581011 0.10039625122701035" fill="#ff8e0d" stroke="none" /><line stroke="#e1ed5e" stroke-width="0.3" x1="184.99686870605535" x2="189.99668451229388" y1="99.2704041080226" y2="99.22748670261217" /><path d="M 185.99683186730306 99.26182062694052 a86.0,86.0 0 0,1 -10.086455211305974,41.156179273409016" fill="none" id="id40" stroke="none" /><text fill="#e1ed5e" style="font-size:6.75px; font-family:Arial;" text-anchor="middle"><textPath startOffset="21.40746469413373" xlink:href="#id40">April</textPath></text><path d="M 120.9064616781168 101.97986365728391 l 8.791484929391425 0.8325627632857855 a29.830819215595266,29.830819215595266 0 0,0 -0.052655099934955214,0.5093903270146616 l -8.775897436974804 -0.9833576125833785" fill="#ff6709" stroke="none" /><path d="M 120.82617615685814 102.69636545807757 l 11.641682643078253 1.5072488927527152 a32.73884892086331,32.73884892086331 0 0,0 -0.07694484361500682,0.5567345583672055 l -11.614093282908035 -1.7068717593200058" fill="#ff8e0d" stroke="none" /><path d="M 120.77682067341334 103.0534771498775 l 28.96363056466155 4.256656275608977 a50.27475052216292,50.27475052216292 0 0,0 -0.13281753057573592,0.8527838231639242 l -28.886291541947546 -4.753228280704351" fill="#99ff23" stroke="none" /><path d="M 120.592083275326 104.11899336999214 l 5.877990816581803 1.1757627860502033 a26.99443026224182,26.99443026224182 0 0,0 -0.09479195631094109,0.4536138260223066 l -5.856941149446497 -1.276493063357919" fill="#ff3f05" stroke="none" /><path d="M 120.51834098615036 104.47187691870673 l 7.171181602493027 1.5629256531845737 a28.339521930842423,28.339521930842423 0 0,0 -0.10767552565379053,0.47443823349840253 l -7.143295215281572 -1.6857982206219932" fill="#ff5207" stroke="none" /><line stroke="#e1ed5e" stroke-width="0.3" x1="174.33088141563837" x2="178.70328620479359" y1="141.23008692659167" y2="143.65538615756765" /><path d="M 175.20536237346943 141.71514677278685 a86.0,86.0 0 0,1 -30.301960400862466,31.631185727798858" fill="none" id="id41" stroke="none" /><text fill="#e1ed5e" style="font-size:6.75px; font-family:Arial;" text-anchor="middle"><textPath startOffset="22.145653131862474" xlink:href="#id41">May</textPath></text><path d="M 116.35404254752997 113.17365903436017 l 5.6929830172418106 4.585864133567012 a28.310280807611974,28.310280807611974 0 0,0 -0.3081145108013025,0.3758496044589127 l -5.61342168720188 -4.682916019724417" fill="#ff5207" stroke="none" /><path d="M 116.1254893667686 113.45245675266167 l 6.736106024642258 5.619499223669303 a29.772336969134372,29.772336969134372 0 0,0 -0.33076419390462697,0.38963938872491494 l -6.638647267230517 -5.7343053948437746" fill="#ff6609" stroke="none" /><path d="M 112.7482090630111 116.68781488649013 l 4.455512380806388 5.832408730344427 a28.339521930842423,28.339521930842423 0 0,0 -0.3891245925931524,0.2920063486794508 l -4.354734799302469 -5.908034106287892" fill="#ff5207" stroke="none" /><path d="M 112.16784306229584 117.11559508785304 l 3.404680524532395 4.789109537578185 a26.876003713158504,26.876003713158504 0 0,0 -0.37831802986866425,0.26409536650719273 l -3.321967403489972 -4.8468497198905" fill="#ff3d05" stroke="none" /><line stroke="#e1ed5e" stroke-width="0.3" x1="143.1302829299769" x2="145.66735839644613" y1="173.24464959558577" y2="177.55315839532614" /><path d="M 143.63769802327073 174.10635135553383 a86.0,86.0 0 0,1 -40.68552437913181,11.842963189579606" fill="none" id="id42" stroke="none" /><text fill="#e1ed5e" style="font-size:6.75px; font-family:Arial;" text-anchor="middle"><textPath startOffset="21.407464694133747" xlink:href="#id42">June</textPath></text><path d="M 109.71004243097381 118.62028667847754 l 4.772770914087382 9.152417541196435 a31.32211650034811,31.32211650034811 0 0,0 -0.47888947459893394,0.24452437795281537 l -4.614954217774866 -9.232999870822086" fill="#ff7b0b" stroke="none" /><path d="M 109.3889696526874 118.78422872680471 l 9.086099663891027 18.17828586464972 a41.322580645161295,41.322580645161295 0 0,0 -0.6372330579036699,0.31170262077643124 l -8.772706356725287 -18.331582235523374" fill="#fffd17" stroke="none" /><path d="M 108.73861861582097 119.09545874513695 l 3.8450733106513244 8.402179109022898 a30.24019494082154,30.24019494082154 0 0,0 -0.4738877547646403,0.21196396509732632 l -3.700272153031057 -8.466946825030075" fill="#ff6c0a" stroke="none" /><path d="M 108.4095320186766 119.2426549942271 l 4.397000612225195 10.061197888603772 a31.980041773033186,31.980041773033186 0 0,0 -0.5049266736439152,0.21552317218263903 l -4.223638863410849 -10.135195710445815" fill="#ff840c" stroke="none" /><path d="M 107.74402155503746 119.51999308798841 l 3.6716259078536884 9.254895771353054 a30.95660245996751,30.95660245996751 0 0,0 -0.49564135266676757,0.19172472280045633 l -3.512212292693391 -9.31656038229155" fill="#ff760a" stroke="none" /><path d="M 106.0420521117495 120.11202640906438 l 2.734277469926092 9.10152042183234 a30.503365049895567,30.503365049895567 0 0,0 -0.5027825905090562,0.146352684465198 l -2.577634867035429 -9.147116800600058" fill="#ff700a" stroke="none" /><line stroke="#e1ed5e" stroke-width="0.3" x1="101.45913802915013" x2="101.54496967792366" y1="184.9874750549273" y2="189.98673829345242" /><path d="M 101.47630435890484 185.9873277026323 a86.0,86.0 0 0,1 -42.54439059252881,-10.42667462771756" fill="none" id="id43" stroke="none" /><text fill="#e1ed5e" style="font-size:6.75px; font-family:Arial;" text-anchor="middle"><textPath startOffset="22.145653131862474" xlink:href="#id43">July</textPath></text><path d="M 100.36049292484886 120.99690560180557 l 0.12674559785240547 7.382295657167658 a28.383383615688096,28.383383615688096 0 0,0 -0.4872385227012568,0.00418235671487327 l -9.042037111829438e-16 -7.383383615688096" fill="#ff5307" stroke="none" /><path d="M 99.27912038922189 120.98762331915562 l -0.2574689535826188 7.495927660287881 a28.500348108609884,28.500348108609884 0 0,0 -0.4888138667918995,-0.02099177067666614 l 0.38610858097535705 -7.490403321185386" fill="#ff5407" stroke="none" /><path d="M 98.19965949673042 120.92268563240118 l -0.6956525732058153 8.084537381747035 a29.11441169644929,29.11441169644929 0 0,0 -0.49757976522114616,-0.047121321098174185 l 0.8343319018119767 -8.071404305143677" fill="#ff5d08" stroke="none" /><path d="M 97.12497278360702 120.80226474461374 l -1.2190008643188597 8.820083009609954 a29.903922023671385,29.903922023671385 0 0,0 -0.5079037252242389,-0.0746443569826079 l 1.3702296951507835 -8.797857579328465" fill="#ff6809" stroke="none" /><path d="M 96.76829788921471 120.74984581791261 l -1.9912204929531085 12.785063969960081 a33.93919702947319,33.93919702947319 0 0,0 -0.5749017100808692,-0.09459985761804722 l 2.2103997060870415 -12.748998113846365" fill="#ff9e0e" stroke="none" /><path d="M 94.30408787586889 120.21278271476187 l -2.8274671695327114 10.033683505888986 a31.424460431654676,31.424460431654676 0 0,0 -0.5179648735584589,-0.1507720257919186 l 2.999292055472777 -9.983667785794552" fill="#ff7d0b" stroke="none" /><path d="M 93.95794788825049 120.11202640906438 l -3.381670243190135 11.25648041094003 a32.753469482478536,32.753469482478536 0 0,0 -0.537093524868789,-0.16639294693150475 l 3.5744044009305576 -11.196770876201876" fill="#ff8f0d" stroke="none" /><path d="M 93.27111125876986 119.89276391827306 l -2.3423841057890913 6.924842394386071 a28.310280807611974,28.310280807611974 0 0,0 -0.45902320032268934,-0.15967209682271014 l 2.4609130781568025 -6.883611864994771" fill="#ff5207" stroke="none" /><path d="M 92.93061703081489 119.77432235084164 l -3.081063173852317 8.618282054973454 a30.152471571130192,30.152471571130192 0 0,0 -0.48590111829101107,-0.17842962106824137 l 3.2285534437974466 -8.564121584896492" fill="#ff6b09" stroke="none" /><path d="M 90.93487009805054 118.94263497670748 l -1.2622599074424867 2.63763773172998 a23.92411232304479,23.92411232304479 0 0,0 -0.3689323129200513,-0.18046328168316114 l 1.3073524696246075 -2.615580699949598" fill="#ff1302" stroke="none" /><path d="M 90.28995756902619 118.62028667847754 l -0.7571534594586222 1.4519415929376789 a22.637502900905083,22.637502900905083 0 0,0 -0.34302412408248323,-0.18264102516329722 l 0.7819663993276673 -1.4387301000518085" fill="#ff0000" stroke="none" /><line stroke="#e1ed5e" stroke-width="0.3" x1="58.13341422392154" x2="55.67067388415222" y1="173.97424548756322" y2="178.32567169271397" /><path d="M 57.64086615596768 174.84453072859336 a86.0,86.0 0 0,1 -31.369924170532247,-30.572349798747897" fill="none" id="id44" stroke="none" /><text fill="#e1ed5e" style="font-size:6.75px; font-family:Arial;" text-anchor="middle"><textPath startOffset="22.145653131862474" xlink:href="#id44">August</textPath></text><path d="M 85.60350026404147 115.28858382429668 l -6.023877703395968 6.397149369971438 a29.786957530749596,29.786957530749596 0 0,0 -0.36925545750549976,-0.35373837539389186 l 6.132805646766782 -6.292798864271964" fill="#ff6609" stroke="none" /><path d="M 85.34317274990678 115.03919595460226 l -7.224669547272681 7.413147414150664 a31.351357623578558,31.351357623578558 0 0,0 -0.38220004126339086,-0.3789333938730643 l 7.350861508666034 -7.288034010048941" fill="#ff7c0b" stroke="none" /><path d="M 84.58840730492382 114.26474011684316 l -8.680421320712437 8.034468383285756 a32.82803434671617,32.82803434671617 0 0,0 -0.379245552826436,-0.4168572965986324 l 8.817064574380751 -7.884273511129449" fill="#ff900d" stroke="none" /><line stroke="#e1ed5e" stroke-width="0.3" x1="26.387840678322732" x2="22.057713659400534" y1="142.50000000000003" y2="145.00000000000006" /><path d="M 25.521815274538284 143.00000000000003 a86.0,86.0 0 0,1 -11.493303480769212,-40.785679425670985" fill="none" id="id45" stroke="none" /><text fill="#e1ed5e" style="font-size:6.75px; font-family:Arial;" text-anchor="middle"><textPath startOffset="21.40746469413373" xlink:href="#id45">September</textPath></text><path d="M 81.29705330413844 109.54985784667822 l -6.57576334282438 3.3576316170149703 a28.383383615688096,28.383383615688096 0 0,0 -0.21784934450100807,-0.4358446204925266 l 6.632432600537125 -3.24425514035869" fill="#ff5307" stroke="none" /><path d="M 81.1358732173502 109.22738970284198 l -7.958919120644546 3.893106168430426 a29.86006033882571,29.86006033882571 0 0,0 -0.2212783212995171,-0.46238658617941764 l 8.024576699903974 -3.7559070801859047" fill="#ff6709" stroke="none" /><path d="M 80.9802524753101 108.90220220490708 l -9.362006149887975 4.381891593550224 a31.336737061963333,31.336737061963333 0 0,0 -0.22385701809746797,-0.4891679843025181 l 9.435847632840499 -4.220534627033016" fill="#ff7b0b" stroke="none" /><path d="M 80.83023694016515 108.57439118712176 l -6.7131985280322075 3.0027283131507887 a28.354142492457648,28.354142492457648 0 0,0 -0.19492273716065914,-0.44602136877329046 l 6.763755147209834 -2.887044874601649" fill="#ff5207" stroke="none" /><path d="M 80.68587082218212 108.24405325689762 l -8.108438079060695 3.4610100584190735 a29.81619865398004,29.81619865398004 0 0,0 -0.19689219845109807,-0.4724696001945326 l 8.166656122048279 -3.3213079487832595" fill="#ff6709" stroke="none" /><path d="M 80.5471966667186 107.91128576633889 l -9.548080540703213 3.8831212336520697 a31.307495938732885,31.307495938732885 0 0,0 -0.1981933330279918,-0.49957666869808687 l 9.613332548697327 -3.7186435477404176" fill="#ff7b0b" stroke="none" /><path d="M 79.73907114497094 105.5222062557868 l -11.397654106426184 3.106481309822976 a32.81341378510095,32.81341378510095 0 0,0 -0.14345793124663153,-0.544733131598496 l 11.449301518477549 -2.9103676738516775" fill="#ff8f0d" stroke="none" /><path d="M 79.56144815229197 104.8234425847677 l -3.7139443250766755 0.876480748171992 a24.815966581573452,24.815966581573452 0 0,0 -0.09428783776940419,-0.41544961048560647 l 3.728443024403746 -0.8125968037473592" fill="#ff2003" stroke="none" /><path d="M 79.48165901384964 104.47187691870673 l -11.542459631104311 2.5156253541297544 a32.81341378510095,32.81341378510095 0 0,0 -0.1152255356276487,-0.5513959000917475 l 11.583942877556327 -2.3171130027525977" fill="#ff8f0d" stroke="none" /><path d="M 79.407916724674 104.11899336999214 l -8.673620595199976 1.7349670379521314 a29.84543977721049,29.84543977721049 0 0,0 -0.09617864610444908,-0.5032473176458533 l 8.702125533586582 -1.5858171552729634" fill="#ff6709" stroke="none" /><path d="M 79.22317932658666 103.0534771498775 l -5.843932851282656 0.8588568822584184 a26.906706892550474,26.906706892550474 0 0,0 -0.0632377869804297,-0.4575571247220532 l 5.857815154818298 -0.7584114493362797" fill="#ff3e05" stroke="none" /><line stroke="#e1ed5e" stroke-width="0.3" x1="15.003131293944662" x2="10.003315487706104" y1="100.72959589197737" y2="100.7725132973878" /><path d="M 14.003168132696942 100.73817937305945 a86.0,86.0 0 0,1 10.791469493833604,-42.45332614584628" fill="none" id="id46" stroke="none" /><text fill="#e1ed5e" style="font-size:6.75px; font-family:Arial;" text-anchor="middle"><textPath startOffset="22.145653131862435" xlink:href="#id46">October</textPath></text><path d="M 79.00077361379809 99.81974689727619 l -11.812978593676819 -0.10140021373927229 a32.81341378510095,32.81341378510095 0 0,0 0.009669907413827252,-0.563223628401107 l 11.809497254664326 0.30417075810943167" fill="#ff8f0d" stroke="none" /><path d="M 79.00696218219943 99.45929381324524 l -8.857122940998243 -0.22812806858207374 a29.86006033882571,29.86006033882571 0 0,0 0.017596552046947597,-0.5123044133245586 l 8.851901701954446 0.3801387464707709" fill="#ff6709" stroke="none" /><path d="M 79.01933749520258 99.09900007780938 l -14.665526912148954 -0.6298008274862279 a35.679043861684846,35.679043861684846 0 0,0 0.03153077827534197,-0.6116886750264775 l 14.652554544417042 0.8814612958894174" fill="#ffb510" stroke="none" /><path d="M 79.34024301695615 96.23510406497455 l -18.74193317398895 -3.4154045509432516 a40.05059178463681,40.05059178463681 0 0,0 0.12906533535047932,-0.6753243723732237 l 18.680541546356313 3.73663148834979" fill="#ffed16" stroke="none" /><path d="M 79.407916724674 95.88100663000787 l -13.031935737250873 -2.6067521280966686 a34.29009050823857,34.29009050823857 0 0,0 0.12041094143415064,-0.5762099440138923 l 12.985267084992355 2.8300785233959695" fill="#ffa30f" stroke="none" /><path d="M 79.56144815229197 95.17655741523228 l -13.290513408511927 -3.136524976217019 a34.655604548619166,34.655604548619166 0 0,0 0.14161348316143038,-0.5778313370182583 l 13.234712398834198 3.3642121378433947" fill="#ffa80f" stroke="none" /><path d="M 79.64726062577567 94.8264132398404 l -12.75293485969034 -3.2417461713694378 a34.15850545370155,34.15850545370155 0 0,0 0.1493385771732834,-0.567062902030901 l 12.69540680171233 3.4601895777731233" fill="#ffa10e" stroke="none" /><path d="M 79.73907114497095 94.47779374421319 l -8.872678753641177 -2.4182880493547727 a30.196333255975865,30.196333255975865 0 0,0 0.1406020475994174,-0.4989470650955977 l 8.829858213967178 2.5702430383533836" fill="#ff6c09" stroke="none" /><path d="M 80.41425534168474 92.42381321644754 l -6.875237263905238 -2.6594894705967613 a28.371687166395915,28.371687166395915 0 0,0 0.17960808025462272,-0.4527296909235104 l 6.828570508684485 2.7771201787338544" fill="#ff5307" stroke="none" /><path d="M 80.68587082218212 91.75594674310238 l -6.763755147209835 -2.887044874601646 a28.354142492457648,28.354142492457648 0 0,0 0.19492273716064654,-0.4460213687732668 l 6.713198528032212 3.00272831315078" fill="#ff5207" stroke="none" /><path d="M 80.83023694016515 91.42560881287825 l -6.7665838045970785 -3.0266068683249405 a28.41262473891854,28.41262473891854 0 0,0 0.20296833833721917,-0.44352244921988065 l 6.713631001404813 3.1423182997594927" fill="#ff5307" stroke="none" /><path d="M 81.29705330413844 90.45014215332179 l -15.664640200827185 -7.998476901522783 a38.58853562311441,38.58853562311441 0 0,0 0.3063046437355405,-0.5873795421440416 l 15.525027488116708 8.266202686771312" fill="#ffdb14" stroke="none" /><path d="M 81.46374523516351 90.13048839642627 l -9.136923908218312 -4.864897341840473 a31.351357623578558,31.351357623578558 0 0,0 0.2570134290843466,-0.4728757614893878 l 9.052065129518615 5.02102793680448" fill="#ff7c0b" stroke="none" /><line stroke="#e1ed5e" stroke-width="0.3" x1="26.387840678322718" x2="22.05771365940052" y1="57.49999999999999" y2="54.99999999999999" /><path d="M 25.521815274538284 56.99999999999999 a86.0,86.0 0 0,1 29.574782752854787,-30.34633250058573" fill="none" id="id47" stroke="none" /><text fill="#e1ed5e" style="font-size:6.75px; font-family:Arial;" text-anchor="middle"><textPath startOffset="21.40746469413373" xlink:href="#id47">November</textPath></text><path d="M 81.81346652052679 89.5 l -12.712424887485104 -7.339521930842425 a35.679043861684846,35.679043861684846 0 0,0 0.3107921485588077,-0.5277930139064176 l 12.58455902879652 7.556666113042415" fill="#ffb510" stroke="none" /><path d="M 81.99639281039701 89.18935116829357 l -12.58455902879652 -7.556666113042415 a35.679043861684846,35.679043861684846 0 0,0 0.3198066215414367,-0.5223800818872639 l 12.452984442799687 7.771583311054222" fill="#ffb510" stroke="none" /><path d="M 82.18462484594161 88.88188828441811 l -8.68235967127468 -5.418434579420273 a31.234393130656763,31.234393130656763 0 0,0 0.28777630874209126,-0.4524321557169625 l 8.5880656709067 5.566680409815907" fill="#ff7a0b" stroke="none" /><path d="M 82.78059297857968 87.97951657250589 l -24.37730951776937 -17.017255280668284 a50.72944998839638,50.72944998839638 0 0,0 0.5046007696407083,-0.7097841753853008 l 24.08159364959869 17.433216682763103" fill="#94ff23" stroke="none" /><path d="M 86.13680546590413 84.22622945171909 l -9.69812337052184 -11.034684135701552 a35.69074031097703,35.69074031097703 0 0,0 0.4636745875852297,-0.40051106528381014 l 9.50726930317376 11.199539333450073" fill="#ffb510" stroke="none" /><path d="M 87.25179093698888 83.31218511350988 l -17.85755161390929 -23.376108297715096 a50.41656996983059,50.41656996983059 0 0,0 0.6922603457225034,-0.5194850691468755 l 17.453638279276035 23.679212394125972" fill="#97ff23" stroke="none" /><path d="M 88.12776184653039 82.6780497279521 l -9.108753616934445 -13.289943745507168 a37.111858899976795,37.111858899976795 0 0,0 0.5285854644097068,-0.3556558904746139 l 8.87927186442775 13.444349310038891" fill="#ffc812" stroke="none" /><path d="M 88.72937992617638 82.28071324371311 l -6.316673817192865 -9.930860412261048 a32.76955210025528,32.76955210025528 0 0,0 0.4772430721787113,-0.2978349737845235 l 6.145266616224455 10.037831182887107" fill="#ff8f0d" stroke="none" /><path d="M 89.03521579738668 82.08984904055464 l -7.931592564294668 -12.955660371453048 a36.190763518217686,36.190763518217686 0 0,0 0.5326371199360626,-0.31983328661411764 l 7.708022687801171 13.089907658603089" fill="#ffbc11" stroke="none" /><line stroke="#e1ed5e" stroke-width="0.3" x1="56.869717070023135" x2="54.33264160355391" y1="26.7553504044142" y2="22.446841604673864" /><path d="M 56.362301976729285 25.89364864446614 a86.0,86.0 0 0,1 42.16139366436587,-11.88097634709845" fill="none" id="id48" stroke="none" /><text fill="#e1ed5e" style="font-size:6.75px; font-family:Arial;" text-anchor="middle"><textPath startOffset="22.145653131862474" xlink:href="#id48">December</textPath></text><path d="M 89.65649057296885 81.72400993836675 l -16.66387617601538 -29.44347250124346 a54.83197957762822,54.83197957762822 0 0,0 0.8231476303215802,-0.4565861147509106 l 16.155984357537697 29.725191531427516" fill="#67ff28" stroke="none" /><path d="M 90.28995756902619 81.37971332152246 l -11.688556530392479 -22.41434834097539 a46.278951032722205,46.278951032722205 0 0,0 0.7075672087741522,-0.3612888584160522 l 11.302062099904745 22.61169515106428" fill="#c6ff1e" stroke="none" /><path d="M 90.93487009805054 81.0573650232925 l -6.336544735361281 -13.24094141328451 a35.679043861684846,35.679043861684846 0 0,0 0.5547433571006227,-0.25964790175726515 l 6.1083126643891354 13.347765546612319" fill="#ffb510" stroke="none" /><path d="M 91.26138138417902 80.90454125486306 l -6.309083897382005 -13.786486924140414 a36.16152239498724,36.16152239498724 0 0,0 0.566679635834604,-0.25346859323484466 l 6.071490858691783 13.892759268285104" fill="#ffbc11" stroke="none" /><path d="M 92.25597844496254 80.48000691201159 l -22.91558237320196 -57.76223714681628 a83.14177303318635,83.14177303318635 0 0,0 1.3311700113916543,-0.5149251571951361 l 21.920640099316778 58.147102192149454" fill="#4cdaff" stroke="none" /><path d="M 93.61358852112211 79.99465700312896 l -1.8141024948123783 -5.682650227006298 a26.965189139011372,26.965189139011372 0 0,0 0.44217692697176786,-0.13698754227566715 l 1.7162849349689941 5.712954357088607" fill="#ff3f05" stroke="none" /><path d="M 94.30408787586887 79.78721728523814 l -3.9735232873377067 -14.100632360309623 a35.6498027384544,35.6498027384544 0 0,0 0.5904602116878239,-0.16093255635544626 l 3.730881674715205 14.166765410809209" fill="#ffb510" stroke="none" /><path d="M 96.41257539226777 79.30868818359171 l -1.3562113450906932 -7.822266639343028 a28.938964957066606,28.938964957066606 0 0,0 0.4902019463613027,-0.0806625437300351 l 1.2217318956763175 7.844395181568731" fill="#ff5a08" stroke="none" /><path d="M 98.1996594967304 79.07731436759882 l -0.8786530699410425 -10.211280548837244 a31.249013692271987,31.249013692271987 0 0,0 0.534850685890301,-0.04140082572005477 l 0.7032333892755243 10.224859141552352" fill="#ff7a0b" stroke="none" /><path d="M 98.5590905019552 79.04949213459386 l -0.7112588773129056 -10.341547976263367 a31.365978185193782,31.365978185193782 0 0,0 0.5374868762300614,-0.03233387577634461 l 0.5336276489503605 10.352233829864407" fill="#ff7c0b" stroke="none" /><path d="M 98.9189461498227 79.02784411241856 l -0.6126557210798214 -11.885357316656735 a32.901137154792295,32.901137154792295 0 0,0 0.5642924785759721,-0.024233147031151352 l 0.40853748190302924 11.894123032113715" fill="#ff910d" stroke="none" /></svg>