<?xml version="1.0" encoding="utf-8" ?>
<svg baseProfile="full" height="200mm" version="1.1" viewBox="0,0,200,200" width="200mm" xmlns="http://www.w3.org/2000/svg" xmlns:ev="http://www.w3.org/2001/xml-events" xmlns:xlink="http://www.w3.org/1999/xlink"><defs /><rect fill="#1a1a1a" height="200" width="200" x="0" y="0" /><text alignment-baseline="middle" fill="#e1ed5e" style="dominant-baseline: central; font-size:9.0px; font-family:Arial;" text-anchor="middle" x="100.0" y="100.0">2018</text><line stroke="#e1ed5e" stroke-width="0.3" x1="100.0" x2="100.0" y1="15.0" y2="10.0" /><path d="M 100.0 14.0 a86.0,86.0 0 0,1 42.46469731375804,11.215312516191453" fill="none" id="id61" stroke="none" /><text fill="#e1ed5e" style="font-size:6.75px; font-family:Arial;" text-anchor="middle"><textPath startOffset="22.20632615414155" xlink:href="#id61">January</textPath></text><path d="M 107.76421540070413 80.48803036053334 l 13.076965478153319 -32.863250208506706 a56.369481765834934,56.369481765834934 0 0,0 0.8984654671413438,0.3665066231713327 l -13.64071481488305 32.6332826991518" fill="#acff21" stroke="none" /><path d="M 108.43124777332544 80.76684994638697 l 9.078560462256368 -20.709783455042054 a43.61228406909789,43.61228406909789 0 0,0 0.684957673356898,0.30732054199829784 l -9.433700254080046 20.550442582527225" fill="#ff870c" stroke="none" /><path d="M 110.05341064243156 81.56283822128135 l 14.096000910357489 -25.850953319297457 a50.44433781190019,50.44433781190019 0 0,0 0.7587691027377095,0.42225418417165994 l -14.538894102167234 25.604483737565616" fill="#fff817" stroke="none" /><line stroke="#e1ed5e" stroke-width="0.3" x1="143.23703022742887" x2="145.7803849466894" y1="26.81831364943548" y2="22.513508569990506" /><path d="M 143.74570117128098 25.957352633546492 a86.0,86.0 0 0,1 28.547481713284135,27.462654790039103" fill="none" id="id62" stroke="none" /><text fill="#e1ed5e" style="font-size:6.75px; font-family:Arial;" text-anchor="middle"><textPath startOffset="19.985693538727396" xlink:href="#id62">February</textPath></text><path d="M 110.68208982089419 81.91981866633111 l 15.71558895914664 -26.599729351741264 a51.895393474088294,51.895393474088294 0 0,0 0.7651801146733046,0.4610124574319266 l -16.171131140037584 26.32527028485072" fill="#efff19" stroke="none" /><path d="M 111.90073688211348 82.69761687909136 l 17.405684269041203 -25.30598068739421 a51.714011516314784,51.714011516314784 0 0,0 0.7290908789139652,0.5107747538078131 l -17.838706287538816 25.002621090822462" fill="#f2ff19" stroke="none" /><path d="M 112.19680574252982 82.90503203632743 l 21.701418278935012 -30.41657447663047 a58.36468330134357,58.36468330134357 0 0,0 0.8128107138574164,0.5905415508358057 l -22.22177430914622 30.03851369097799" fill="#8fff24" stroke="none" /><path d="M 112.48926042617603 83.11751280151076 l 22.006028927504026 -29.746877635725777 a58.00191938579655,58.00191938579655 0 0,0 0.797537014859284,0.6006883449157114 l -22.51481209612169 29.36367270130422" fill="#94ff23" stroke="none" /><path d="M 113.06298171725822 83.55741782278167 l 11.35802441059112 -14.296525386333784 a39.25911708253359,39.25911708253359 0 0,0 0.5255049708218534,0.42492180665017276 l -11.602432779977464 14.098897482419483" fill="#ff3905" stroke="none" /><path d="M 114.42810811169701 84.74124197986012 l 23.054510562356544 -24.381796644465354 a54.55566218809981,54.55566218809981 0 0,0 0.676793531229537,0.6510748408200083 l -23.4707873371985 23.98133871688304" fill="#c7ff1e" stroke="none" /><path d="M 114.68862486808459 84.99185889309783 l 21.2717225776772 -21.734438512778684 a51.411708253358924,51.411708253358924 0 0,0 0.6271351955596604,0.6244420777270127 l -21.64269357340418 21.36506058440155" fill="#f7ff19" stroke="none" /><path d="M 117.65298651832404 88.62581576622439 l 21.498694713774675 -13.85205354382078 a46.574856046065264,46.574856046065264 0 0,0 0.42842747128176245,0.6776693724879747 l -21.733949781302393 13.4799365236186" fill="#ffb911" stroke="none" /><line stroke="#e1ed5e" stroke-width="0.3" x1="172.23445277983987" x2="176.4835382374775" y1="55.19839476539836" y2="52.563006222186495" /><path d="M 173.08426987136738 54.67131705675599 a86.0,86.0 0 0,1 12.851231095245387,41.99856678651699" fill="none" id="id63" stroke="none" /><text fill="#e1ed5e" style="font-size:6.75px; font-family:Arial;" text-anchor="middle"><textPath startOffset="22.20632615414155" xlink:href="#id63">March</textPath></text><path d="M 118.03404312379186 89.2402003453031 l 30.425957592731372 -18.153289628557722 a56.4299424184261,56.4299424184261 0 0,0 0.49051143136572944,0.8384430378206268 l -30.733928698567425 17.6268671783832" fill="#abff21" stroke="none" /><path d="M 118.3937258080291 89.86733742301442 l 30.238437916654366 -16.65763051283715 a55.52303262955854,55.52303262955854 0 0,0 0.4539454766344812,0.8410920258340463 l -30.52069149250731 16.13465750367065" fill="#b8ff1f" stroke="none" /><path d="M 118.73160827565052 90.50648371742162 l 22.11120746549917 -11.206357991911151 a45.788867562380034,45.788867562380034 0 0,0 0.35026300438565905,0.7061088435032494 l -22.300830482838236 10.824089559908952" fill="#ffac0f" stroke="none" /><path d="M 118.89224826269711 90.83032412892265 l 32.14583125696927 -15.602529097332173 a56.732245681381954,56.732245681381954 0 0,0 0.4188509446597469,0.8822069097618799 l -32.40964039547077 15.046879771929753" fill="#a7ff21" stroke="none" /><path d="M 119.34039704204932 91.81776055985345 l 16.76044004699668 -7.090750685654829 a39.19865642994242,39.19865642994242 0 0,0 0.25755069002528413,0.6236794246337096 l -16.880012423908163 6.801196690567816" fill="#ff3805" stroke="none" /><path d="M 119.85752413597 93.16781622104841 l 29.157401082566306 -10.031901326099732 a51.83493282149712,51.83493282149712 0 0,0 0.2830254130700647,0.84620996092496 l -29.32576378940814 9.528518262252458" fill="#f0ff19" stroke="none" /><line stroke="#e1ed5e" stroke-width="0.3" x1="184.98032266829074" x2="189.97916517819016" y1="98.17113171792111" y2="98.06355123074" /><path d="M 185.9800911702706 98.14961562048488 a86.0,86.0 0 0,1 -9.607161424134198,41.387399972396054" fill="none" id="id64" stroke="none" /><text fill="#e1ed5e" style="font-size:6.75px; font-family:Arial;" text-anchor="middle"><textPath startOffset="21.466115282336823" xlink:href="#id64">April</textPath></text><line stroke="#e1ed5e" stroke-width="0.3" x1="174.80103733775053" x2="179.2010983576182" y1="140.37084112569926" y2="142.7455964860345" /><path d="M 175.68104954172406 140.8457921977663 a86.0,86.0 0 0,1 -30.038265399797805,32.042727171017184" fill="none" id="id65" stroke="none" /><text fill="#e1ed5e" style="font-size:6.75px; font-family:Arial;" text-anchor="middle"><textPath startOffset="22.206326154141568" xlink:href="#id65">May</textPath></text><line stroke="#e1ed5e" stroke-width="0.3" x1="143.8653032363475" x2="146.44561519142675" y1="172.8068346515853" y2="177.08958963109032" /><path d="M 144.38136562736335 173.6633856474863 a86.0,86.0 0 0,1 -40.68145358897372,12.25698825130547" fill="none" id="id66" stroke="none" /><text fill="#e1ed5e" style="font-size:6.75px; font-family:Arial;" text-anchor="middle"><textPath startOffset="21.466115282336833" xlink:href="#id66">June</textPath></text><path d="M 101.98527174616119 120.90594882070398 l 3.263695298631593 34.36841682328783 a55.52303262955854,55.52303262955854 0 0,0 -0.9522350332265381,0.0821628454628429 l -2.671615947663513 -34.41950392102934" fill="#b8ff1f" stroke="none" /><line stroke="#e1ed5e" stroke-width="0.3" x1="102.19456741930631" x2="102.32365962044197" y1="184.97166512339345" y2="189.96999836594603" /><path d="M 102.22038585953345 185.97133177190398 a86.0,86.0 0 0,1 -42.740103519485714,-10.115201625700543" fill="none" id="id67" stroke="none" /><text fill="#e1ed5e" style="font-size:6.75px; font-family:Arial;" text-anchor="middle"><textPath startOffset="22.20632615414155" xlink:href="#id67">July</textPath></text><path d="M 100.18074693466247 120.99922214144158 l 0.2914154032945655 33.85671132209391 a54.85796545105566,54.85796545105566 0 0,0 -0.9443246759140186,0.0 l 0.2914154032945422 -33.85671132209391" fill="#c2ff1e" stroke="none" /><path d="M 99.09653310690486 120.98055641714683 l -0.6554903754125948 15.221977592478892 a36.23608445297505,36.23608445297505 0 0,0 -0.6229361353095461,-0.03219868276541362 l 0.9174145791356297 -15.208439102951276" fill="#ff0100" stroke="none" /><path d="M 98.37488393609728 120.93702456842531 l -2.4236375847455127 31.224698828534496 a52.31861804222649,52.31861804222649 0 0,0 -0.8972784559913223,-0.07742096073377139 l 2.960760358478377 -31.17835361552206" fill="#e9ff1a" stroke="none" /><path d="M 97.65516085044442 120.86867818915974 l -3.436247007074257 30.582026482578623 a51.77447216890595,51.77447216890595 0 0,0 -0.884782773686162,-0.10713487207733155 l 3.9621572038118082 -30.518346081775945" fill="#f1ff19" stroke="none" /><path d="M 96.22490169976321 120.6578951692458 l -5.456140153701164 29.856804342499213 a51.35124760076775,51.35124760076775 0 0,0 -0.8681598062104807,-0.1663848930979877 l 5.96926757448334 -29.758462251052755" fill="#f8ff18" stroke="none" /><path d="M 95.16358092515715 120.4354850818985 l -6.335616158503351 26.77009322148892 a48.509596928982724,48.509596928982724 0 0,0 -0.8109111743023918,-0.19930223727267746 l 6.795480617548953 -26.65706972590221" fill="#ffd914" stroke="none" /><path d="M 94.81253420990036 120.34920634021253 l -15.353305658989724 60.227401490609836 a83.15355086372361,83.15355086372361 0 0,0 -1.3839505114777306,-0.3655139086117295 l 16.387746613278942 -59.95419623269453" fill="#4cdcff" stroke="none" /><path d="M 92.40401165467489 119.57807347666478 l -13.908969062265184 35.8492938517048 a59.452975047984644,59.452975047984644 0 0,0 -0.950904823106064,-0.37838465355288253 l 14.523994961413106 -35.604562353745855" fill="#80ff25" stroke="none" /><path d="M 91.7346041902142 119.30500536409082 l -11.065477115788086 25.844992785898942 a49.11420345489444,49.11420345489444 0 0,0 -0.774318921169942,-0.33943865990539346 l 11.508716711615772 -25.650689572699097" fill="#ffe315" stroke="none" /><line stroke="#e1ed5e" stroke-width="0.3" x1="58.666819895761336" x2="56.23545636021788" y1="174.27360380694188" y2="178.64263932499728" /><path d="M 58.180547188652646 175.14741091055294 a86.0,86.0 0 0,1 -31.652253787137756,-30.449443065178592" fill="none" id="id68" stroke="none" /><text fill="#e1ed5e" style="font-size:6.75px; font-family:Arial;" text-anchor="middle"><textPath startOffset="22.20632615414155" xlink:href="#id68">August</textPath></text><path d="M 88.24862548938628 117.40417183066458 l -12.010761855857584 17.788333013107273 a42.463531669865645,42.463531669865645 0 0,0 -0.6022605029746309,-0.41424026565041927 l 12.315179243455107 -17.578951958091753" fill="#ff730a" stroke="none" /><path d="M 85.44109423537348 115.13401014063109 l -16.892242868938062 17.55951848370728 a45.36564299424184,45.36564299424184 0 0,0 -0.5581055251459569,-0.5462237219974047 l 17.191998346459812 -17.266144658787304" fill="#ffa50f" stroke="none" /><line stroke="#e1ed5e" stroke-width="0.3" x1="26.63291911575756" x2="22.317208475507996" y1="142.92168965132927" y2="145.44649492493687" /><path d="M 25.769776987707644 143.4266507060508 a86.0,86.0 0 0,1 -11.730757126820373,-40.83630448921669" fill="none" id="id69" stroke="none" /><text fill="#e1ed5e" style="font-size:6.75px; font-family:Arial;" text-anchor="middle"><textPath startOffset="21.46611528233685" xlink:href="#id69">September</textPath></text><path d="M 81.51974371655577 109.97397251340807 l -21.974124313999436 11.859646779378695 a45.97024952015355,45.97024952015355 0 0,0 -0.3698361120336227,-0.6995905475897757 l 22.175012934257946 -11.479641216702792" fill="#ffaf10" stroke="none" /><path d="M 81.18737489456691 109.33194174019688 l -17.332169003086147 8.59756628655375 a40.34740882917467,40.34740882917467 0 0,0 -0.30327176608189316,-0.6248296642586372 l 17.47759402578276 -8.297947666329827" fill="#ff4d07" stroke="none" /><path d="M 80.87730276802145 108.67885076344099 l -27.527875094019013 12.493547164262466 a51.230326295585414,51.230326295585414 0 0,0 -0.3575362405115994,-0.8061498355427708 l 27.738852419261892 -12.017848992227" fill="#f9ff18" stroke="none" /><path d="M 80.58989483394504 108.01547362559985 l -29.45045707056898 12.161673514465795 a52.86276391554702,52.86276391554702 0 0,0 -0.3400772003866332,-0.8440437218314025 l 29.655436885213003 -11.652930424791586" fill="#e0ff1b" stroke="none" /><path d="M 80.32549172779594 107.34259656027581 l -25.88651712206503 9.6609403878485 a48.630518234165066,48.630518234165066 0 0,0 -0.2859375798410686,-0.7867774144186558 l 26.048978962911324 -9.213915176423727" fill="#ffdb14" stroke="none" /><path d="M 80.20201598880116 107.00284435728193 l -30.038975740600144 10.625236975875938 a52.86276391554702,52.86276391554702 0 0,0 -0.2960545589596082,-0.8604731284038141 l 30.21742113050298 -10.106591144382826" fill="#e0ff1b" stroke="none" /><path d="M 79.97269907076064 106.31721596034903 l -29.176048762557905 9.203007512293498 a51.593090211132434,51.593090211132434 0 0,0 -0.2598651270482786,-0.8492542708894026 l 29.330140662112314 -8.699426268852047" fill="#f4ff19" stroke="none" /><path d="M 79.35854240842038 103.8639653848113 l -29.714190390949557 5.5623302084615585 a51.230326295585414,51.230326295585414 0 0,0 -0.1547974506466241,-0.8681863105913348 l 29.80553428393537 -5.05002514713701" fill="#f9ff18" stroke="none" /><path d="M 79.04373962182676 101.35467743843564 l -62.86878113451971 4.064032315306924 a84.0,84.0 0 0,0 -0.08085459644987347,-1.4437131346582497 l 62.92942208185711 -2.9812474643132365" fill="#4dd2ff" stroke="none" /><line stroke="#e1ed5e" stroke-width="0.3" x1="15.007084014347285" x2="10.007500721073583" y1="101.09737516637583" y2="101.16192664675087" /><path d="M 14.007167355692545 101.11028546245083 a86.0,86.0 0 0,1 10.666146001902534,-42.60595125391555" fill="none" id="id70" stroke="none" /><text fill="#e1ed5e" style="font-size:6.75px; font-family:Arial;" text-anchor="middle"><textPath startOffset="22.20632615414155" xlink:href="#id70">October</textPath></text><path d="M 79.00175016825051 100.2711162175752 l -30.711451769276618 0.39652698232688244 a51.714011516314784,51.714011516314784 0 0,0 -0.0038310298993620615,-0.8901964289149416 l 30.713727096465483 0.13217892479173443" fill="#f2ff19" stroke="none" /><path d="M 79.00019446554 99.90962569577889 l -31.49970830168999 -0.13556145633168037 a52.5,52.5 0 0,0 0.011667482205711122,-0.9036593548488201 l 31.49270781236656 0.6777570692409723" fill="#e6ff1a" stroke="none" /><path d="M 79.26566170972629 96.67025291283419 l -35.99656234846944 -5.780722150367517 a57.45777351247601,57.45777351247601 0 0,0 0.16522704683862205,-0.9751793834084208 l 35.891723440110596 6.399487322091765" fill="#9cff22" stroke="none" /><path d="M 79.32604984820605 96.31383870115002 l -35.83220151069084 -6.388874573630584 a57.397312859884835,57.397312859884835 0 0,0 0.18179717687592523,-0.97116778827888 l 35.71691860990505 7.004720439372037" fill="#9dff22" stroke="none" /><path d="M 80.02781315780177 93.51064311812611 l -46.51871157966899 -15.11484563561222 a69.91266794625719,69.91266794625719 0 0,0 0.3817321764930149,-1.1413306199255895 l 46.2516421094042 15.913349358460131" fill="#36ff71" stroke="none" /><path d="M 80.52162464483688 92.15188598940014 l -17.60904950533941 -7.094936082519254 a39.98464491362764,39.98464491362764 0 0,0 0.26271494550650204,-0.6361850789065552 l 17.484312872946706 7.39699573187912" fill="#ff4706" stroke="none" /><line stroke="#e1ed5e" stroke-width="0.3" x1="26.266209847984243" x2="21.928928074336255" y1="57.711370442889674" y2="55.22380399835377" /><path d="M 25.398753493254645 57.213857153982495 a86.0,86.0 0 0,1 29.58750427330803,-30.492523968695096" fill="none" id="id71" stroke="none" /><text fill="#e1ed5e" style="font-size:6.75px; font-family:Arial;" text-anchor="middle"><textPath startOffset="21.46611528233685" xlink:href="#id71">November</textPath></text><path d="M 85.57189188830299 84.74124197986013 l -10.42645432639909 -11.026722446415853 a36.175623800383875,36.175623800383875 0 0,0 0.45614380862594356,-0.4239359577696771 l 10.23510263397829 11.20456299026018" fill="#ff0000" stroke="none" /><path d="M 85.83668400450813 84.49514656593479 l -27.647010302140565 -30.265711981658974 a61.99232245681382,61.99232245681382 0 0,0 0.7940596949662111,-0.7129146343816684 l 27.12193961957838 30.737125624809924" fill="#5eff2a" stroke="none" /><path d="M 86.10567301691215 84.25364557470407 l -25.76184235251988 -29.195735844214738 a59.936660268714014,59.936660268714014 0 0,0 0.7794796956089209,-0.6759571109115835 l 25.255468858264187 29.634857948546003" fill="#79ff26" stroke="none" /><path d="M 86.37877921826538 84.01681056812374 l -23.5299399300598 -27.61011610112981 a57.27639155470249,57.27639155470249 0 0,0 0.755891439503079,-0.6330373423097747 l 23.051190953597608 28.0110546008334" fill="#9fff22" stroke="none" /><path d="M 87.22198572758235 83.33499621200491 l -22.514812096121705 -29.36367270130421 a58.00191938579655,58.00191938579655 0 0,0 0.7975370148592646,-0.6006883449156921 l 22.00602892750405 29.74687763572576" fill="#94ff23" stroke="none" /><path d="M 88.39885842347998 82.49532879139004 l -27.254889231594074 -41.12421796418156 a70.3358925143954,70.3358925143954 0 0,0 1.01495689060733,-0.6601561945136496 l 26.54296531520246 41.58727308285474" fill="#37ff78" stroke="none" /><path d="M 89.00827224532344 82.1063720568725 l -25.570007751761967 -41.62586769111425 a69.85220729366603,69.85220729366603 0 0,0 1.0299472922165414,-0.6205317194015602 l 24.84969839332778 42.05984601997443" fill="#36ff71" stroke="none" /><line stroke="#e1ed5e" stroke-width="0.3" x1="56.76296977257108" x2="54.21961505331056" y1="26.818313649435495" y2="22.513508569990535" /><path d="M 56.25429882871898 25.957352633546506 a86.0,86.0 0 0,1 42.26535254187918,-11.944610805530505" fill="none" id="id72" stroke="none" /><text fill="#e1ed5e" style="font-size:6.75px; font-family:Arial;" text-anchor="middle"><textPath startOffset="22.20632615414155" xlink:href="#id72">December</textPath></text><path d="M 89.3179101791058 81.91981866633112 l -10.272028791301336 -17.3861244686528 a41.19385796545106,41.19385796545106 0 0,0 0.6135987320929759,-0.35543599068593434 l 9.971233326743038 17.56036461672878" fill="#ff5c08" stroke="none" /><path d="M 90.26544431104013 81.39251694778311 l -22.673480477068725 -43.34007808803301 a69.91266794625719,69.91266794625719 0 0,0 1.0711270331617835,-0.5486728691851434 l 21.92409295631818 43.72394348253066" fill="#36ff71" stroke="none" /><path d="M 94.98787191387505 79.60689891045804 l -8.25413799979886 -33.58403212058925 a55.58349328214971,55.58349328214971 0 0,0 0.9310931586922564,-0.22035966824901904 l 7.6748211541440705 33.72113770097914" fill="#b7ff1f" stroke="none" /><path d="M 99.27714615592234 79.0124445844662 l -1.4588883244676802 -42.357801380870995 a63.382917466410746,63.382917466410746 0 0,0 1.0907094360001013,-0.028169806825603574 l 0.7295522532727001 42.37663797983896" fill="#4bff2c" stroke="none" /></svg>