<?xml version="1.0" encoding="utf-8" ?>
<svg baseProfile="full" height="200mm" version="1.1" viewBox="0,0,200,200" width="200mm" xmlns="http://www.w3.org/2000/svg" xmlns:ev="http://www.w3.org/2001/xml-events" xmlns:xlink="http://www.w3.org/1999/xlink"><defs /><rect fill="#1a1a1a" height="200" width="200" x="0" y="0" /><text alignment-baseline="middle" fill="#e1ed5e" style="dominant-baseline: central; font-size:9.0px; font-family:Arial;" text-anchor="middle" x="100.0" y="100.0">2019</text><line stroke="#e1ed5e" stroke-width="0.3" x1="100.0" x2="100.0" y1="15.0" y2="10.0" /><path d="M 100.0 14.0 a86.0,86.0 0 0,1 42.46469731375804,11.215312516191453" fill="none" id="id1" stroke="none" /><text fill="#e1ed5e" style="font-size:6.75px; font-family:Arial;" text-anchor="middle"><textPath startOffset="22.20632615414155" xlink:href="#id1">January</textPath></text><line stroke="#e1ed5e" stroke-width="0.3" x1="143.23703022742887" x2="145.7803849466894" y1="26.81831364943548" y2="22.513508569990506" /><path d="M 143.74570117128098 25.957352633546492 a86.0,86.0 0 0,1 28.547481713284135,27.462654790039103" fill="none" id="id2" stroke="none" /><text fill="#e1ed5e" style="font-size:6.75px; font-family:Arial;" text-anchor="middle"><textPath startOffset="19.985693538727396" xlink:href="#id2">February</textPath></text><line stroke="#e1ed5e" stroke-width="0.3" x1="172.23445277983987" x2="176.4835382374775" y1="55.19839476539836" y2="52.563006222186495" /><path d="M 173.08426987136738 54.67131705675599 a86.0,86.0 0 0,1 12.851231095245387,41.99856678651699" fill="none" id="id3" stroke="none" /><text fill="#e1ed5e" style="font-size:6.75px; font-family:Arial;" text-anchor="middle"><textPath startOffset="22.20632615414155" xlink:href="#id3">March</textPath></text><line stroke="#e1ed5e" stroke-width="0.3" x1="184.98032266829074" x2="189.97916517819016" y1="98.17113171792111" y2="98.06355123074" /><path d="M 185.9800911702706 98.14961562048488 a86.0,86.0 0 0,1 -9.607161424134198,41.387399972396054" fill="none" id="id4" stroke="none" /><text fill="#e1ed5e" style="font-size:6.75px; font-family:Arial;" text-anchor="middle"><textPath startOffset="21.466115282336823" xlink:href="#id4">April</textPath></text><line stroke="#e1ed5e" stroke-width="0.3" x1="174.80103733775053" x2="179.2010983576182" y1="140.37084112569926" y2="142.7455964860345" /><path d="M 175.68104954172406 140.8457921977663 a86.0,86.0 0 0,1 -30.038265399797805,32.042727171017184" fill="none" id="id5" stroke="none" /><text fill="#e1ed5e" style="font-size:6.75px; font-family:Arial;" text-anchor="middle"><textPath startOffset="22.206326154141568" xlink:href="#id5">May</textPath></text><line stroke="#e1ed5e" stroke-width="0.3" x1="143.8653032363475" x2="146.44561519142675" y1="172.8068346515853" y2="177.08958963109032" /><path d="M 144.38136562736335 173.6633856474863 a86.0,86.0 0 0,1 -40.68145358897372,12.25698825130547" fill="none" id="id6" stroke="none" /><text fill="#e1ed5e" style="font-size:6.75px; font-family:Arial;" text-anchor="middle"><textPath startOffset="21.466115282336833" xlink:href="#id6">June</textPath></text><line stroke="#e1ed5e" stroke-width="0.3" x1="102.19456741930631" x2="102.32365962044197" y1="184.97166512339345" y2="189.96999836594603" /><path d="M 102.22038585953345 185.97133177190398 a86.0,86.0 0 0,1 -42.740103519485714,-10.115201625700543" fill="none" id="id7" stroke="none" /><text fill="#e1ed5e" style="font-size:6.75px; font-family:Arial;" text-anchor="middle"><textPath startOffset="22.20632615414155" xlink:href="#id7">July</textPath></text><line stroke="#e1ed5e" stroke-width="0.3" x1="58.666819895761336" x2="56.23545636021788" y1="174.27360380694188" y2="178.64263932499728" /><path d="M 58.180547188652646 175.14741091055294 a86.0,86.0 0 0,1 -31.652253787137756,-30.449443065178592" fill="none" id="id8" stroke="none" /><text fill="#e1ed5e" style="font-size:6.75px; font-family:Arial;" text-anchor="middle"><textPath startOffset="22.20632615414155" xlink:href="#id8">August</textPath></text><line stroke="#e1ed5e" stroke-width="0.3" x1="26.63291911575756" x2="22.317208475507996" y1="142.92168965132927" y2="145.44649492493687" /><path d="M 25.769776987707644 143.4266507060508 a86.0,86.0 0 0,1 -11.730757126820373,-40.83630448921669" fill="none" id="id9" stroke="none" /><text fill="#e1ed5e" style="font-size:6.75px; font-family:Arial;" text-anchor="middle"><textPath startOffset="21.46611528233685" xlink:href="#id9">September</textPath></text><path d="M 79.10278846688536 102.07522291339032 l -29.165467423463717 2.896312083600261 a50.308925495738194,50.308925495738194 0 0,0 -0.0781594764364284,-0.8624833095518715 l 29.21100149617722 -2.3938473854998232" fill="#faff18" stroke="none" /><path d="M 79.04373962182676 101.35467743843564 l -17.117256357122024 1.106512353657518 a38.152983261935255,38.152983261935255 0 0,0 -0.03672433410717324,-0.6557376554958604 l 17.133767042116727 -0.81170298182622" fill="#ff3b05" stroke="none" /><line stroke="#e1ed5e" stroke-width="0.3" x1="15.007084014347285" x2="10.007500721073583" y1="101.09737516637583" y2="101.16192664675087" /><path d="M 14.007167355692545 101.11028546245083 a86.0,86.0 0 0,1 10.666146001902534,-42.60595125391555" fill="none" id="id10" stroke="none" /><text fill="#e1ed5e" style="font-size:6.75px; font-family:Arial;" text-anchor="middle"><textPath startOffset="22.20632615414155" xlink:href="#id10">October</textPath></text><path d="M 79.00019446554 99.90962569577889 l -16.320919392104713 -0.0702383520595007 a37.321070529523475,37.321070529523475 0 0,0 0.008294150977167711,-0.6423911336566951 l 16.317292234009827 0.35116574377666776" fill="#ff2d04" stroke="none" /><path d="M 79.81627453868168 94.20196356495316 l -13.525939590603903 -3.8855012527227335 a35.072958530230096,35.072958530230096 0 0,0 0.17168063370253847,-0.5788217498302402 l 13.457053059789658 4.117752389299513" fill="#ff0400" stroke="none" /><path d="M 80.02781315780177 93.51064311812611 l -13.336548383784711 -4.333307249654783 a35.02287682727554,35.02287682727554 0 0,0 0.191229420805395,-0.5717516280680276 l 13.259981669207544 4.562231980645133" fill="#ff0300" stroke="none" /><path d="M 80.38941819471856 92.48833698450439 l -34.140755852324965 -13.07731996956398 a57.55964315682551,57.55964315682551 0 0,0 0.362369337706691,-0.9221904389504145 l 33.91059296473659 13.663059413410158" fill="#91ff24" stroke="none" /><path d="M 81.10775173730289 90.83032412892265 l -40.22164077197542 -19.52226139279359 a65.70904915426401,65.70904915426401 0 0,0 0.5026428954754539,-1.0132974055932773 l 39.879637863546556 20.21171838688583" fill="#30ff39" stroke="none" /><path d="M 81.43458229118936 90.18545643968196 l -17.397853569017045 -9.197314834888866 a40.6793269443095,40.6793269443095 0 0,0 0.332586236456273,-0.6162317850581231 l 17.2369592333423 9.495427603279461" fill="#ff6809" stroke="none" /><path d="M 81.6062741919709 89.86733742301443 l -25.829850263564968 -14.229045266104764 a50.48977608974076,50.48977608974076 0 0,0 0.42589895367398645,-0.7576267155037021 l 25.58109366859855 14.67155549154325" fill="#f7ff18" stroke="none" /><line stroke="#e1ed5e" stroke-width="0.3" x1="26.266209847984243" x2="21.928928074336255" y1="57.711370442889674" y2="55.22380399835377" /><path d="M 25.398753493254645 57.213857153982495 a86.0,86.0 0 0,1 29.58750427330803,-30.492523968695096" fill="none" id="id11" stroke="none" /><text fill="#e1ed5e" style="font-size:6.75px; font-family:Arial;" text-anchor="middle"><textPath startOffset="21.46611528233685" xlink:href="#id11">November</textPath></text><path d="M 81.96595687620814 89.24020034530311 l -50.544382136734505 -30.156710934345025 a79.85713023892595,79.85713023892595 0 0,0 0.7144711031473343,-1.1744026360466748 l 50.01779523530095 31.022281343598774" fill="#47fffb" stroke="none" /><path d="M 82.34701348167596 88.62581576622439 l -13.413400744060647 -8.64253145528902 a36.95658702468754,36.95658702468754 0 0,0 0.34915767673265885,-0.5317910959951387 l 13.262646431970067 8.872140615261825" fill="#ff2603" stroke="none" /><path d="M 82.54541684631803 88.32363383020206 l -11.745593936874625 -7.857297678276342 a35.13138718367708,35.13138718367708 0 0,0 0.3405662341769251,-0.49973892498859035 l 11.60860323702896 8.058314626535347" fill="#ff0500" stroke="none" /><path d="M 82.95767976084542 87.72973835380427 l -11.806866474920193 -8.500799118662389 a35.54873470829837,35.54873470829837 0 0,0 0.3618139849998866,-0.493513868925111 l 11.658789877406672 8.702775431259003" fill="#ff0c01" stroke="none" /><path d="M 83.6137871275137 86.86637796730984 l -47.723587602746164 -38.250666367874636 a82.1608885748355,82.1608885748355 0 0,0 0.8939946157949239,-1.0959316918513273 l 47.05809449487485 39.06648222933405" fill="#4ae7ff" stroke="none" /><path d="M 85.05521093208273 85.24692304244772 l -9.99531359115573 -9.867093470174972 a35.04513536192201,35.04513536192201 0 0,0 0.4274909075245174,-0.42565512571144415 l 9.823986883463897 10.037684446536527" fill="#ff0300" stroke="none" /><path d="M 85.31137513191541 84.99185889309783 l -19.461146758050507 -19.884477905183292 a48.82316830808638,48.82316830808638 0 0,0 0.6056787354374851,-0.5826624636122321 l 19.115984779000595 20.21652345555783" fill="#ffed16" stroke="none" /><path d="M 87.22198572758235 83.33499621200491 l -15.340050433561329 -20.00639482264146 a46.21057280395708,46.21057280395708 0 0,0 0.6354038397224071,-0.47857299877583814 l 14.993400440080531 20.267484410923156" fill="#ffc412" stroke="none" /><path d="M 88.09926311788651 82.69761687909137 l -16.551080031561003 -24.063478640663053 a50.205979772998276,50.205979772998276 0 0,0 0.7162607548909768,-0.4836224590215097 l 16.134414582263485 24.344813011983227" fill="#fbff18" stroke="none" /><path d="M 88.39885842347998 82.49532879139004 l -13.890321480414894 -20.958757282013188 a46.143797200017666,46.143797200017666 0 0,0 0.6658615289108588,-0.43309486054703417 l 13.527492925719747 21.194751066719757" fill="#ffc312" stroke="none" /><path d="M 89.00827224532344 82.1063720568725 l -9.436876189149505 -15.362457590177915 a39.02941306363998,39.02941306363998 0 0,0 0.5754755627506412,-0.34671758751724274 l 9.171038560181218 15.522621787153778" fill="#ff4b07" stroke="none" /><line stroke="#e1ed5e" stroke-width="0.3" x1="56.76296977257108" x2="54.21961505331056" y1="26.818313649435495" y2="22.513508569990535" /><path d="M 56.25429882871898 25.957352633546506 a86.0,86.0 0 0,1 42.26535254187918,-11.944610805530505" fill="none" id="id12" stroke="none" /><text fill="#e1ed5e" style="font-size:6.75px; font-family:Arial;" text-anchor="middle"><textPath startOffset="22.20632615414155" xlink:href="#id12">December</textPath></text><path d="M 89.94658935756843 81.56283822128135 l -8.225033438636437 -15.084062268726004 a38.180806430243344,38.180806430243344 0 0,0 0.579720917039382,-0.3096668368756781 l 7.96416747506875 15.223407832103431" fill="#ff3c05" stroke="none" /><path d="M 90.26544431104013 81.39251694778311 l -7.764257198366618 -14.841281805548604 a37.749547321468,37.749547321468 0 0,0 0.5783581404263812,-0.29625750307843923 l 7.507638570351473 14.97273183393955" fill="#ff3405" stroke="none" /><path d="M 91.56875222667455 80.76684994638697 l -24.091779454221165 -54.957560465433744 a81.0062270900499,81.0062270900499 0 0,0 1.281889761054777,-0.5488382965869543 l 23.14220593537608 55.36411828998348" fill="#48f5ff" stroke="none" /><path d="M 91.90106846888425 80.62456947434976 l -5.365188931092891 -12.835377727542884 a34.91158415404319,34.91158415404319 0 0,0 0.5564509692657595,-0.2269903220152635 l 5.143454092238751 12.925828935741725" fill="#ff0100" stroke="none" /><path d="M 92.23578459929587 80.48803036053334 l -5.143454092238751 -12.925828935741725 a34.91158415404319,34.91158415404319 0 0,0 0.5602757903068117,-0.2173783022323884 l 4.920195136932262 13.012449941864665" fill="#ff0100" stroke="none" /><path d="M 92.91201910852362 80.23233633223022 l -4.69547822162018 -13.095215078238164 a34.91158415404319,34.91158415404319 0 0,0 0.5674262827825708,-0.19796388835571727 l 4.469369934774323 13.174099819766091" fill="#ff0100" stroke="none" /><path d="M 93.94186890950719 79.89281104454417 l -18.17439327147842 -60.321566866367455 a84.0,84.0 0 0,0 1.3880391291063148,-0.4052066843252047 l 17.133363924648684 60.625471879611354" fill="#4dd2ff" stroke="none" /><path d="M 96.75951476605007 79.25152402106235 l -3.3367996164278724 -21.36516653821976 a42.62416640904473,42.62416640904473 0 0,0 0.725891623392648,-0.10697755608559059 l 2.9685390126065756 21.41943857846632" fill="#ff890c" stroke="none" /><path d="M 97.47563105711357 79.15227682838746 l -1.6672674796125297 -13.76927527410085 a34.869849401581064,34.869849401581064 0 0,0 0.5964957594595073,-0.06702324874850674 l 1.4300050166433043 13.795934476319957" fill="#ff0000" stroke="none" /><path d="M 97.83486435360386 79.11191278185805 l -1.4460692655765084 -13.950913880667779 a35.02565914410634,35.02565914410634 0 0,0 0.6002311730031415,-0.056999182345081986 l 1.2057129654831307 13.973738607528041" fill="#ff0300" stroke="none" /><path d="M 98.55514903715128 79.0497635885617 l -1.7284228251858473 -25.062008288505464 a46.1215386653712,46.1215386653712 0 0,0 0.7924953103036501,-0.047805481328329374 l 1.2967654660425743 25.0880470392141" fill="#ffc212" stroke="none" /></svg>