<?xml version="1.0" encoding="utf-8" ?>
<svg baseProfile="full" height="200mm" version="1.1" viewBox="0,0,200,200" width="200mm" xmlns="http://www.w3.org/2000/svg" xmlns:ev="http://www.w3.org/2001/xml-events" xmlns:xlink="http://www.w3.org/1999/xlink"><defs /><rect fill="#1a1a1a" height="200" width="200" x="0" y="0" /><text alignment-baseline="middle" fill="#e1ed5e" style="dominant-baseline: central; font-size:9.0px; font-family:Arial;" text-anchor="middle" x="100.0" y="100.0">2017</text><line stroke="#e1ed5e" stroke-width="0.3" x1="100.0" x2="100.0" y1="15.0" y2="10.0" /><path d="M 100.0 14.0 a86.0,86.0 0 0,1 42.46469731375804,11.215312516191453" fill="none" id="id49" stroke="none" /><text fill="#e1ed5e" style="font-size:6.75px; font-family:Arial;" text-anchor="middle"><textPath startOffset="22.20632615414155" xlink:href="#id49">January</textPath></text><path d="M 100.0 79.0 l 0.0 -63.0 a84.0,84.0 0 0,0 1.4459219170901134,0.012445506434235476 l -1.084441437817585 62.990665870174325" fill="#4dd2ff" stroke="none" /><path d="M 101.80526077348638 79.07773832637324 l 3.65081754638093 -42.31153811675413 a63.46875,63.46875 0 0,0 1.0876575399995745,0.10328618912153728 l -4.378600213470748 42.24242638311741" fill="#6dff28" stroke="none" /><line stroke="#e1ed5e" stroke-width="0.3" x1="143.23703022742887" x2="145.7803849466894" y1="26.81831364943548" y2="22.513508569990506" /><path d="M 143.74570117128098 25.957352633546492 a86.0,86.0 0 0,1 28.547481713284135,27.462654790039103" fill="none" id="id50" stroke="none" /><text fill="#e1ed5e" style="font-size:6.75px; font-family:Arial;" text-anchor="middle"><textPath startOffset="19.985693538727396" xlink:href="#id50">February</textPath></text><line stroke="#e1ed5e" stroke-width="0.3" x1="172.23445277983987" x2="176.4835382374775" y1="55.19839476539836" y2="52.563006222186495" /><path d="M 173.08426987136738 54.67131705675599 a86.0,86.0 0 0,1 12.851231095245387,41.99856678651699" fill="none" id="id51" stroke="none" /><text fill="#e1ed5e" style="font-size:6.75px; font-family:Arial;" text-anchor="middle"><textPath startOffset="22.20632615414155" xlink:href="#id51">March</textPath></text><path d="M 118.56541770881063 90.18545643968196 l 18.691811735622853 -9.881361323396105 a42.14296875,42.14296875 0 0,0 0.33351256499419063,0.6442401206514219 l -18.85913373377716 9.55814848048434" fill="#ff0d01" stroke="none" /><line stroke="#e1ed5e" stroke-width="0.3" x1="184.98032266829074" x2="189.97916517819016" y1="98.17113171792111" y2="98.06355123074" /><path d="M 185.9800911702706 98.14961562048488 a86.0,86.0 0 0,1 -9.607161424134198,41.387399972396054" fill="none" id="id52" stroke="none" /><text fill="#e1ed5e" style="font-size:6.75px; font-family:Arial;" text-anchor="middle"><textPath startOffset="21.466115282336823" xlink:href="#id52">April</textPath></text><path d="M 120.32669344350535 105.2749913415812 l 19.872972607712818 5.157245999135197 a41.53125,41.53125 0 0,0 -0.18552983116336022,0.6904255205501434 l -19.78125470020768 -5.498562452860889" fill="#ff0000" stroke="none" /><path d="M 119.79798401119884 107.00284435728193 l 33.27652223310876 11.770405805877875 a56.296875,56.296875 0 0,0 -0.3310142020819703,0.9108089191866887 l -33.06898377002156 -12.341462522070696" fill="#e1ff1b" stroke="none" /><path d="M 119.67450827220406 107.3425965602758 l 23.12193885115053 8.629189930770545 a45.6796875,45.6796875 0 0,0 -0.2812688047681421,0.7343040940203155 l -22.969975766788885 -9.025917591624005" fill="#ff5608" stroke="none" /><line stroke="#e1ed5e" stroke-width="0.3" x1="174.80103733775053" x2="179.2010983576182" y1="140.37084112569926" y2="142.7455964860345" /><path d="M 175.68104954172406 140.8457921977663 a86.0,86.0 0 0,1 -30.038265399797805,32.042727171017184" fill="none" id="id53" stroke="none" /><text fill="#e1ed5e" style="font-size:6.75px; font-family:Arial;" text-anchor="middle"><textPath startOffset="22.206326154141568" xlink:href="#id53">May</textPath></text><line stroke="#e1ed5e" stroke-width="0.3" x1="143.8653032363475" x2="146.44561519142675" y1="172.8068346515853" y2="177.08958963109032" /><path d="M 144.38136562736335 173.6633856474863 a86.0,86.0 0 0,1 -40.68145358897372,12.25698825130547" fill="none" id="id54" stroke="none" /><text fill="#e1ed5e" style="font-size:6.75px; font-family:Arial;" text-anchor="middle"><textPath startOffset="21.466115282336833" xlink:href="#id54">June</textPath></text><line stroke="#e1ed5e" stroke-width="0.3" x1="102.19456741930631" x2="102.32365962044197" y1="184.97166512339345" y2="189.96999836594603" /><path d="M 102.22038585953345 185.97133177190398 a86.0,86.0 0 0,1 -42.740103519485714,-10.115201625700543" fill="none" id="id55" stroke="none" /><text fill="#e1ed5e" style="font-size:6.75px; font-family:Arial;" text-anchor="middle"><textPath startOffset="22.20632615414155" xlink:href="#id55">July</textPath></text><path d="M 100.18074693466247 120.99922214144158 l 0.183369379026985 21.303898355547314 a42.3046875,42.3046875 0 0,0 -0.7282326273788662,0.0 l 0.18336937902697031 -21.303898355547314" fill="#ff1001" stroke="none" /><path d="M 99.81925306533755 120.99922214144158 l -0.2463080437755014 28.616127494085006 a49.6171875,49.6171875 0 0,0 -0.853983411269221,-0.014702098883949776 l 0.7388511449373902 -28.607647917921895" fill="#ffa40f" stroke="none" /><path d="M 99.45781275523022 120.99299961872073 l -0.575468827875068 22.281632407816318 a43.2890625,43.2890625 0 0,0 -0.7447360607778285,-0.025650215744424977 l 0.9589252403275396 -22.2684253936458" fill="#ff2503" stroke="none" /><line stroke="#e1ed5e" stroke-width="0.3" x1="58.666819895761336" x2="56.23545636021788" y1="174.27360380694188" y2="178.64263932499728" /><path d="M 58.180547188652646 175.14741091055294 a86.0,86.0 0 0,1 -31.652253787137756,-30.449443065178592" fill="none" id="id56" stroke="none" /><text fill="#e1ed5e" style="font-size:6.75px; font-family:Arial;" text-anchor="middle"><textPath startOffset="22.20632615414155" xlink:href="#id56">August</textPath></text><line stroke="#e1ed5e" stroke-width="0.3" x1="26.63291911575756" x2="22.317208475507996" y1="142.92168965132927" y2="145.44649492493687" /><path d="M 25.769776987707644 143.4266507060508 a86.0,86.0 0 0,1 -11.730757126820373,-40.83630448921669" fill="none" id="id57" stroke="none" /><text fill="#e1ed5e" style="font-size:6.75px; font-family:Arial;" text-anchor="middle"><textPath startOffset="21.46611528233685" xlink:href="#id57">September</textPath></text><line stroke="#e1ed5e" stroke-width="0.3" x1="15.007084014347285" x2="10.007500721073583" y1="101.09737516637583" y2="101.16192664675087" /><path d="M 14.007167355692545 101.11028546245083 a86.0,86.0 0 0,1 10.666146001902534,-42.60595125391555" fill="none" id="id58" stroke="none" /><text fill="#e1ed5e" style="font-size:6.75px; font-family:Arial;" text-anchor="middle"><textPath startOffset="22.20632615414155" xlink:href="#id58">October</textPath></text><line stroke="#e1ed5e" stroke-width="0.3" x1="26.266209847984243" x2="21.928928074336255" y1="57.711370442889674" y2="55.22380399835377" /><path d="M 25.398753493254645 57.213857153982495 a86.0,86.0 0 0,1 29.58750427330803,-30.492523968695096" fill="none" id="id59" stroke="none" /><text fill="#e1ed5e" style="font-size:6.75px; font-family:Arial;" text-anchor="middle"><textPath startOffset="21.46611528233685" xlink:href="#id59">November</textPath></text><path d="M 84.80347519578584 85.50635884689758 l -33.479843709284324 -31.93130316542875 a67.265625,67.265625 0 0,0 0.8063410303259638,-0.8310053111285102 l 32.925238415255244 32.50287267210739" fill="#35ff2f" stroke="none" /><path d="M 89.00827224532344 82.1063720568725 l -19.542212403124726 -31.813113072993414 a58.3359375,58.3359375 0 0,0 0.8601437691788806,-0.5182269967159562 l 18.991706567728198 32.14478667916799" fill="#bfff1e" stroke="none" /><line stroke="#e1ed5e" stroke-width="0.3" x1="56.76296977257108" x2="54.21961505331056" y1="26.818313649435495" y2="22.513508569990535" /><path d="M 56.25429882871898 25.957352633546506 a86.0,86.0 0 0,1 42.26535254187918,-11.944610805530505" fill="none" id="id60" stroke="none" /><text fill="#e1ed5e" style="font-size:6.75px; font-family:Arial;" text-anchor="middle"><textPath startOffset="22.20632615414155" xlink:href="#id60">December</textPath></text><path d="M 89.63071344664047 81.73862282372117 l -18.33141729968916 -32.28350607949293 a58.125,58.125 0 0,0 0.8742993963184452,-0.48654666746734626 l 17.77299381429867 32.59426814452046" fill="#c2ff1e" stroke="none" /><path d="M 90.58718382345135 81.22770947309562 l -17.396901326299716 -34.69521552740365 a59.8125,59.8125 0 0,0 0.9243273734256617,-0.453563427830262 l 16.79710268586363 34.98953411536874" fill="#a6ff21" stroke="none" /><path d="M 91.23893434514133 80.91482961587045 l -15.810985674002763 -34.442768427608804 a58.8984375,58.8984375 0 0,0 0.9250360896127187,-0.4150367292544228 l 15.21576746592327 34.70982548737975" fill="#b5ff1f" stroke="none" /><path d="M 92.91201910852362 80.23233633223022 l -16.636187293275484 -46.39664809522306 a70.2890625,70.2890625 0 0,0 1.1424248547033564,-0.39856959970596295 l 15.835080434508841 46.67613854810123" fill="#34ff5d" stroke="none" /><path d="M 93.25333710446033 80.11325718540243 l -9.126066327448747 -26.900370860817258 a49.40625,49.40625 0 0,0 0.8077149673136174,-0.266290925515106 l 8.661668537892721 27.053475510591596" fill="#ff9f0e" stroke="none" /></svg>