<?xml version="1.0" encoding="utf-8" ?>
<svg baseProfile="full" height="200mm" version="1.1" viewBox="0,0,200,200" width="200mm" xmlns="http://www.w3.org/2000/svg" xmlns:ev="http://www.w3.org/2001/xml-events" xmlns:xlink="http://www.w3.org/1999/xlink"><defs /><rect fill="#1a1a1a" height="200" width="200" x="0" y="0" /><text alignment-baseline="middle" fill="#e1ed5e" style="dominant-baseline: central; font-size:9.0px; font-family:Arial;" text-anchor="middle" x="100.0" y="100.0">2020</text><line stroke="#e1ed5e" stroke-width="0.3" x1="100.0" x2="100.0" y1="15.0" y2="10.0" /><path d="M 100.0 14.0 a86.0,86.0 0 0,1 42.35913384403234,11.155469271406648" fill="none" id="id13" stroke="none" /><text fill="#e1ed5e" style="font-size:6.75px; font-family:Arial;" text-anchor="middle"><textPath startOffset="22.145653131862478" xlink:href="#id13">January</textPath></text><path d="M 100.0 79.0 l 0.0 -24.800718008906074 a45.800718008906074,45.800718008906074 0 0,0 0.7862302283432461,0.0067488409100276885 l -0.42573730349439126 24.79706356619048" fill="#c8ff1d" stroke="none" /><path d="M 101.44090949804482 79.04949213459386 l 0.3945353356516095 -5.736457191770565 a26.75000862991474,26.75000862991474 0 0,0 0.45784678531530637,0.035440236808848266 l -0.49295111574214934 5.728839187966663" fill="#ff4206" stroke="none" /><path d="M 101.80034050326958 79.07731436759882 l 0.2920604851777901 -3.3941855476360736 a24.406727881528532,24.406727881528532 0 0,0 0.417123109191608,0.03950199212170674 l -0.35028315775441105 3.3886718000091833" fill="#ff2103" stroke="none" /><path d="M 104.64783097203109 79.52079915486377 l 2.418656215380875 -10.657045556989495 a31.928061030757014,31.928061030757014 0 0,0 0.5334538099582486,0.1258936466307279 l -2.6012421790790086 10.61395576671254" fill="#ff890c" stroke="none" /><path d="M 106.04205211174951 79.88797359093562 l 8.600053703953304 -28.626781764581324 a50.89069349994822,50.89069349994822 0 0,0 0.8345089050650483,0.25853299197431345 l -9.090203241889983 28.474932184800362" fill="#8fff24" stroke="none" /><line stroke="#e1ed5e" stroke-width="0.3" x1="143.13028292997686" x2="145.6673583964461" y1="26.7553504044142" y2="22.446841604673864" /><path d="M 143.63769802327073 25.89364864446614 a86.0,86.0 0 0,1 29.32050498858742,28.57503671076993" fill="none" id="id14" stroke="none" /><text fill="#e1ed5e" style="font-size:6.75px; font-family:Arial;" text-anchor="middle"><textPath startOffset="20.669276256404974" xlink:href="#id14">February</textPath></text><path d="M 110.65571695917076 81.90426304109057 l 4.001273398524613 -6.795036992613374 a28.88560185025372,28.88560185025372 0 0,0 0.42512349233511404,0.2552744423571802 l -4.117329647417161 6.725348549720273" fill="#ff6008" stroke="none" /><path d="M 111.27062007382361 82.28071324371311 l 4.080439895552558 -6.415129258860749 a28.60288584348787,28.60288584348787 0 0,0 0.4120373298365585,0.26707761910626626 l -4.189962857646123 6.344137798050588" fill="#ff5c08" stroke="none" /><path d="M 117.81537515405839 88.88188828441811 l 7.400984924972059 -4.618761967660957 a29.723963547240153,29.723963547240153 0 0,0 0.26642867442621115,0.43519121678300327 l -7.479181563853673 4.491033634753399" fill="#ff6b09" stroke="none" /><line stroke="#e1ed5e" stroke-width="0.3" x1="172.87174338648825" x2="177.1583165268699" y1="56.24261187166439" y2="53.66864786411523" /><path d="M 173.72905801456457 55.72781907015455 a86.0,86.0 0 0,1 12.242430191666344,42.057860355516425" fill="none" id="id15" stroke="none" /><text fill="#e1ed5e" style="font-size:6.75px; font-family:Arial;" text-anchor="middle"><textPath startOffset="22.145653131862474" xlink:href="#id15">March</textPath></text><path d="M 118.18653347947321 89.5 l 5.661436670851234 -3.26863198591598 a27.53726397183196,27.53726397183196 0 0,0 0.2328428238093476,0.4114109591026546 l -5.716712859681958 3.1709642567142073" fill="#ff4d07" stroke="none" /><path d="M 118.70294669586156 90.45014215332178 l 5.847374373448102 -2.9857110192745577 a27.565535572508544,27.565535572508544 0 0,0 0.21157216266389897,0.42328605190090185 l -5.897766449323738 2.8848931112099057" fill="#ff4e07" stroke="none" /><path d="M 120.05942366710727 93.78553927170692 l 5.193333477279316 -1.6089079865441704 a26.436846283958715,26.436846283958715 0 0,0 0.13057747543193465,0.4346499476906316 l -5.220187272714878 1.5195204352628155" fill="#ff3e05" stroke="none" /><path d="M 120.51834098615036 95.52812308129327 l 6.011224410558119 -1.310118382031276 a27.15233525492768,27.15233525492768 0 0,0 0.09534644562679129,0.45626725812606206 l -6.032828567009278 1.2067346726198096" fill="#ff4806" stroke="none" /><path d="M 120.592083275326 95.88100663000786 l 5.372821341314908 -1.074714742900534 a26.479253684973592,26.479253684973592 0 0,0 0.08533091783159631,0.44648741950863347 l -5.390478551428662 0.9823247583585858" fill="#ff3e05" stroke="none" /><path d="M 120.7213421655516 96.59031103205396 l 5.449464782638509 -0.896707356218611 a26.522748455245264,26.522748455245264 0 0,0 0.070068690889959,0.4498912594008559 l -5.464054965666733 0.8030279148863139" fill="#ff3f05" stroke="none" /><path d="M 120.96210409425399 98.7389718711861 l 4.623833931522768 -0.27815836732786403 a25.632193033932825,25.632193033932825 0 0,0 0.022652036259623975,0.43944345189658535 l -4.627927557238964 0.19874312205454805" fill="#ff3204" stroke="none" /><path d="M 120.99303781780057 99.45929381324524 l 7.093819158357202 -0.18271161801036842 a28.096171769822913,28.096171769822913 0 0,0 0.008279765753008459,0.48225484589978684 l -7.0959103557088765 0.06090985614151519" fill="#ff5507" stroke="none" /><line stroke="#e1ed5e" stroke-width="0.3" x1="184.99686870605535" x2="189.99668451229388" y1="99.2704041080226" y2="99.22748670261217" /><path d="M 185.99683186730306 99.26182062694052 a86.0,86.0 0 0,1 -10.086455211305974,41.156179273409016" fill="none" id="id16" stroke="none" /><text fill="#e1ed5e" style="font-size:6.75px; font-family:Arial;" text-anchor="middle"><textPath startOffset="21.40746469413373" xlink:href="#id16">April</textPath></text><path d="M 120.99922638620191 99.81974689727618 l 1.1340843550420419 -0.009734750223046339 a22.13412613483379,22.13412613483379 0 0,0 0.0,0.3799757058937463 l -1.1340843550420419 -0.0097347502230462" fill="#ff0000" stroke="none" /><path d="M 120.99922638620191 100.18025310272382 l 6.9447715969832355 0.05961251167267116 a27.94502744312886,27.94502744312886 0 0,0 -0.008235224467090133,0.479660539295464 l -6.942724940917477 -0.17881996693720617" fill="#ff5307" stroke="none" /><path d="M 120.99303781780057 100.54070618675476 l 4.946976860202823 0.1274165757838148 a25.94861748765922,25.94861748765922 0 0,0 -0.015291536352804933,0.44519639638218006 l -4.944060636853172 -0.21231923673010558" fill="#ff3705" stroke="none" /><path d="M 120.98066250479742 100.90099992219065 l 7.634994101473108 0.32787949807496874 a28.64203113673237,28.64203113673237 0 0,0 -0.025311932030147994,0.49104471924788556 l -7.628240579986388 -0.45889601069958497" fill="#ff5d08" stroke="none" /><path d="M 120.9064616781168 101.97986365728391 l 6.4951553420225485 0.6150979638770828 a27.524215540750458,27.524215540750458 0 0,0 -0.048583658043550734,0.4700028200296654 l -6.483639291497332 -0.7265053061896797" fill="#ff4d07" stroke="none" /><path d="M 120.86939407059847 102.33845913500097 l 9.757877133703483 1.0933904858154677 a30.818944388829436,30.818944388829436 0 0,0 -0.0634252609602216,0.5252521460622805 l -9.737669786483597 -1.2607363088011567" fill="#ff7a0b" stroke="none" /><path d="M 120.65975698304385 103.76489593502545 l 7.528912094652693 1.3720185849032989 a28.652904829300287,28.652904829300287 0 0,0 -0.09233563365167502,0.483139052590466 l -7.504250168718858 -1.5010602025270794" fill="#ff5d08" stroke="none" /><path d="M 120.35273937422433 105.17358676015961 l 5.327234157377059 1.3541620908181244 a26.496651593082262,26.496651593082262 0 0,0 -0.11584149236652634,0.4398690149614237 l -5.3032031842058025 -1.4454116101523513" fill="#ff3f05" stroke="none" /><path d="M 120.05942366710727 106.21446072829308 l 7.801425549568987 2.416901577386651 a29.16723048776278,29.16723048776278 0 0,0 -0.1522741716436281,0.47699667385516714 l -7.758786662148104 -2.5504672849332017" fill="#ff6409" stroke="none" /><path d="M 119.83427380445688 106.89939002012753 l 16.207221939390426 5.637713102331763 a38.1597742414305,38.1597742414305 0 0,0 -0.22052684348102478,0.6168528298743521 l -16.10805492586546 -5.915100888587037" fill="#ffda14" stroke="none" /><path d="M 119.71291397450082 107.23885506374661 l 15.627293638869533 5.738558684764432 a37.64762332148158,37.64762332148158 0 0,0 -0.22798202446687288,0.6047494057922796 l -15.52648093058822 -6.00597637075087" fill="#ffd413" stroke="none" /><path d="M 119.31412917781788 108.2440532568976 l 32.71247706547117 13.96301125512379 a56.56784838965791,56.56784838965791 0 0,0 -0.38888003212703587,0.8898336168701624 l -32.46796315132717 -14.522506941769798" fill="#53ff2b" stroke="none" /><path d="M 119.0197475246899 108.90220220490707 l 14.79612793732651 6.925334974965854 a37.33663571403915,37.33663571403915 0 0,0 -0.27668356929043925,0.5781622451978613 l -14.67506511007616 -7.1783097222288195" fill="#ffd013" stroke="none" /><path d="M 118.8641267826498 109.22738970284198 l 6.452574555189235 3.156277557577447 a28.183161310366252,28.183161310366252 0 0,0 -0.2163125898082181,0.43277008167578757 l -6.397442052169285 -3.2665794954169804" fill="#ff5608" stroke="none" /><path d="M 118.70294669586154 109.54985784667822 l 14.547740615756435 7.428180015161048 a37.33446097552556,37.33446097552556 0 0,0 -0.296350161609036,0.5682905101188129 l -14.418082385172449 -7.676816768384364" fill="#ffd013" stroke="none" /><line stroke="#e1ed5e" stroke-width="0.3" x1="174.33088141563837" x2="178.70328620479359" y1="141.23008692659167" y2="143.65538615756765" /><path d="M 175.20536237346943 141.71514677278685 a86.0,86.0 0 0,1 -30.301960400862466,31.631185727798858" fill="none" id="id17" stroke="none" /><text fill="#e1ed5e" style="font-size:6.75px; font-family:Arial;" text-anchor="middle"><textPath startOffset="22.145653131862474" xlink:href="#id17">May</textPath></text><path d="M 117.81537515405839 111.11811171558189 l 18.56196169266955 11.584036932976911 a42.88004418516345,42.88004418516345 0 0,0 -0.3950728539109171,0.6211201462048119 l -18.360371147132742 -11.900970753860394" fill="#eaff1a" stroke="none" /><path d="M 117.62189284568427 111.42229804090321 l 5.198242442362351 3.3694379477558227 a27.19474265594256,27.19474265594256 0 0,0 -0.2572824169321826,0.3895583711570746 l -5.139635586509441 -3.4581761972519582" fill="#ff4806" stroke="none" /><path d="M 117.01052211995028 112.31430620078461 l 6.194639204129084 4.484441066836177 a28.647467983016327,28.647467983016327 0 0,0 -0.2917921688382891,0.3958721173377672 l -6.1167450157069645 -4.590119493442824" fill="#ff5d08" stroke="none" /><path d="M 116.1254893667686 113.45245675266167 l 8.666149373693841 7.229610029818539 a32.285805516241496,32.285805516241496 0 0,0 -0.3586882832614825,0.42253389577316675 l -8.540766526925244 -7.3773107080412625" fill="#ff8e0d" stroke="none" /><path d="M 115.89218393027572 113.72728997021213 l 4.283960934499745 3.700383422879163 a26.660844350857815,26.660844350857815 0 0,0 -0.302142189572686,0.34378234825697335 l -4.219807680968473 -3.7733780489474293" fill="#ff4106" stroke="none" /><path d="M 115.6541949942343 113.99807769240083 l 1.8002675488726416 1.609810343202504 a23.41504711933446,23.41504711933446 0 0,0 -0.27050210790696466,0.29732920158443243 l -1.7723677401237972 -1.6404771203446082" fill="#ff1302" stroke="none" /><path d="M 115.16444852881244 114.52719865689866 l 5.501948160519286 5.270741878674907 a28.619196382339744,28.619196382339744 0 0,0 -0.3429032166787469,0.3518489084370108 l -5.41065814268973 -5.364413479179656" fill="#ff5c08" stroke="none" /><path d="M 114.91283532996326 114.78537596483092 l 4.645428769290909 4.605724488475067 a27.541613448859124,27.541613448859124 0 0,0 -0.33575597978882027,0.3328862878035988 l -4.565680869372127 -4.684790786507327" fill="#ff4d07" stroke="none" /><path d="M 114.39649973595853 115.28858382429668 l 11.181650870208392 11.874525736016961 a37.310538851876146,37.310538851876146 0 0,0 -0.47005989506857054,0.4350804212887071 l -10.976161203825853 -12.064723903438047" fill="#ffcf13" stroke="none" /><path d="M 114.13192950727249 115.5334660781643 l 3.805069217326296 4.182437619858524 a26.654320135317064,26.654320135317064 0 0,0 -0.34109276221931095,0.30500725125885414 l -3.7327114282836074 -4.247140401000765" fill="#ff4106" stroke="none" /><path d="M 113.59037401385872 116.0094264158162 l 11.183945642009908 13.17465984465636 a38.281559598191166,38.281559598191166 0 0,0 -0.5046342011947794,0.42098379857399293 l -10.956137106653234 -13.364705827142224" fill="#ffdc14" stroke="none" /><path d="M 112.45986205192187 116.90419585922612 l 3.241955546147989 4.398335333940309 a26.464030515378507,26.464030515378507 0 0,0 -0.3679999739301578,0.26640360177668415 l -3.1659745618438633 -4.45333970709007" fill="#ff3e05" stroke="none" /><path d="M 112.16784306229584 117.11559508785304 l 3.1848759025115894 4.479926809818968 a26.496651593082262,26.496651593082262 0 0,0 -0.3729781084939891,0.26036768666847604 l -3.107502702843842 -4.533939312292566" fill="#ff3f05" stroke="none" /><path d="M 111.8722381534696 117.32195027204791 l 3.7130200445453596 5.417407209940076 a27.567710311022125,27.567710311022125 0 0,0 -0.39264783250920154,0.26419098502819355 l -3.619475923939155 -5.48034786902539" fill="#ff4e07" stroke="none" /><path d="M 111.27062007382361 117.71928675628689 l 5.412185296246342 8.508854225782978 a31.084262487486626,31.084262487486626 0 0,0 -0.45269916660903126,0.2825177614496336 l -5.265322000847596 -8.600507784074159" fill="#ff7e0b" stroke="none" /><path d="M 110.96478420261333 117.91015095944535 l 18.630178578371037 30.43099659549379 a56.680934792364255,56.680934792364255 0 0,0 -0.8342009653344622,0.500913711142813 l -18.105044856479136 -30.74632430717253" fill="#52ff2b" stroke="none" /><line stroke="#e1ed5e" stroke-width="0.3" x1="143.1302829299769" x2="145.66735839644613" y1="173.24464959558577" y2="177.55315839532614" /><path d="M 143.63769802327073 174.10635135553383 a86.0,86.0 0 0,1 -40.68552437913181,11.842963189579606" fill="none" id="id18" stroke="none" /><text fill="#e1ed5e" style="font-size:6.75px; font-family:Arial;" text-anchor="middle"><textPath startOffset="21.407464694133747" xlink:href="#id18">June</textPath></text><path d="M 110.65571695917076 118.09573695890943 l 2.227404951715922 3.7826205652482314 a25.389709689668265,25.389709689668265 0 0,0 -0.3774694573310598,0.21793209280095016 l -2.1621430265244634 -3.8202995553253536" fill="#ff2f04" stroke="none" /><path d="M 110.34350942703117 118.27599006163325 l 3.443789858942855 6.084846703181082 a27.991784321170908,27.991784321170908 0 0,0 -0.42021774719667815,0.23308770076511406 l -3.338827923590082 -6.14306731937934" fill="#ff5407" stroke="none" /><line stroke="#e1ed5e" stroke-width="0.3" x1="101.45913802915013" x2="101.54496967792366" y1="184.9874750549273" y2="189.98673829345242" /><path d="M 101.47630435890484 185.9873277026323 a86.0,86.0 0 0,1 -42.54439059252881,-10.42667462771756" fill="none" id="id19" stroke="none" /><text fill="#e1ed5e" style="font-size:6.75px; font-family:Arial;" text-anchor="middle"><textPath startOffset="22.145653131862474" xlink:href="#id19">July</textPath></text><path d="M 97.84075906011543 120.88869738790638 l -0.8819130380998388 8.53170863660148 a29.57716869757327,29.57716869757327 0 0,0 -0.5045922703160547,-0.05654061636767173 l 1.0282412100166929 -8.515312259726837" fill="#ff6909" stroke="none" /><path d="M 96.41257539226777 120.69131181640829 l -5.615002470357784 32.38584212018311 a53.868997894300804,53.868997894300804 0 0,0 -0.9097839281676064,-0.16579293820933635 l 6.170121132076448 -32.28468100804241" fill="#6fff27" stroke="none" /><path d="M 95.35216902796893 120.47920084513623 l -1.944070140084247 8.565931742224992 a29.7837688563637,29.7837688563637 0 0,0 -0.49762699200673016,-0.11743861514553826 l 2.090829285830865 -8.531296983433226" fill="#ff6c0a" stroke="none" /><path d="M 94.6519064749342 120.30758222061772 l -1.6687292406734735 6.3364367320985755 a27.552487141427044,27.552487141427044 0 0,0 -0.4563460703950467,-0.12437915076700475 l 1.7772567120032154 -6.306857087187427" fill="#ff4d07" stroke="none" /><path d="M 93.95794788825049 120.11202640906438 l -1.7582415444802495 5.852614264503876 a27.111015223169595,27.111015223169595 0 0,0 -0.44456819259324704,-0.1377283624777912 l 1.85845036994513 -5.821569314219436" fill="#ff4706" stroke="none" /><path d="M 92.25597844496254 119.51999308798841 l -2.811281117178759 7.08626488003832 a28.62354585936691,28.62354585936691 0 0,0 -0.45517644974506705,-0.18511629950424224 l 2.932512028114267 -7.036961323954786" fill="#ff5c08" stroke="none" /><path d="M 90.93487009805054 118.94263497670748 l -3.3434492194200374 6.986522952419176 a28.745331216127585,28.745331216127585 0 0,0 -0.4432800426623815,-0.21683048191238363 l 3.462889511344488 -6.928098720409572" fill="#ff5e08" stroke="none" /><line stroke="#e1ed5e" stroke-width="0.3" x1="58.13341422392154" x2="55.67067388415222" y1="173.97424548756322" y2="178.32567169271397" /><path d="M 57.64086615596768 174.84453072859336 a86.0,86.0 0 0,1 -31.369924170532247,-30.572349798747897" fill="none" id="id20" stroke="none" /><text fill="#e1ed5e" style="font-size:6.75px; font-family:Arial;" text-anchor="middle"><textPath startOffset="22.145653131862474" xlink:href="#id20">August</textPath></text><path d="M 89.03521579738668 117.91015095944536 l -4.559607611473692 7.447776365527234 a29.732662501294488,29.732662501294488 0 0,0 -0.43301498759451307,-0.27023337790898894 l 4.68678672785792 -7.368407190776698" fill="#ff6c09" stroke="none" /><path d="M 88.72937992617639 117.7192867562869 l -2.402627438499695 3.7773293991318213 a25.476699230211604,25.476699230211604 0 0,0 -0.36700321713360917,-0.23788705133893034 l 2.4671162878903137 -3.735528506088996" fill="#ff3004" stroke="none" /><path d="M 88.4268655584334 117.5232005979908 l -3.602097645496401 5.4540349405151725 a27.536176602575168,27.536176602575168 0 0,0 -0.39219869683079434,-0.26388878649947267 l 3.6951926304241987 -5.391396479958579" fill="#ff4d07" stroke="none" /><path d="M 87.2517909369889 116.68781488649013 l -6.4359334994834985 8.424843547064729 a31.601850253719494,31.601850253719494 0 0,0 -0.4282653482540597,-0.3330217251421569 l 6.579608792372786 -8.313120770301778" fill="#ff850c" stroke="none" /><path d="M 86.96720088162412 116.46651593811092 l -4.067885312863912 5.139640205474779 a27.554661879940625,27.554661879940625 0 0,0 -0.36837857599593155,-0.29673970467115435 l 4.155514659215106 -5.069052207010215" fill="#ff4d07" stroke="none" /><path d="M 86.40962598614128 116.0094264158162 l -4.417141307172731 5.203381353105645 a27.82541682488177,27.82541682488177 0 0,0 -0.3614926044752115,-0.3122487019713441 l 4.505813391410805 -5.126788518669579" fill="#ff5107" stroke="none" /><path d="M 86.13680546590413 115.77377054828092 l -5.058541814445107 5.755692001125461 a28.662691152611412,28.662691152611412 0 0,0 -0.3667936922889063,-0.3279891814068866 l 5.156600533557384 -5.668007289835194" fill="#ff5d08" stroke="none" /><path d="M 83.4222238831116 112.89097897827486 l -8.062845683278649 6.269717571003609 a31.21365942904484,31.21365942904484 0 0,0 -0.32528798312299645,-0.4258124117925363 l 8.16928564375594 -6.130384245970202" fill="#ff800b" stroke="none" /><path d="M 82.98947788004972 112.3143062007846 l -5.342028547283223 3.8672167027387188 a27.59489454244192,27.59489454244192 0 0,0 -0.2744836584559099,-0.38609564014852654 l 5.407627304269094 -3.7749438358806886" fill="#ff4e07" stroke="none" /><path d="M 82.78059297857968 112.02048342749411 l -12.58956266055723 8.788492491778287 a36.35365390589941,36.35365390589941 0 0,0 -0.35282132239456887,-0.5147768535666405 l 12.738573719767123 -8.571080903141596" fill="#ffc312" stroke="none" /><line stroke="#e1ed5e" stroke-width="0.3" x1="26.387840678322732" x2="22.057713659400534" y1="142.50000000000003" y2="145.00000000000006" /><path d="M 25.521815274538284 143.00000000000003 a86.0,86.0 0 0,1 -11.493303480769212,-40.785679425670985" fill="none" id="id21" stroke="none" /><text fill="#e1ed5e" style="font-size:6.75px; font-family:Arial;" text-anchor="middle"><textPath startOffset="21.40746469413373" xlink:href="#id21">September</textPath></text><path d="M 81.4637452351635 109.86951160357371 l -6.952775182944299 3.7019611682982507 a28.876902896199386,28.876902896199386 0 0,0 -0.22921650979954078,-0.4395528808703141 l 7.015299761718789 -3.582062044323434" fill="#ff6008" stroke="none" /><path d="M 81.29705330413844 109.54985784667822 l -16.468135346221423 8.408747247890666 a39.49071421174359,39.49071421174359 0 0,0 -0.3031007973323487,-0.606404633839458 l 16.610056056765508 -8.124810757887454" fill="#ffeb16" stroke="none" /><path d="M 81.1358732173502 109.22738970284198 l -9.500112038112398 4.646980854525926 a31.57575339155649,31.57575339155649 0 0,0 -0.23399248444137366,-0.4889542971814084 l 9.578483780513682 -4.483214055279413" fill="#ff850c" stroke="none" /><path d="M 80.9802524753101 108.90220220490708 l -14.096896651683412 6.598059427027507 a36.564603541717005,36.564603541717005 0 0,0 -0.261202788936828,-0.5707752334250783 l 14.208083905475297 -6.35509521138774" fill="#ffc612" stroke="none" /><path d="M 80.83023694016515 108.57439118712176 l -8.935389920154298 3.996686257713598 a30.78849804963927,30.78849804963927 0 0,0 -0.21165790199783682,-0.48431470097276835 l 9.002681704169104 -3.84270948696498" fill="#ff7a0b" stroke="none" /><path d="M 80.68587082218212 108.24405325689762 l -16.048215208487186 6.8500287866393075 a38.4490144637371,38.4490144637371 0 0,0 -0.2538992671030093,-0.6092658122644606 l 16.16344032012668 -6.573530464933565" fill="#ffde14" stroke="none" /><path d="M 80.28708602549918 107.23885506374661 l -14.23910818172632 5.228797756529315 a36.16880113224481,36.16880113224481 0 0,0 -0.20902093119636492,-0.5846687454289172 l 14.326769282966627 -4.983594054719476" fill="#ffc111" stroke="none" /><path d="M 80.05021161711548 106.5578916946017 l -14.537265969432868 4.77868807094461 a36.3025475508302,36.3025475508302 0 0,0 -0.18952571994023762,-0.5936866183259912 l 14.61715640515036 -4.528432418927227" fill="#ffc212" stroke="none" /><path d="M 79.94057633289273 106.21446072829308 l -8.33218423094693 2.581331973611469 a29.72287617798336,29.72287617798336 0 0,0 -0.146807909393185,-0.4886757836850825 l 8.375268460343746 -2.437918586335663" fill="#ff6b09" stroke="none" /><path d="M 79.48165901384964 104.47187691870673 l -13.82007902660658 3.012021900576676 a35.14449929234699,35.14449929234699 0 0,0 -0.1234112299880518,-0.5905674108609922 l 13.869747967418999 -2.7743380384302747" fill="#ffb410" stroke="none" /><line stroke="#e1ed5e" stroke-width="0.3" x1="15.003131293944662" x2="10.003315487706104" y1="100.72959589197737" y2="100.7725132973878" /><path d="M 14.003168132696942 100.73817937305945 a86.0,86.0 0 0,1 10.791469493833604,-42.45332614584628" fill="none" id="id22" stroke="none" /><text fill="#e1ed5e" style="font-size:6.75px; font-family:Arial;" text-anchor="middle"><textPath startOffset="22.145653131862435" xlink:href="#id22">October</textPath></text><path d="M 79.00077361379809 100.18025310272382 l -14.7191753731583 0.12634641780380942 a35.71971762918982,35.71971762918982 0 0,0 0.0,-0.6131990410552486 l 14.7191753731583 0.126346417803804" fill="#ffbb11" stroke="none" /><path d="M 79.03789590574601 98.7389718711861 l -39.64774785226845 -2.3851100567493457 a60.71942421208878,60.71942421208878 0 0,0 0.07152181120691412,-1.0399114380686107 l 39.600962079896476 3.0653649189722816" fill="#30ff36" stroke="none" /><path d="M 79.06263194458094 98.37931529534042 l -6.703152336289967 -0.518866384527092 a27.723204114743346,27.723204114743346 0 0,0 0.04080113363798753,-0.47417101987255883 l 6.693257579954237 0.6338584517753315" fill="#ff5007" stroke="none" /><path d="M 79.13060592940154 97.66154086499901 l -25.077636172963096 -2.810001440123996 a46.23457834236598,46.23457834236598 0 0,0 0.09515057231528477,-0.7879832349291207 l 25.02570351438814 3.2400783519765533" fill="#c3ff1e" stroke="none" /><path d="M 79.17382384314186 97.30363454192245 l -8.6301850831925 -1.1173502413439205 a29.70221616210432,29.70221616210432 0 0,0 0.06980796371725605,-0.505095650659828 l 8.609732602920037 1.2653342002038155" fill="#ff6b09" stroke="none" /><path d="M 79.2786578344484 96.59031103205396 l -29.789119949827825 -4.901788351654552 a51.18972004556595,51.18972004556595 0 0,0 0.1501203929298862,-0.8658545334775914 l 29.700584739405706 5.412435918052737" fill="#8cff24" stroke="none" /><path d="M 79.56144815229197 95.17655741523228 l -9.538437699095196 -2.2510453251671483 a30.80045911146398,30.80045911146398 0 0,0 0.1258601705137307,-0.5135524455845212 l 9.498390002065168 2.414453595359787" fill="#ff7a0b" stroke="none" /><path d="M 79.73907114497095 94.47779374421319 l -8.116890808348224 -2.2122946840254705 a29.412975939797715,29.412975939797715 0 0,0 0.13695453047464085,-0.48600331359719673 l 8.077717785799 2.35130592152568" fill="#ff6709" stroke="none" /><path d="M 80.05021161711548 93.44210830539832 l -1.2943362651672983 -0.4254740391454267 a22.362473678760054,22.362473678760054 0 0,0 0.123009129504812,-0.3636546340910568 l 1.2868417140901214 0.44763034771064514" fill="#ff0300" stroke="none" /><path d="M 80.5471966667186 92.08871423366112 l -58.3584099998442 -23.73385729901662 a84.0,84.0 0 0,0 0.5546966218540859,-1.3310699622349447 l 57.94238753345363 24.732159770692828" fill="#4dd2ff" stroke="none" /><path d="M 81.1358732173502 90.77261029715801 l -13.665079931440724 -6.684275360355521 a36.21229590251649,36.21229590251649 0 0,0 0.27793814268426337,-0.556062468749181 l 13.548321875544714 6.917869685268473" fill="#ffc112" stroke="none" /><path d="M 81.63589988554816 89.8137432299009 l -22.08142149493255 -12.248192277015507 a46.250888881217854,46.250888881217854 0 0,0 0.3910768906384969,-0.6909953934943176 l 21.867911239272683 12.62544444060893" fill="#c3ff1e" stroke="none" /><line stroke="#e1ed5e" stroke-width="0.3" x1="26.387840678322718" x2="22.05771365940052" y1="57.49999999999999" y2="54.99999999999999" /><path d="M 25.521815274538284 56.99999999999999 a86.0,86.0 0 0,1 29.574782752854787,-30.34633250058573" fill="none" id="id23" stroke="none" /><text fill="#e1ed5e" style="font-size:6.75px; font-family:Arial;" text-anchor="middle"><textPath startOffset="21.40746469413373" xlink:href="#id23">November</textPath></text><path d="M 81.81346652052679 89.5 l -27.470021477944343 -15.859824294935972 a52.71964858987194,52.71964858987194 0 0,0 0.4592290342765336,-0.7798712972579576 l 27.19371873353803 16.329046760487504" fill="#7bff26" stroke="none" /><path d="M 82.37810715431573 88.57770195909679 l -15.41132435518696 -9.98943425269367 a39.365666747212536,39.365666747212536 0 0,0 0.37242837753628816,-0.5639040314362121 l 15.237571538729942 10.252518162468943" fill="#ffe915" stroke="none" /><path d="M 82.576782715395 88.27688183743585 l -5.91730205580401 -3.9814249039451637 a28.132054955297043,28.132054955297043 0 0,0 0.2730286440173885,-0.3983569511812499 l 5.848083674971308 4.082416590196448" fill="#ff5607" stroke="none" /><path d="M 82.98947788004972 87.6856937992154 l -13.211941996578464 -9.564427129609358 a37.310538851876146,37.310538851876146 0 0,0 0.3800309004121797,-0.5155849034568288 l 13.045809076582465 9.789818342335051" fill="#ffcf13" stroke="none" /><path d="M 83.2033758604659 87.39550010848427 l -20.2653598195632 -15.207503812983266 a46.3367910525044,46.3367910525044 0 0,0 0.4828911951232019,-0.6321200754318774 l 20.00131664708569 15.553144801656028" fill="#c2ff1e" stroke="none" /><path d="M 84.10781606972428 86.27271002978789 l -8.23629754003226 -7.114317648789384 a31.883478891228556,31.883478891228556 0 0,0 0.3613292961248647,-0.41112641068606065 l 8.112957179948802 7.254656337286745" fill="#ff890c" stroke="none" /><path d="M 84.58840730492382 85.73525988315684 l -43.8774731305569 -40.61233407700495 a80.78791121543719,80.78791121543719 0 0,0 0.9507743315013016,-1.0096893919874332 l 43.173842965319324 41.3595649289369" fill="#49f0ff" stroke="none" /><path d="M 85.08716467003674 85.21462403516908 l -7.727967274445383 -7.661916668992431 a31.882391521971762,31.882391521971762 0 0,0 0.3886738016763956,-0.38535182333296675 l 7.595301552639011 7.793448502554071" fill="#ff890c" stroke="none" /><path d="M 86.68645165197937 83.75963576809568 l -25.51215768218859 -31.120684153456196 a61.24136145534882,61.24136145534882 0 0,0 0.8187364309992924,-0.6595161135020148 l 24.974170480834054 31.55404856075161" fill="#31ff3c" stroke="none" /><path d="M 87.25179093698888 83.31218511350988 l -5.952743415214588 -7.79233221614663 a30.805895957747936,30.805895957747936 0 0,0 0.42298990587347396,-0.3174195111114957 l 5.818100520430362 7.893370754522129" fill="#ff7a0b" stroke="none" /><path d="M 87.54013794807813 83.0958041407739 l -5.208419328169696 -7.066221124557237 a29.77833201007974,29.77833201007974 0 0,0 0.41408754411104837,-0.29976744841558406 l 5.08635077368468 7.154589344345898" fill="#ff6c0a" stroke="none" /><path d="M 87.83215693770416 82.88440491214696 l -17.633060708920244 -24.80310813578702 a51.432203389830505,51.432203389830505 0 0,0 0.7239815139896761,-0.5053953240026982 l 17.2046841037568 25.102148275594846" fill="#89ff24" stroke="none" /><path d="M 88.72937992617638 82.28071324371311 l -21.75437042141202 -34.20148360734439 a61.5338637854258,61.5338637854258 0 0,0 0.8961553733215103,-0.5592672323174647 l 21.16405091930081 34.56988663650339" fill="#31ff40" stroke="none" /><line stroke="#e1ed5e" stroke-width="0.3" x1="56.869717070023135" x2="54.33264160355391" y1="26.7553504044142" y2="22.446841604673864" /><path d="M 56.362301976729285 25.89364864446614 a86.0,86.0 0 0,1 42.16139366436587,-11.88097634709845" fill="none" id="id24" stroke="none" /><text fill="#e1ed5e" style="font-size:6.75px; font-family:Arial;" text-anchor="middle"><textPath startOffset="22.145653131862474" xlink:href="#id24">December</textPath></text><path d="M 89.34428304082924 81.90426304109057 l -7.728328253327943 -13.124390948088186 a36.230781179881944,36.230781179881944 0 0,0 0.5386439418886103,-0.31098622484674865 l 7.501891843578933 13.255124070211108" fill="#ffc212" stroke="none" /><path d="M 89.65649057296885 81.72400993836675 l -5.742506200246541 -10.14645821951906 a32.658773171321066,32.658773171321066 0 0,0 0.4902794309500247,-0.27194973571424297 l 5.567482581140414 10.243540870666449" fill="#ff930d" stroke="none" /><path d="M 89.97174638481275 81.54914285379989 l -7.826254193522508 -14.399426226700685 a37.38882943836515,37.38882943836515 0 0,0 0.5665496996160205,-0.3016558040067909 l 7.5779156781199255 14.531652498430052" fill="#ffd013" stroke="none" /><path d="M 90.61103034731259 81.2157712731953 l -9.714856255116798 -19.436220234443976 a42.7288998584694,42.7288998584694 0 0,0 0.6589198228320678,-0.3223107042405626 l 9.379776183022676 19.60012468878175" fill="#ecff1a" stroke="none" /><path d="M 90.93487009805054 81.0573650232925 l -9.79377621271922 -20.46522552326634 a43.68795954295972,43.68795954295972 0 0,0 0.6792672313666984,-0.3179313624927984 l 9.441020267480999 20.630333117329684" fill="#e1ff1b" stroke="none" /><path d="M 91.26138138417902 80.90454125486306 l -6.79898253243084 -14.857003854349188 a37.33881045255273,37.33881045255273 0 0,0 0.5851286701547442,-0.26172061162400057 l 6.5429404594204765 14.971528216883033" fill="#ffd013" stroke="none" /><path d="M 91.5904679813234 80.7573450057729 l -9.409450311967063 -21.53066373210605 a44.49696227001277,44.49696227001277 0 0,0 0.7025539023905213,-0.2998784844931354 l 9.038461334406112 21.689016866258587" fill="#d7ff1c" stroke="none" /><path d="M 92.592206182469 80.34994680014964 l -1.5538492572138185 -4.121769763156848 a25.40493285926335,25.40493285926335 0 0,0 0.40939547052729786,-0.15033568749576573 l 1.4828646350323937 4.1478362996613365" fill="#ff2f04" stroke="none" /><path d="M 93.27111125876988 80.10723608172694 l -7.447443655828334 -22.017043844441638 a44.2425178639235,44.2425178639235 0 0,0 0.7215264951241214,-0.23718009028451428 l 7.068394423056451 22.14164485612818" fill="#daff1c" stroke="none" /><path d="M 93.95794788825049 79.88797359093562 l -5.994602532702145 -19.954082192554942 a41.83508232938659,41.83508232938659 0 0,0 0.6895616609289335,-0.20072134971709016 l 5.651180859391587 20.05404723657455" fill="#f7ff19" stroke="none" /><path d="M 94.6519064749342 79.69241777938228 l -2.2225723341595245 -8.439469168905271 a29.72722565501053,29.72722565501053 0 0,0 0.4945969186169248,-0.12572460260621818 l 2.0773701223172214 8.476379003346752" fill="#ff6b09" stroke="none" /><path d="M 95.00130118170881 79.60360301121753 l -3.3055187929371086 -13.487644686237399 a34.88679277848735,34.88679277848735 0 0,0 0.5828882783385742,-0.1375600465654063 l 3.0734983608586286 13.542400876449037" fill="#ffb010" stroke="none" /><path d="M 95.70440661134978 79.44403061299748 l -4.317020198158994 -20.658504427094403 a42.10474990507094,42.10474990507094 0 0,0 0.708770336537231,-0.1417739175784141 l 3.961753376090787 20.729567741335686" fill="#f3ff19" stroke="none" /><path d="M 96.41257539226777 79.30868818359171 l -0.7571374245460604 -4.366967463340821 a25.432117090683143,25.432117090683143 0 0,0 0.4307988663878299,-0.07088778952592312 l 0.6820610551051576 4.379321251362413" fill="#ff3004" stroke="none" /><path d="M 97.12497278360702 79.19773525538626 l -5.1957713369402425 -37.59401312350316 a58.95136180054541,58.95136180054541 0 0,0 1.0036390130207067,-0.12994116378858445 l 4.5496545020287416 37.67766588349214" fill="#3bff2e" stroke="none" /><path d="M 97.84075906011542 79.11130261209362 l -0.40998670267648585 -3.966249438440368 a24.987383064655322,24.987383064655322 0 0,0 0.42704679484622204,-0.04044177547081606 l 0.34184034444524825 3.9727029694163676" fill="#ff2904" stroke="none" /><path d="M 99.27912038922189 79.0123766808444 l -0.8002487819119735 -23.29837013735599 a44.312109496358175,44.312109496358175 0 0,0 0.7604521089488971,-0.019586548817187962 l 0.4001833588923324 23.308674403523224" fill="#d9ff1c" stroke="none" /></svg>